<svg id="Layer_1" data-name="Layer 1" xmlns="http://www.w3.org/2000/svg" width="250" height="250" viewBox="0 0 250 250">
  <defs>
    <style>
      .cls-1, .cls-2 {
        fill: none;
        stroke-width: 0.24px;
      }

      .cls-1 {
        stroke: #ffd100;
      }

      .cls-1, .cls-10, .cls-2, .cls-8 {
        stroke-miterlimit: 10;
      }

      .cls-2 {
        stroke: #171314;
      }

      .cls-3 {
        fill: #2e2a25;
      }

      .cls-4, .cls-8 {
        fill: #fff;
      }

      .cls-5 {
        fill: #f7323f;
      }

      .cls-6 {
        fill: #ffd100;
      }

      .cls-7 {
        fill: #221f1f;
      }

      .cls-8 {
        stroke: #000;
        stroke-width: 1.79px;
        opacity: 0.5;
      }

      .cls-9 {
        fill: #8366ff;
      }

      .cls-10 {
        fill: #f55;
        stroke: #fff;
        stroke-width: 0.92px;
      }
    </style>
  </defs>
  <title>light-brand</title>
  <g>
    <path class="cls-1" d="M43.55,211.06a23.79,23.79,0,0,1-1,6.15,15.2,15.2,0,0,1-2.34,4.64,16.33,16.33,0,0,1-5.64,4.52c-.13.07-1,.52-5.31,2.66v-18H43.55m-25.24,0v18c-4.29-2.14-5.18-2.59-5.31-2.66a16.33,16.33,0,0,1-5.64-4.52A15.19,15.19,0,0,1,5,217.21a23.76,23.76,0,0,1-1-6.15H18.3"/>
    <path class="cls-2" d="M43.57,185.45H29.26V200.1H43.57V185.45Zm-25.27,0H4V200.1H18.3V185.45Z"/>
    <path class="cls-3" d="M23.78,234l-.43-.23c-.64-.32-10.7-5.32-11.3-5.65-3.26-1.77-10-5.46-10-18.38V183.47H45.56v26.27c0,12.92-6.78,16.6-10,18.38-.6.33-10.72,5.36-11.3,5.65l-.43.23Z"/>
    <path class="cls-4" d="M28.21,201.15V184.41H19.35v16.74H2.94v8.59h0c0,.09,0,.18,0,.28h16.4v20.71l4.43,2.2h0l4.43-2.2V210h16.4c0-.09,0-.18,0-.28v-8.59Z"/>
    <polygon class="cls-5" points="19.35 201.15 19.35 184.41 2.94 184.41 2.94 201.15 19.35 201.15 19.35 201.15"/>
    <polygon class="cls-5" points="28.21 201.15 44.62 201.15 44.62 184.41 28.21 184.41 28.21 201.15 28.21 201.15"/>
    <path class="cls-5" d="M19.35,210H2.94c.09,12,6.25,15.48,9.55,17.27.33.18,3.84,1.93,6.86,3.43V210Z"/>
    <path class="cls-5" d="M28.21,210v20.71c3-1.5,6.52-3.25,6.86-3.43,3.3-1.79,9.46-5.27,9.55-17.27Z"/>
    <path class="cls-3" d="M33.85,205.71l.34-.4-.43-.51-.43.51.34.4c0,.2,0,2-1,2.61a2.38,2.38,0,0,0,.82,0,5.22,5.22,0,0,0,.3,1,5.26,5.26,0,0,0,.3-1,2.38,2.38,0,0,0,.82,0c-1-.63-1-2.41-1-2.61Z"/>
    <path class="cls-3" d="M36.52,202.7l.34-.4-.43-.51-.43.51.34.4c0,.2,0,2-1,2.61a2.38,2.38,0,0,0,.82,0,5.23,5.23,0,0,0,.3,1,5.26,5.26,0,0,0,.3-1,2.38,2.38,0,0,0,.82,0c-1-.63-1-2.41-1-2.61Z"/>
    <path class="cls-3" d="M39.19,205.71l.34-.4-.43-.51-.43.51.34.4c0,.2,0,2-1,2.61a2.38,2.38,0,0,0,.82,0,5.22,5.22,0,0,0,.3,1,5.26,5.26,0,0,0,.3-1,2.38,2.38,0,0,0,.82,0c-1-.63-1-2.41-1-2.61Z"/>
    <path class="cls-3" d="M41.86,202.7l.34-.4-.43-.51-.43.51.34.4c0,.2,0,2-1,2.61a2.38,2.38,0,0,0,.82,0,5.25,5.25,0,0,0,.3,1,5.25,5.25,0,0,0,.3-1,2.38,2.38,0,0,0,.82,0c-1-.63-1-2.41-1-2.61Z"/>
    <path class="cls-3" d="M31.18,202.7l.34-.4-.43-.51-.43.51.34.4c0,.2,0,2-1,2.61a2.38,2.38,0,0,0,.82,0,5.22,5.22,0,0,0,.3,1,5.25,5.25,0,0,0,.3-1,2.38,2.38,0,0,0,.82,0c-1-.63-1-2.41-1-2.61Z"/>
    <path class="cls-3" d="M8.55,205.71l.34-.4-.43-.51-.43.51.34.4c0,.2,0,2-1,2.61a2.38,2.38,0,0,0,.82,0,5.26,5.26,0,0,0,.3,1,5.28,5.28,0,0,0,.3-1,2.38,2.38,0,0,0,.82,0c-1-.63-1-2.41-1-2.61Z"/>
    <path class="cls-3" d="M11.22,202.7l.34-.4-.43-.51-.43.51.34.4c0,.2,0,2-1,2.61a2.38,2.38,0,0,0,.82,0,5.24,5.24,0,0,0,.3,1,5.25,5.25,0,0,0,.3-1,2.38,2.38,0,0,0,.82,0c-1-.63-1-2.41-1-2.61Z"/>
    <path class="cls-3" d="M13.89,205.71l.34-.4-.43-.51-.43.51.34.4c0,.2,0,2-1,2.61a2.37,2.37,0,0,0,.82,0,5.24,5.24,0,0,0,.3,1,5.26,5.26,0,0,0,.3-1,2.38,2.38,0,0,0,.82,0c-1-.63-1-2.41-1-2.61Z"/>
    <path class="cls-3" d="M16.56,202.7l.34-.4-.43-.51-.43.51.34.4c0,.2,0,2-1,2.61a2.38,2.38,0,0,0,.82,0,5.28,5.28,0,0,0,.3,1,5.26,5.26,0,0,0,.3-1,2.38,2.38,0,0,0,.82,0c-1-.63-1-2.41-1-2.61Z"/>
    <path class="cls-3" d="M5.88,202.7l.34-.4-.43-.51-.43.51.34.4c0,.2,0,2-1,2.61a2.38,2.38,0,0,0,.82,0,5.26,5.26,0,0,0,.3,1,5.22,5.22,0,0,0,.3-1,2.38,2.38,0,0,0,.82,0c-1-.63-1-2.41-1-2.61Z"/>
    <path class="cls-3" d="M23.89,212.51l.34-.4-.43-.51-.43.51.34.4c0,.2,0,2-1,2.61a2.37,2.37,0,0,0,.82,0,5.27,5.27,0,0,0,.3,1,5.27,5.27,0,0,0,.3-1,2.37,2.37,0,0,0,.82,0c-1-.63-1-2.41-1-2.61Z"/>
    <path class="cls-3" d="M23.89,221.58l.34-.4-.43-.51-.43.51.34.4c0,.2,0,2-1,2.61a2.38,2.38,0,0,0,.82,0,5.26,5.26,0,0,0,.3,1,5.26,5.26,0,0,0,.3-1,2.38,2.38,0,0,0,.82,0c-1-.63-1-2.41-1-2.61Z"/>
    <path class="cls-3" d="M26.37,217l.34-.4-.43-.51-.43.51.34.4c0,.2,0,2-1,2.61a2.38,2.38,0,0,0,.82,0,5.24,5.24,0,0,0,.3,1,5.25,5.25,0,0,0,.3-1,2.38,2.38,0,0,0,.82,0c-1-.63-1-2.41-1-2.61Z"/>
    <path class="cls-3" d="M21.38,217l.34-.4-.43-.51-.43.51.34.4c0,.2,0,2-1,2.61a2.38,2.38,0,0,0,.82,0,5.27,5.27,0,0,0,.3,1,5.23,5.23,0,0,0,.3-1,2.38,2.38,0,0,0,.82,0c-1-.63-1-2.41-1-2.61Z"/>
    <path class="cls-3" d="M26.37,226.12l.34-.4-.43-.51-.43.51.34.4c0,.2,0,2-1,2.61a2.38,2.38,0,0,0,.82,0,5.24,5.24,0,0,0,.3,1,5.25,5.25,0,0,0,.3-1,2.38,2.38,0,0,0,.82,0c-1-.63-1-2.41-1-2.61Z"/>
    <path class="cls-3" d="M21.38,226.12l.34-.4-.43-.51-.43.51.34.4c0,.2,0,2-1,2.61a2.38,2.38,0,0,0,.82,0,5.27,5.27,0,0,0,.3,1,5.23,5.23,0,0,0,.3-1,2.38,2.38,0,0,0,.82,0c-1-.63-1-2.41-1-2.61Z"/>
    <path class="cls-3" d="M23.89,191.85l.34-.4-.43-.51-.43.51.34.4c0,.2,0,2-1,2.61a2.39,2.39,0,0,0,.82,0,5.26,5.26,0,0,0,.3,1,5.26,5.26,0,0,0,.3-1,2.39,2.39,0,0,0,.82,0c-1-.63-1-2.41-1-2.61Z"/>
    <path class="cls-3" d="M26.37,187.31l.34-.4-.43-.51-.43.51.34.4c0,.2,0,2-1,2.61a2.38,2.38,0,0,0,.82,0,5.24,5.24,0,0,0,.3,1,5.25,5.25,0,0,0,.3-1,2.37,2.37,0,0,0,.82,0c-1-.63-1-2.41-1-2.61Z"/>
    <path class="cls-3" d="M21.38,187.31l.34-.4-.43-.51-.43.51.34.4c0,.2,0,2-1,2.61a2.38,2.38,0,0,0,.82,0,5.26,5.26,0,0,0,.3,1,5.22,5.22,0,0,0,.3-1,2.38,2.38,0,0,0,.82,0c-1-.63-1-2.41-1-2.61Z"/>
    <path class="cls-3" d="M26.37,196.39l.34-.4-.43-.51-.43.51.34.4c0,.2,0,2-1,2.61a2.39,2.39,0,0,0,.82,0,5.23,5.23,0,0,0,.3,1,5.24,5.24,0,0,0,.3-1,2.38,2.38,0,0,0,.82,0c-1-.63-1-2.41-1-2.61Z"/>
    <path class="cls-3" d="M21.38,196.39l.34-.4-.43-.51-.43.51.34.4c0,.2,0,2-1,2.61a2.39,2.39,0,0,0,.82,0,5.26,5.26,0,0,0,.3,1,5.22,5.22,0,0,0,.3-1,2.39,2.39,0,0,0,.82,0c-1-.63-1-2.41-1-2.61Z"/>
    <path class="cls-3" d="M15.8,192.67l.06.21c.05.19.09.34.11.45.17.79.32,1,.71,1a.46.46,0,0,0,.46-.31l.08-.28a.13.13,0,0,1,.13-.1c.15,0,.22.16.23.51a6.21,6.21,0,0,0,.1.68,3.53,3.53,0,0,1,.05.61,1,1,0,0,1-.08.44,5.91,5.91,0,0,1,.08.85,2.08,2.08,0,0,0-.1,1.35,2.61,2.61,0,0,1,0,.46,3.44,3.44,0,0,0-.07.48.59.59,0,0,0,0,.19.65.65,0,0,1,0,.17s0,.07,0,.07l-.28-.11-.31-.17a1.48,1.48,0,0,1-.32-.25c-.27.24-.35.28-1.06.47a1,1,0,0,0-.31.13.44.44,0,0,1-.18.1c-.12,0-.18-.19-.18-.59a3.18,3.18,0,0,1,.08-.77,1.58,1.58,0,0,0-.5-.12l-.21,0h-.05s-.07-.06-.07-.13a1.08,1.08,0,0,1,.09-.3l.14-.33a1.19,1.19,0,0,1,.33-.4.89.89,0,0,1,.36-.21l.5-.1c.3-.06.47-.22.47-.42s-.13-.34-.43-.44l-.6-.21a3.22,3.22,0,0,1-.54-.26c-.33-.2-.39-.22-.47-.22s-.19.09-.19.25a.39.39,0,0,0,.39.42l.14,0,.14,0c.06,0,.1,0,.1.11v.06l0,.24a1.94,1.94,0,0,1-.45.84l-.12.17a1.92,1.92,0,0,1-.75,1.1l-.15.11-.11.19a2.33,2.33,0,0,1-.28.33,2.57,2.57,0,0,1-.35.32,1.32,1.32,0,0,0-.28.25l-.14.24a.13.13,0,0,1-.11.07c-.12,0-.24-.13-.31-.35s-.1-.21-.2-.21l-.24,0-.19,0h-.5a2.24,2.24,0,0,0-.76.14l-.14,0s-.06,0-.09-.09a.2.2,0,0,1,0-.11,2.64,2.64,0,0,1,.42-1.11,1.48,1.48,0,0,1,.38-.44.62.62,0,0,0-.39-.47l-.24-.07a.07.07,0,0,1-.06-.07c0-.07.11-.17.32-.28a1.73,1.73,0,0,1,.76-.22,1.14,1.14,0,0,1,.71.29c.38.29.48.35.66.35a.6.6,0,0,0,.58-.56,1.29,1.29,0,0,0-.37-.74,1.71,1.71,0,0,1-.5-1.13,1.42,1.42,0,0,1,.16-.65l.14-.21a.26.26,0,0,0,0-.13c0-.09-.11-.16-.25-.16a2.36,2.36,0,0,0-1,.36c-.17.1-.28.22-.28.3a.13.13,0,0,0,.06.11l.15.1a.07.07,0,0,1,0,.06.26.26,0,0,1-.06.11l-.28.36a4.65,4.65,0,0,1-.58.61l-.14.14-.11.21a2.19,2.19,0,0,1-.61.63l-.19.15a1.27,1.27,0,0,0-.11.19,3.08,3.08,0,0,1-.18.29,3.13,3.13,0,0,1-.33.43l-.39.39a2.29,2.29,0,0,0-.39.86c-.1.31-.19.49-.24.49s-.06,0-.11-.09c-.28-.31-.51-.5-.64-.5a.39.39,0,0,0-.15.07,1.09,1.09,0,0,1-.38.14l-.51.1a1.09,1.09,0,0,0-.77.42c-.05.06-.1.1-.12.1s-.07-.07-.07-.16v-.13l.07-.37a3.1,3.1,0,0,1,.28-.9l.23-.43a.48.48,0,0,0,.07-.23.76.76,0,0,0-.74-.65c-.1,0-.14,0-.14-.09s.11-.21.27-.33a1.7,1.7,0,0,1,.88-.36,1.91,1.91,0,0,1,.63.17l.31.13a.82.82,0,0,0,.31.07c.32,0,.64-.3,1-1a1.46,1.46,0,0,0,.25-.71c0-.35-.17-.57-.44-.57a.89.89,0,0,0-.6.26.63.63,0,0,0-.21.43V195c0,.13,0,.2-.12.2s-.32-.19-.87-.85a1.64,1.64,0,0,1-.51-1.2c-.47-.6-.59-.86-.59-1.28l0-.29a1.33,1.33,0,0,1-.42-1,.72.72,0,0,1,.1-.37,1.43,1.43,0,0,1-.26-.54l-.07-.29a1.5,1.5,0,0,0-.22-.51c-.13-.18-.14-.2-.14-.27s.11-.23.6-.35A2.27,2.27,0,0,1,4,188a1.7,1.7,0,0,1,0-.33l.1-.52a2.77,2.77,0,0,0,.06-.45,1.44,1.44,0,0,0-.1-.44,1.52,1.52,0,0,0-.12-.32.54.54,0,0,1-.08-.19s0-.08.1-.08a2.32,2.32,0,0,1,.88.53A2.19,2.19,0,0,1,6,187.92c0,.06,0,.16,0,.28a1.24,1.24,0,0,1,.58,1,1.73,1.73,0,0,1-.28.89l-.28.43a.84.84,0,0,0-.12.46,1.61,1.61,0,0,0,.26.83c.21.38.39.53.62.53s.69-.64.69-1.36v-.35a3.56,3.56,0,0,1,0-.46q0-.32,0-.4v-.55a.41.41,0,0,0-.14-.27l-.3-.33a2.17,2.17,0,0,1-.69-1.28.71.71,0,0,1,.71-.74,1,1,0,0,1,.29.05v-.09c0-.61.13-1.07.29-1.07l.07,0,.25.22.31.2.08.08c0-.17,0-.19.18-.39l.19-.26.14-.21L9,185c0-.07.07-.1.12-.1s.07.05.12.2.05.12.29.33a.9.9,0,0,1,.17.18,1.84,1.84,0,0,1,.11.28l0,.11a.84.84,0,0,1,.28-.25l.21-.12a.45.45,0,0,1,.15-.07s0,0,.07.08l.11.21a1.06,1.06,0,0,1,.2.5v.3a.78.78,0,0,1,.63.87,2,2,0,0,1-.54,1.19c-.24.28-.27.34-.27.54,0,1,.72,1.62,2,1.64h.93a4.49,4.49,0,0,1,1.52.25,3.65,3.65,0,0,0,1,.27.32.32,0,0,0,.18-.06.17.17,0,0,0,.08-.12c0-.19-.34-.35-1.46-.67-2.29-.65-3.27-1.57-3.27-3.09a2.13,2.13,0,0,1,2.24-2.08,4.86,4.86,0,0,1,1.39.24l.57.21a.88.88,0,0,0,.3.06c.19,0,.29-.16.3-.49,0-.17,0-.24.16-.24s.41.2.63.51a1.8,1.8,0,0,1,.38.91.79.79,0,0,1-.49.73A1.36,1.36,0,0,1,16,188a4.51,4.51,0,0,1-1.92-.76,1.37,1.37,0,0,0-.67-.25.36.36,0,0,0-.41.36c0,.2.16.33.56.47a2,2,0,0,1,1,.54A2.81,2.81,0,0,1,16,189a2.46,2.46,0,0,1,2,2.17,1.5,1.5,0,0,1-1.5,1.6,2.69,2.69,0,0,1-.66-.08"/>
    <path class="cls-6" d="M17.18,198.76a1.52,1.52,0,0,1-.05-.34v-.11l0-.22v-.18a.7.7,0,0,0-.1-.42l-.17-.22a1,1,0,0,1-.14-.27.36.36,0,0,1,0-.12.09.09,0,0,1,.1-.1s.05,0,.18.08a.29.29,0,0,0,.14,0c.08,0,.13-.13.13-.37a.82.82,0,0,0-.08-.48l-.21-.24-.18-.15a.19.19,0,0,1-.07-.12.1.1,0,0,1,.11-.1,1.15,1.15,0,0,1,.31.07h.06c.06,0,.08,0,.08-.12v-.05l0-.29-.08-.31c0-.1,0-.11-.11-.11h0l-.35.07h-.06a1.24,1.24,0,0,1-1.08-.87l-.28-.9a1.86,1.86,0,0,0-.67-.85.61.61,0,0,0-.28-.15l-.25,0s-.08,0-.08-.07.05-.08.17-.08l.46,0a3.6,3.6,0,0,1,.75.19,2.94,2.94,0,0,0,.93.2,1,1,0,0,0,1.11-1,1.76,1.76,0,0,0-.57-1.23,1.28,1.28,0,0,0-.46-.31.07.07,0,0,0-.07.07V190c0,.07,0,.12-.1.12s-.15-.09-.24-.28a1.33,1.33,0,0,0-1.11-.87c-.07,0-.12,0-.12.07a.72.72,0,0,0,.07.2l.11.25a.47.47,0,0,1,0,.13s0,0-.06,0a.4.4,0,0,1-.24-.13l-.21-.22-.18-.28a1.26,1.26,0,0,0-.57-.49l-.33-.18a.37.37,0,0,0-.17-.06.06.06,0,0,0-.07.07.29.29,0,0,0,.05.15.76.76,0,0,1,.14.28.08.08,0,0,1-.07.08c-.11,0-.33-.22-.53-.51a1.42,1.42,0,0,1-.25-.78,1,1,0,0,1,1-1,2.13,2.13,0,0,1,1,.35l.65.4a1.72,1.72,0,0,0,.76.25,1.88,1.88,0,0,0,.41-.07l.17-.07s.07-.05.07-.08a.06.06,0,0,0,0-.06l-.08,0-.31-.06a1.75,1.75,0,0,1-.37-.14,6.63,6.63,0,0,1-.7-.35,2.72,2.72,0,0,0-.46-.26c-.11,0-.18-.09-.18-.13a.05.05,0,0,1,.06-.06.31.31,0,0,1,.15.05,1.07,1.07,0,0,0,.51.2l.6.21a3.67,3.67,0,0,0,.92.19.46.46,0,0,0,.46-.46,1.21,1.21,0,0,0-.24-.61s-.07-.07-.09-.07-.09,0-.09.11v.11l0,.17a.3.3,0,0,1-.28.32.74.74,0,0,1-.22,0l-.9-.29a4.66,4.66,0,0,0-1.49-.32A1.79,1.79,0,0,0,12,187.48c0,1.11.78,1.82,2.7,2.48s2.16.81,2.16,1.29a.59.59,0,0,1-.6.53,1.84,1.84,0,0,1-.33,0l-.95-.22a7,7,0,0,0-1.73-.2,3.54,3.54,0,0,0-2.78.88.45.45,0,0,1-.41.18H9.79a.44.44,0,0,0-.39.25l-.24.38a.2.2,0,0,1-.16.08c-.13,0-.2-.09-.34-.43a1.18,1.18,0,0,0-.29-.42L8.09,192a.17.17,0,0,1-.07-.11.28.28,0,0,1,.06-.13,1,1,0,0,0,.2-.36c0-.18,0-.19.12-.19s.11.09.12.4a1,1,0,0,0,.11.37l.15.33a.13.13,0,0,0,.13.07c.14,0,.33-.34.38-.7s.07-.39.13-.39a.07.07,0,0,1,.06,0s.06.1.12.25a.56.56,0,0,0,.18.21.57.57,0,0,0,.17.1h0c.11,0,.15-.07.18-.34v-.14l0-.2,0-.13c0-.09,0-.14.08-.14a.16.16,0,0,1,.1.06l.14.14a.4.4,0,0,0,.27.14c.12,0,.19,0,.19-.12a.72.72,0,0,0-.13-.32l-.1-.18c-.11-.21-.2-.29-.3-.29h-.14l-.17.07-.11,0s0,0,0-.06a1.26,1.26,0,0,1,.24-.57,2.74,2.74,0,0,0,.22-1.09c0-.73.14-1.2.25-1.2s.1.06.1.21v.32c0,.13,0,.23.06.23s.26-.18.37-.46a.86.86,0,0,0,.07-.28l0-.06L10.9,187l-.28-.08a.16.16,0,0,1-.1-.06v-.34l0-.17-.06-.14-.07-.15a1.57,1.57,0,0,0-.56.42c-.11.15-.17.2-.22.2a.07.07,0,0,1-.07-.07,1.3,1.3,0,0,1,0-.23v-.08a1,1,0,0,0-.48-.78l-.08.11-.1.14-.17.2a.81.81,0,0,0-.14.28.54.54,0,0,0,0,.16v.07c0,.12,0,.15-.06.15l0,0-.1-.14-.15-.17L8,186.14l-.12-.1-.06.12a.7.7,0,0,0-.07.22l0,.22v.28c0,.12,0,.17-.1.17a.5.5,0,0,1-.16-.07.4.4,0,0,0-.2-.06.35.35,0,0,0-.36.38,1.22,1.22,0,0,0,.22.73l.18.24c.05.06.14.12.15.08l0-.29,0-.24v-.11c0-.09,0-.15.08-.15s.13.09.18.32l.11.52.11.65a2.59,2.59,0,0,0,.17.56,2.9,2.9,0,0,0,.24.49c.15.2.17.23.17.27a.06.06,0,0,1-.06.06l-.13,0a.58.58,0,0,0-.17-.06l-.11,0c-.22,0-.27.19-.27,1.12a5.64,5.64,0,0,0,.27,1.7l.29.74a.92.92,0,0,1,.07.34c0,1-1.34,2.61-2.82,3.34a1.14,1.14,0,0,0-.76,1.14v.18a1.88,1.88,0,0,1,.47-.19c.41-.11.49-.16.56-.36l.05-.18c0-.07.06-.09.38-.26a.58.58,0,0,0,.22-.18c.07-.12.13-.18.17-.18s.05,0,.05,0v0l-.14.4,0,.1a.76.76,0,0,0,.46.69,1.26,1.26,0,0,1,.18-.58l.25-.39a1,1,0,0,0,.13-.6,2.56,2.56,0,0,0,0-.43v-.11c0-.07,0-.11.1-.11s.09,0,.09,0l.06.26a.13.13,0,0,0,.13.1c.13,0,.31-.17.49-.49a.74.74,0,0,0,.1-.37l0-.19,0-.21v0c0-.09.05-.16.12-.16s.06,0,.06,0l.08.32a.22.22,0,0,0,.18.18c.09,0,.25-.16.35-.35a1.23,1.23,0,0,0,.13-.57c0-.3,0-.38.14-.38s.06,0,.07,0l.06.18c0,.07.06.11.1.11s.21-.17.32-.35a.26.26,0,0,0,0-.13c0-.06,0-.12-.13-.19s-.15-.14-.15-.32a.83.83,0,0,1,.15-.49l.18-.33c.18-.34.24-.43.3-.43a.12.12,0,0,1,.1.12.26.26,0,0,1,0,.11.47.47,0,0,0-.06.17.1.1,0,0,0,.1.1.54.54,0,0,0,.25-.08l.39-.15.46-.17a.82.82,0,0,1,.28,0l.25,0,.32.06a.24.24,0,0,0,.24-.23.86.86,0,0,0-.22-.42.24.24,0,0,1-.07-.13l0-.06a.09.09,0,0,1,.07-.06c.09,0,.31.23.51.54,1.2,1.88,1.63,2.34,2.43,2.59s1,.44,1,.93a1.83,1.83,0,0,1-.43,1,2.71,2.71,0,0,0-.75,1.75v.1l.15-.07.22-.1.35-.07a.3.3,0,0,0,.2-.28v0l0-.31v0a.41.41,0,0,1,.13-.29.12.12,0,0,1,.07,0,.14.14,0,0,1,.11.09l.22.47a.8.8,0,0,0,.49.42"/>
    <path class="cls-6" d="M6,188.68c-.1,0-.15.09-.16.28l0,.26a2.35,2.35,0,0,0,0,.34c0,.2.06.35.14.35s.23-.17.3-.36a.93.93,0,0,0,.06-.32,1,1,0,0,0-.06-.31c-.05-.14-.13-.22-.21-.22"/>
    <path class="cls-6" d="M4.82,186.65l.19.19a2.19,2.19,0,0,1,.47,1.59c0,.16,0,.27,0,.72,0,.23,0,.42,0,.57,0,1.72.56,3,1.3,3,.23,0,.39-.11.6-.44,0-.05.09-.1.13-.1s.07,0,.07.11l0,.31,0,.26,0,.29,0,.26v0a.12.12,0,0,1-.1.13l-.25,0a1.09,1.09,0,0,0-.39.15,1.12,1.12,0,0,0-.36.28l-.15.32a.11.11,0,0,1-.09.07c-.08,0-.21-.14-.36-.39a1.34,1.34,0,0,1-.2-.45s0-.06.12-.06h.44a.1.1,0,0,0,.08-.1.09.09,0,0,0-.06-.08l-.63-.27a1,1,0,0,1-.47-.46A1.88,1.88,0,0,1,5,192c0-.09,0-.14.11-.14l.1,0a.56.56,0,0,0,.18.06.1.1,0,0,0,.1-.09.26.26,0,0,0-.11-.15,1.67,1.67,0,0,1-.82-1.19c0-.1,0-.16.08-.16h.1l.18,0h0a.11.11,0,0,0,.12-.11s0-.09-.11-.13l-.22-.13a.61.61,0,0,1-.19-.2l-.24-.44-.19-.38-.13-.24-.08-.11a.88.88,0,0,1,.43-.11c.19,0,.31.12.44.46s.18.36.23.36,0,0,0-.16a1.54,1.54,0,0,0-.06-.41,1,1,0,0,1,0-.31l0-.19-.17-.08a.37.37,0,0,1-.13-.14.6.6,0,0,1-.11-.32,1.1,1.1,0,0,1,0-.25,3.85,3.85,0,0,0,.18-.91v-.12l.13.14Z"/>
    <path class="cls-6" d="M6.49,196.68a1.56,1.56,0,0,1-.4-.1l-.26-.11a1.4,1.4,0,0,0-.53-.14.85.85,0,0,0-.58.24l.12.1.28.19.26.21a.37.37,0,0,0,.23.08,1.31,1.31,0,0,0,.88-.47"/>
    <path class="cls-6" d="M11.84,199.21a.78.78,0,0,1,.28-.36c.39-.33.57-.58.57-.78v-.31c0-.18,0-.24.12-.24a.09.09,0,0,1,.09,0l.07.17a.12.12,0,0,0,.12.06c.05,0,.13-.06.2-.16l.14-.19a.42.42,0,0,0,.07-.43l-.1-.22a.66.66,0,0,1-.06-.22c0-.09,0-.14.12-.14a.12.12,0,0,1,.1,0l.11.14a.14.14,0,0,0,.11,0,.19.19,0,0,0,.14-.12l.11-.22a.33.33,0,0,0,0-.12s0-.09-.13-.13l-.18-.08a1,1,0,0,1-.42-.89.41.41,0,0,1,0-.15l.1-.24a.56.56,0,0,0,0-.22.79.79,0,0,0-.14-.43l-.18-.29c-.08-.22-.12-.28-.19-.28l-.07,0-.1.06-.15.08-.18.22-.19.1a.65.65,0,0,0-.23.51c0,.36,0,.46.52,1.28a1.72,1.72,0,0,1,.28.79q0,.85-1.53,1.22l-.64.15a1.1,1.1,0,0,0-.85,1,1,1,0,0,1,.62-.12h.24c.19,0,.21,0,.33-.18a1.05,1.05,0,0,1,.46-.39l.22-.1.18-.1H12s.08,0,.08.06a.45.45,0,0,1-.13.24.73.73,0,0,0-.22.54.52.52,0,0,0,.15.37"/>
    <path class="cls-6" d="M10.09,197.05a1.6,1.6,0,0,1,.42.38c.13.18.15.2.28.2l.2,0,.12,0c.23,0,.31-.08.31-.13a.18.18,0,0,0-.07-.12l-.15-.14L11,197a.75.75,0,0,0-.46-.16.88.88,0,0,0-.5.17"/>
    <path class="cls-6" d="M14.6,197.81H15a.61.61,0,0,0,.61-.54c0-.1-.09-.15-.25-.15-.37,0-.61.22-.76.7"/>
    <path class="cls-3" d="M9.41,188.2c0,.13.08.24.15.24s.13-.15.27-.4a2.45,2.45,0,0,0,.39-.84c0-.06,0-.1-.07-.1h0l-.15.14a1.24,1.24,0,0,1-.47.25c-.16.06-.21.12-.21.24l0,.11.07.2,0,.17Z"/>
    <path class="cls-3" d="M8.56,187.47l.24.13a.16.16,0,0,1,.1.13l0,.09a1,1,0,0,0,0,.3.24.24,0,0,1-.28.25s0,0-.13-.15l-.31-.35a1.29,1.29,0,0,1-.21-.62v0c0-.08,0-.1.08-.1a.3.3,0,0,1,.15.07l.38.31Z"/>
    <path class="cls-3" d="M9.1,188.93H8.87l-.17-.1a.39.39,0,0,0-.2-.06c-.13,0-.21.07-.21.17a2,2,0,0,0,.18.62l.18.44c.16.39.31.56.52.56s.21-.18.33-.49c.28-.7.43-.8.43-1s0-.21-.19-.21l-.13,0-.22.14Z"/>
    <path class="cls-6" d="M9.09,189.32H8.91a.08.08,0,0,0-.07,0l0,.07.07.33.06.29c0,.16.09.22.21.22s.22-.09.24-.26l0-.31,0-.32a.12.12,0,0,0,0-.09.1.1,0,0,0-.07,0h0l-.22,0Z"/>
    <path class="cls-3" d="M41.75,192.67l.06.21c.05.19.09.34.11.45.17.79.32,1,.71,1a.46.46,0,0,0,.46-.31l.08-.28a.13.13,0,0,1,.13-.1c.15,0,.23.17.24.5a6.61,6.61,0,0,0,.08.68,4,4,0,0,1,.06.64,1,1,0,0,1-.08.4l0,.17a2.78,2.78,0,0,1,.06.51,1.67,1.67,0,0,1-.17,1,1.76,1.76,0,0,1,.07.5,4.17,4.17,0,0,1,0,.49l-.06.42v.25a.76.76,0,0,1,.06.17.06.06,0,0,1-.06.07l-.28-.11-.31-.17a1.43,1.43,0,0,1-.32-.25,1.13,1.13,0,0,1-.63.35,2.69,2.69,0,0,0-.72.25.45.45,0,0,1-.19.1c-.11,0-.18-.21-.18-.52a2.28,2.28,0,0,1,.1-.85,1.77,1.77,0,0,0-.51-.12l-.2,0H40.2s-.06,0-.06-.13a1.68,1.68,0,0,1,.22-.64,1.25,1.25,0,0,1,.68-.61l.5-.1c.3-.06.47-.22.47-.42s-.13-.33-.43-.44l-.58-.21a3.05,3.05,0,0,1-.56-.26l-.31-.18a.33.33,0,0,0-.15,0c-.12,0-.2.09-.2.24a.42.42,0,0,0,.4.43.37.37,0,0,0,.14,0l.13,0c.06,0,.11.06.11.15a1.75,1.75,0,0,1-.32.88l-.17.21-.13.17a1.87,1.87,0,0,1-.75,1.1l-.15.11-.11.19a2.45,2.45,0,0,1-.28.33,2.62,2.62,0,0,1-.35.32,1.32,1.32,0,0,0-.28.25l-.14.24a.12.12,0,0,1-.11.07c-.12,0-.24-.13-.31-.35s-.1-.21-.2-.21l-.24,0-.19,0h-.49a2.23,2.23,0,0,0-.78.14.37.37,0,0,1-.14,0c-.07,0-.11-.07-.11-.21a2.56,2.56,0,0,1,.78-1.54.59.59,0,0,0-.38-.47l-.25-.07a.08.08,0,0,1,0-.07c0-.09.1-.18.32-.28a1.48,1.48,0,0,1,.73-.22,1.12,1.12,0,0,1,.73.29c.38.29.48.35.66.35a.6.6,0,0,0,.58-.56,1.29,1.29,0,0,0-.37-.74,1.79,1.79,0,0,1-.5-1.18,1.33,1.33,0,0,1,.29-.81.34.34,0,0,0,.06-.15c0-.08-.13-.15-.27-.15a1.49,1.49,0,0,0-.58.17c-.42.19-.67.37-.67.48a.15.15,0,0,0,.07.12l.14.1a.07.07,0,0,1,0,.06.23.23,0,0,1-.06.11l-.28.36a3.18,3.18,0,0,1-.58.61.54.54,0,0,0-.14.14l-.11.21a2.36,2.36,0,0,1-.6.63l-.19.15a1.25,1.25,0,0,0-.13.19,4.16,4.16,0,0,1-.51.72l-.38.39a2.8,2.8,0,0,0-.4.86c-.11.34-.19.49-.24.49s-.06,0-.11-.09c-.27-.31-.51-.5-.63-.5a.43.43,0,0,0-.16.07,1.15,1.15,0,0,1-.37.14l-.5.1a1.07,1.07,0,0,0-.78.42c0,.06-.09.1-.11.1s-.09-.07-.09-.17v-.12l.07-.37a3.08,3.08,0,0,1,.28-.9l.25-.43a.47.47,0,0,0,.07-.22c0-.32-.3-.58-.75-.65-.09,0-.14,0-.14-.1s.11-.19.28-.32a1.6,1.6,0,0,1,.85-.36,1.84,1.84,0,0,1,.64.17l.31.13a.82.82,0,0,0,.31.07c.32,0,.64-.3,1-1a1.46,1.46,0,0,0,.25-.72c0-.35-.16-.56-.44-.56a.83.83,0,0,0-.59.26.67.67,0,0,0-.23.44V195c0,.11,0,.16-.12.16s-.23-.1-.47-.39l-.39-.46a1.58,1.58,0,0,1-.53-1.2,2,2,0,0,1-.59-1.28l0-.29a1.22,1.22,0,0,1-.4-1,.62.62,0,0,1,.08-.37,1.42,1.42,0,0,1-.26-.54l-.07-.29a1.51,1.51,0,0,0-.22-.51c-.13-.18-.14-.21-.14-.26s.14-.24.49-.33l.11,0a2.4,2.4,0,0,1,0-.31,1.79,1.79,0,0,1,0-.33l.1-.52a2.75,2.75,0,0,0,.06-.46,1.38,1.38,0,0,0-.08-.43,1.2,1.2,0,0,0-.14-.32.38.38,0,0,1-.08-.18s0-.08.11-.08a.33.33,0,0,1,.14,0,5.41,5.41,0,0,1,1.35,1.07,2.05,2.05,0,0,1,.49,1.42,1.19,1.19,0,0,1,.59,1.05,1.48,1.48,0,0,1-.28.82l-.28.43a.92.92,0,0,0-.13.47,1.62,1.62,0,0,0,.26.82c.21.37.39.53.62.53s.69-.63.69-1.32v-.51l0-.33,0-.4,0-.33v-.19c0-.14,0-.18-.46-.63a2.06,2.06,0,0,1-.7-1.33.7.7,0,0,1,.71-.69,1,1,0,0,1,.29.05v-.46l.08-.36c.07-.29.1-.34.2-.34l.07,0,.25.22.3.2.08.08a.57.57,0,0,1,.18-.39l.19-.26.14-.21L35,185c.06-.08.08-.11.12-.11s.06,0,.11.2a.39.39,0,0,0,.12.18l.18.15a1,1,0,0,1,.31.57.82.82,0,0,1,.28-.25l.22-.12.15-.07s0,0,.06.08a1.47,1.47,0,0,0,.11.21c.18.29.19.33.19.52v.28a.76.76,0,0,1,.63.87,1.9,1.9,0,0,1-.53,1.19c-.24.29-.28.37-.28.59,0,1,.74,1.57,2,1.59h.92a4.5,4.5,0,0,1,1.52.25,3.66,3.66,0,0,0,1,.27c.14,0,.26-.08.26-.17s-.34-.36-1.46-.67c-2.29-.65-3.27-1.57-3.27-3.09a2.14,2.14,0,0,1,2.25-2.08,4.85,4.85,0,0,1,1.38.24l.57.21a.88.88,0,0,0,.3.06c.2,0,.27-.12.3-.49,0-.16.07-.24.17-.24s.43.23.64.51a1.84,1.84,0,0,1,.36.93.79.79,0,0,1-.49.71,1.36,1.36,0,0,1-1.21.69,4.66,4.66,0,0,1-1.92-.76,1.25,1.25,0,0,0-.67-.25.36.36,0,0,0-.41.36c0,.2.15.33.56.47.66.23.8.31,1,.54a2.81,2.81,0,0,1,1.46.58c1.27.41,2,1.19,2,2.19a1.48,1.48,0,0,1-1.48,1.57,2.69,2.69,0,0,1-.68-.08"/>
    <path class="cls-6" d="M43.13,198.76a1,1,0,0,1,0-.26l0-.19a3.75,3.75,0,0,0,0-.54.44.44,0,0,0-.1-.28l-.17-.22a.61.61,0,0,1-.15-.38c0-.08,0-.11.07-.11h.06l.12.07a.31.31,0,0,0,.14,0q.13,0,.13-.39a.75.75,0,0,0-.28-.7l-.19-.15a.15.15,0,0,1-.06-.11.1.1,0,0,1,.1-.11l.16,0,.15,0h.06s.07,0,.07-.12v0l0-.29c0-.3-.09-.42-.18-.42h0l-.36.07H42.6a1.28,1.28,0,0,1-1.08-.87l-.26-.9a1.87,1.87,0,0,0-.67-.85.65.65,0,0,0-.29-.15l-.25,0s-.08,0-.08-.07,0-.08.15-.08a3.92,3.92,0,0,1,1.23.24,3,3,0,0,0,.93.2c.7,0,1.12-.36,1.12-1a1.88,1.88,0,0,0-.26-.92,2.23,2.23,0,0,0-.65-.61.22.22,0,0,0-.11,0,.07.07,0,0,0-.07.07v.2c0,.07,0,.12-.09.12s-.16-.09-.25-.28a1.32,1.32,0,0,0-1.09-.87c-.09,0-.15,0-.15.09a.41.41,0,0,0,.07.18,1.58,1.58,0,0,1,.13.25.38.38,0,0,1,0,.12s0,0-.06,0a.4.4,0,0,1-.23-.13l-.21-.22-.18-.28a1.33,1.33,0,0,0-.56-.49l-.35-.18a.41.41,0,0,0-.18-.06.06.06,0,0,0-.07.06.3.3,0,0,0,.06.16.71.71,0,0,1,.13.28.08.08,0,0,1-.07.08c-.1,0-.27-.17-.52-.51a1.32,1.32,0,0,1-.27-.78,1,1,0,0,1,1-1,2.14,2.14,0,0,1,1,.35l.67.4a1.72,1.72,0,0,0,.76.25,1.27,1.27,0,0,0,.39-.07l.18-.07a.1.1,0,0,0,.05-.08c0-.05,0-.08-.12-.08a3.94,3.94,0,0,1-1.38-.54,3.56,3.56,0,0,0-.46-.26c-.11,0-.19-.1-.19-.15s0,0,.06,0h.08l.61.22.58.21a3.67,3.67,0,0,0,.93.19.43.43,0,0,0,.45-.45.89.89,0,0,0-.09-.39c-.08-.17-.2-.31-.24-.31s-.08.05-.08.15v.07l0,.18c0,.19-.1.31-.26.31a.76.76,0,0,1-.23,0l-.9-.29a4.47,4.47,0,0,0-1.48-.32A1.79,1.79,0,0,0,38,187.48c0,1.11.76,1.8,2.71,2.48s2.14.81,2.14,1.31a.56.56,0,0,1-.6.52,1.77,1.77,0,0,1-.33,0l-.95-.22a6.83,6.83,0,0,0-1.73-.2,3.47,3.47,0,0,0-2.76.88.49.49,0,0,1-.42.18h-.31a.44.44,0,0,0-.39.25l-.22.38a.18.18,0,0,1-.16.08c-.14,0-.22-.1-.36-.43a1.07,1.07,0,0,0-.28-.42L34,192s-.07-.07-.07-.1a.29.29,0,0,1,.07-.13,1.39,1.39,0,0,0,.13-.19.56.56,0,0,0,.07-.17v-.12a.1.1,0,0,1,.1-.07c.09,0,.11.06.11.4a1,1,0,0,0,.11.37l.15.33a.14.14,0,0,0,.13.07c.14,0,.33-.34.38-.7s.07-.39.13-.39.08,0,.2.28a.66.66,0,0,0,.17.21.41.41,0,0,0,.17.1h0c.11,0,.15-.07.18-.34v-.14l0-.2,0-.13c0-.09,0-.14.08-.14a.16.16,0,0,1,.1.06l.14.14a.4.4,0,0,0,.28.14c.12,0,.19-.05.19-.14s0-.1-.14-.31l-.1-.18c-.12-.23-.18-.29-.29-.29h-.14l-.18.07-.11,0s0,0,0-.06a1.25,1.25,0,0,1,.24-.57,3.19,3.19,0,0,0,.24-1.09l.07-.65c0-.4.09-.54.17-.54s.05,0,.06,0l0,.21V188a.76.76,0,0,0,0,.37c.06,0,.15-.07.23-.19a1,1,0,0,0,.14-.28,1.32,1.32,0,0,0,.07-.36c0-.32-.14-.46-.57-.58a.15.15,0,0,1-.08,0v-.36l0-.17-.05-.14-.07-.15-.11.07a1.47,1.47,0,0,0-.45.35c-.13.16-.17.2-.22.2a.06.06,0,0,1-.07-.06l.06-.24v0a1,1,0,0,0-.48-.82l-.1.11-.1.14-.17.2a.65.65,0,0,0-.15.41v.09c0,.11,0,.15-.07.15h0l-.11-.14-.14-.17-.25-.15-.12-.1a1.16,1.16,0,0,0-.14.7v.12c0,.13,0,.2-.11.2a.43.43,0,0,1-.17-.07.43.43,0,0,0-.21-.06.37.37,0,0,0-.35.41,1.21,1.21,0,0,0,.22.71c.11.18.25.33.32.33a1.68,1.68,0,0,0,0-.3l0-.24v-.11c0-.09,0-.15.08-.15s.13.09.18.32l.11.52.11.65a2.6,2.6,0,0,0,.17.56,2.83,2.83,0,0,0,.24.49c.15.2.17.23.17.27a.06.06,0,0,1-.06.06l-.13,0a.57.57,0,0,0-.17-.06l-.1,0c-.23,0-.28.19-.28,1.11a5.66,5.66,0,0,0,.27,1.72l.29.74a.93.93,0,0,1,.07.35c0,1-1.38,2.64-2.82,3.34-.56.27-.73.55-.78,1.32a2.65,2.65,0,0,1,.49-.19c.41-.11.5-.17.56-.36l.06-.18c0-.08.08-.12.36-.26a.57.57,0,0,0,.22-.18c.07-.12.13-.18.16-.18s.06,0,.06.07v0l-.15.4,0,.1a.76.76,0,0,0,.46.69l0-.17a1.52,1.52,0,0,1,.14-.42l.27-.39c.1-.14.11-.23.11-.59l0-.44v-.11c0-.07,0-.11.1-.11s.09,0,.09,0l0,.26a.13.13,0,0,0,.14.1c.13,0,.31-.17.49-.49a.63.63,0,0,0,.1-.33,3.19,3.19,0,0,0,0-.43v-.08a.1.1,0,0,1,.11-.11s.06,0,.07,0l.1.32c0,.11.11.18.18.18s.43-.44.46-.9c0-.29.05-.4.14-.4a.07.07,0,0,1,.07,0l.05.18c0,.07.06.11.1.11s.11-.06.19-.17a1.37,1.37,0,0,0,.13-.18.31.31,0,0,0,0-.15c0-.07,0-.09-.13-.17a.35.35,0,0,1-.15-.29,1.8,1.8,0,0,1,.33-.85c.23-.39.26-.44.31-.44a.11.11,0,0,1,.09.12.29.29,0,0,1,0,.12.52.52,0,0,0-.06.17.11.11,0,0,0,.11.1.56.56,0,0,0,.25-.08l.38-.15.47-.17a1,1,0,0,1,.29,0l.24,0,.32.06a.22.22,0,0,0,.22-.22.59.59,0,0,0-.09-.24l-.12-.19c-.06-.06-.09-.1-.09-.13l0-.06a.09.09,0,0,1,.08-.06c.11,0,.32.22.52.54,1.09,1.78,1.62,2.34,2.42,2.59s1,.43,1,.93a1.82,1.82,0,0,1-.43,1,2.91,2.91,0,0,0-.75,1.74V199l.15-.07.22-.1.35-.07a.29.29,0,0,0,.2-.29v0l0-.31v0c0-.17.08-.31.19-.31a.14.14,0,0,1,.11.08l.22.47a.8.8,0,0,0,.49.42"/>
    <path class="cls-6" d="M31.73,189.23v.36c0,.23,0,.32.12.32s.24-.17.3-.36a1.41,1.41,0,0,0,.07-.38.69.69,0,0,0-.07-.26c-.06-.15-.13-.22-.2-.22s-.17.15-.2.54"/>
    <path class="cls-6" d="M30.77,186.65l.2.19a2.16,2.16,0,0,1,.48,1.42v.23l0,.65v.55c0,1.82.53,3.06,1.31,3.06a.83.83,0,0,0,.6-.45c0-.06.08-.1.11-.1s.07,0,.07.11l0,.31,0,.26c0,.12,0,.22,0,.29a1.74,1.74,0,0,1,0,.27c0,.14,0,.16-.36.2a1,1,0,0,0-.39.15,1.39,1.39,0,0,0-.36.28l-.15.32a.11.11,0,0,1-.09.07c-.08,0-.19-.12-.34-.39a1.34,1.34,0,0,1-.2-.45s0-.06.12-.06h.43a.11.11,0,0,0,.08-.1.09.09,0,0,0-.06-.08l-.63-.27a1.15,1.15,0,0,1-.46-.46,1.43,1.43,0,0,1-.25-.61c0-.1,0-.16.11-.16l.1,0a.52.52,0,0,0,.16.06l.07,0a.1.1,0,0,0,0-.07s0-.09-.11-.14a1.69,1.69,0,0,1-.84-1.19c0-.11,0-.16.08-.16h.1l.2,0c.08,0,.13,0,.13-.11s-.05-.09-.13-.13c-.35-.17-.43-.27-.65-.77a3.12,3.12,0,0,0-.4-.72.87.87,0,0,1,.43-.11c.19,0,.31.12.44.46s.18.36.23.36,0,0,0-.16a1.59,1.59,0,0,0-.06-.42.9.9,0,0,1,0-.31l0-.19-.15-.08a.52.52,0,0,1-.24-.46,1.1,1.1,0,0,1,0-.25l.08-.32a2.71,2.71,0,0,0,.1-.59v-.12l.12.14Z"/>
    <path class="cls-6" d="M32.44,196.68a2.05,2.05,0,0,1-.67-.21,1.26,1.26,0,0,0-.52-.14.86.86,0,0,0-.59.24l.12.1.28.19.27.21a.37.37,0,0,0,.23.08c.27,0,.5-.12.88-.47"/>
    <path class="cls-6" d="M37.79,199.21a.8.8,0,0,1,.28-.36c.39-.33.57-.58.57-.78v-.31c0-.18,0-.24.12-.24a.09.09,0,0,1,.09,0l.07.17a.12.12,0,0,0,.12.06c.1,0,.17-.07.34-.35a.53.53,0,0,0,.1-.28.42.42,0,0,0,0-.16l-.1-.22a.68.68,0,0,1-.06-.22c0-.09,0-.14.12-.14a.13.13,0,0,1,.1,0l.11.14s0,0,.07,0a.24.24,0,0,0,.18-.12l.11-.22a.33.33,0,0,0,0-.13s0-.09-.11-.12l-.19-.08a1,1,0,0,1-.42-.86.62.62,0,0,1,0-.18l.08-.24a.69.69,0,0,0,0-.23.77.77,0,0,0-.14-.42,2.86,2.86,0,0,1-.17-.29c-.08-.21-.13-.28-.2-.28a.35.35,0,0,0-.18.07l-.14.08-.2.22-.2.1a.67.67,0,0,0-.23.52c0,.3.07.46.52,1.27a1.76,1.76,0,0,1,.28.79c0,.57-.58,1-1.52,1.22-1.13.23-1.37.42-1.5,1.14a1,1,0,0,1,.62-.12h.24c.19,0,.21,0,.33-.18a1,1,0,0,1,.46-.39l.22-.1.18-.1h.06c.05,0,.08,0,.08.06a.49.49,0,0,1-.13.23.8.8,0,0,0-.21.46.67.67,0,0,0,.14.45"/>
    <path class="cls-6" d="M36,197.05a1.59,1.59,0,0,1,.42.38c.13.18.15.2.28.2l.2,0,.13,0c.24,0,.31-.08.31-.14a.15.15,0,0,0-.06-.11l-.17-.14L37,197a.75.75,0,0,0-.44-.15,1,1,0,0,0-.52.17"/>
    <path class="cls-6" d="M40.54,197.81H41a.41.41,0,0,0,.27-.06,1.12,1.12,0,0,0,.26-.32.32.32,0,0,0,.05-.16c0-.09-.09-.15-.24-.15-.38,0-.62.21-.76.7"/>
    <path class="cls-3" d="M35.36,188.2c0,.13.08.24.15.24s.15-.2.3-.44a2.16,2.16,0,0,0,.36-.79c0-.06,0-.1-.07-.1h0l-.15.14a1.61,1.61,0,0,1-.46.25c-.18.06-.23.12-.23.24l0,.11.12.24,0,.12Z"/>
    <path class="cls-3" d="M34.13,187.17a.31.31,0,0,0-.16-.07c-.06,0-.08,0-.08.1v0a1.58,1.58,0,0,0,.05.24,1.21,1.21,0,0,0,.18.39l.21.35a.72.72,0,0,0,.3.19h0a.07.07,0,0,0,.07-.06l0-.28.07-.25v-.06a.18.18,0,0,0-.11-.16l-.24-.13-.37-.31Z"/>
    <path class="cls-3" d="M35.05,188.93h-.24l-.17-.1a.38.38,0,0,0-.2-.06.19.19,0,0,0-.2.21,1.92,1.92,0,0,0,.18.58l.18.44c.15.39.31.56.52.56s.33-.15.44-.44l.15-.63c.07-.19.26-.28.26-.41a.35.35,0,0,0-.33-.31l-.08,0-.21.14Z"/>
    <path class="cls-6" d="M35,189.32h-.17a.09.09,0,0,0-.07,0l0,.07.07.33.06.29c0,.16.06.22.18.22a.27.27,0,0,0,.27-.26l0-.31c0-.2,0-.31,0-.32a.12.12,0,0,0,0-.09.11.11,0,0,0-.07,0h0l-.22,0Z"/>
    <path class="cls-3" d="M16.07,218.93a2.14,2.14,0,0,1,.18.66l0,.58c0,.59.22.88.58.88a.43.43,0,0,0,.31-.1l.15-.15.06,0c.1,0,.15.06.15.18l0,.23a3.17,3.17,0,0,0,.06.64,3.78,3.78,0,0,1,0,.56,1.48,1.48,0,0,1-.13.68,2.64,2.64,0,0,1,.15.84,1.13,1.13,0,0,1-.17.68,1.86,1.86,0,0,1,.07.47,3.27,3.27,0,0,1-.06.53,2.92,2.92,0,0,0-.06.67v0c0,.09,0,.13-.08.13a.25.25,0,0,1-.17-.11c-.08-.11-.14-.15-.2-.15s-.13.05-.27.47a1.84,1.84,0,0,1-.33.52,1.19,1.19,0,0,0-.25.4c0,.17-.07.26-.08.29a.11.11,0,0,1-.08.07h0c-.23,0-.49-.49-.76-1.42-.08-.26-.17-.38-.31-.38a.28.28,0,0,0-.24.16l-.08.19a.09.09,0,0,1-.07.06c-.11,0-.28-.2-.39-.46a1.76,1.76,0,0,1-.14-.64c0-.44.32-.76,1.29-1.31a1.07,1.07,0,0,0,.59-1.08,1.06,1.06,0,0,0-.5-1,1.12,1.12,0,0,0-.62-.31.22.22,0,0,0-.24.2c0,.13.08.21.26.27s.31.15.31.25a1.32,1.32,0,0,1-.24.5,1.28,1.28,0,0,1-.45.46,1.26,1.26,0,0,1-.67.9,1.47,1.47,0,0,1-.28.51l-.29.38a1.21,1.21,0,0,0-.21.43c0,.21-.05.25-.13.25s-.34-.2-.56-.49A.67.67,0,0,1,12,225a.71.71,0,0,1-.47.17,1.17,1.17,0,0,0-.38.1,1.07,1.07,0,0,1-.32.14c-.06,0-.08,0-.08-.13v-.31a2.17,2.17,0,0,1,.42-1.24,1.38,1.38,0,0,0-.68-.36c-.08,0-.1,0-.1,0a.56.56,0,0,1,.13-.26,2.12,2.12,0,0,1,.25-.28,1.38,1.38,0,0,1,.81-.29,2.53,2.53,0,0,1,.79.2,1,1,0,0,0,.33.07c.15,0,.24-.1.24-.27a3.74,3.74,0,0,0-.41-1.28,2.55,2.55,0,0,1-.27-.92,1.34,1.34,0,0,1,.51-1.13.58.58,0,0,0-.31-.08.78.78,0,0,0-.43.14c-.21.12-.32.23-.32.3s0,.07.11.12.13.1.13.21a1.6,1.6,0,0,1-.68,1.1,1.22,1.22,0,0,1-.75,1,1.35,1.35,0,0,1-.31.64,2.41,2.41,0,0,0-.51,1c0,.15-.07.21-.11.21s-.18-.09-.32-.24A2.34,2.34,0,0,1,9,223.2a1.3,1.3,0,0,1-.15-.44.59.59,0,0,1-.2,0H8.35a1.72,1.72,0,0,0-.79.17l-.12.06c-.09,0-.16-.19-.16-.42a2.22,2.22,0,0,1,.46-1.37,2.37,2.37,0,0,1-.26-.25.46.46,0,0,0-.11-.1l-.15-.08c-.05,0-.08-.06-.08-.09s.2-.27.45-.42a1.27,1.27,0,0,1,.67-.25c.23,0,.35.06.63.31s.33.25.43.25a.26.26,0,0,0,.2-.13.35.35,0,0,0,.07-.21,1.5,1.5,0,0,0-.67-.95,1.52,1.52,0,0,0-.83-.26.94.94,0,0,0-.87.5l-.15.32c0,.07-.08.11-.13.11s-.14,0-.45-.41l-.36-.42a1.11,1.11,0,0,1-.22-.36.83.83,0,0,0-.07-.18l-.14-.11a1.82,1.82,0,0,1-.6-1.15l0-.18a2.3,2.3,0,0,1-.54-1.38.61.61,0,0,1,0-.19c-.2-.2-.22-.25-.38-.78a2,2,0,0,0-.32-.72.24.24,0,0,1-.06-.11c0-.08.12-.14.32-.17l.28,0,.28,0,0-.38a2.68,2.68,0,0,1,.07-.63,1.69,1.69,0,0,0,0-.29s0-.11,0-.24a1.22,1.22,0,0,0,0-.21.36.36,0,0,1,0-.12s0-.07.08-.07a.48.48,0,0,1,.18.06,3.47,3.47,0,0,1,.6.36,2.13,2.13,0,0,1,.86,1.31v.11c0,.12,0,.19,0,.2a.42.42,0,0,0,.1.23l.15.21a1.06,1.06,0,0,1,.22.55c0,.13,0,.19-.25.51a1.06,1.06,0,0,0-.24.62,1.88,1.88,0,0,0,.28.88c.16.29.35.45.53.45s.45-.27.49-1c0-.39.06-.73.11-1.06v-.19c0-.09,0-.14-.14-.27l-.42-.49c-.4-.46-.52-.7-.52-1a.6.6,0,0,1,.62-.65l.17,0v-.11a1.47,1.47,0,0,1,.07-.38c.09-.3.2-.53.25-.53a.38.38,0,0,1,.13.07l.25.1a1.67,1.67,0,0,1,.28.14,1.23,1.23,0,0,1,.22-.49c.18-.23.38-.42.46-.42s.12.06.23.17l.26.28a1,1,0,0,1,.15.26l.06.12.17-.1.22-.13.26-.13a.41.41,0,0,1,.14-.07s.07.08.18.54a3.18,3.18,0,0,1,.1.61.69.69,0,0,1,.65.79,2.09,2.09,0,0,1-.69,1.4.42.42,0,0,0-.16.34c0,1.23.43,1.62,2,1.78a9.81,9.81,0,0,1,2.36.5,4.7,4.7,0,0,0,1.16.25c.26,0,.41-.1.41-.26s-.19-.34-1.29-.57c-2.58-.54-3.59-1.42-3.59-3.12a2.07,2.07,0,0,1,2.12-2.12,3.39,3.39,0,0,1,1.76.6c.7.41.84.47,1,.47s.26-.12.26-.42.06-.29.18-.29a.73.73,0,0,1,.43.29,1,1,0,0,1,.32.79,1,1,0,0,1-.79,1l-.12.14a1.14,1.14,0,0,1-1,.43,2.32,2.32,0,0,1-1.23-.4L14,213.7a1.23,1.23,0,0,0-.7-.29.42.42,0,0,0-.45.46.63.63,0,0,0,.49.6l.63.2a3.21,3.21,0,0,1,.6.25l.31,0a2.64,2.64,0,0,1,1.18.29l.25.11.35.1a2.13,2.13,0,0,1,1.43,2,1.51,1.51,0,0,1-1.67,1.59l-.32,0Z"/>
    <path class="cls-6" d="M15.83,227.19l.08-.17.2-.21a1,1,0,0,0,.25-.72,1.53,1.53,0,0,0-.07-.45,1.13,1.13,0,0,1-.06-.25c0-.09.07-.17.13-.17a.17.17,0,0,1,.1.07l.21.24a.49.49,0,0,0,.33.21v-.42a1.62,1.62,0,0,0-.31-.94.63.63,0,0,1-.16-.28c0-.05,0-.1.08-.1l.06,0c.13.1.2.14.24.14s.13-.17.13-.35a1.29,1.29,0,0,0-.28-.78l-.17-.21a.13.13,0,0,1,0-.08.11.11,0,0,1,.12-.1.29.29,0,0,1,.17.07.22.22,0,0,0,.11,0c.11,0,.15-.15.15-.57v-.42c0-.29,0-.35-.17-.35h-.11c-.68,0-1-.43-1.17-1.59-.13-.84-.44-1.43-.82-1.56-.23-.08-.31-.13-.31-.19s.06-.08.13-.08a.93.93,0,0,1,.26.07,3.89,3.89,0,0,0,1.43.33,1.14,1.14,0,0,0,1.19-1.11,1.9,1.9,0,0,0-.63-1.35.79.79,0,0,0-.35-.21h0l-.07,0,0,.2.05.14,0,.06a.06.06,0,0,1-.07.05.12.12,0,0,1-.1-.06l-.25-.38a1.32,1.32,0,0,0-1-.54c-.11,0-.19.05-.19.13a.31.31,0,0,0,.08.16.48.48,0,0,1,.13.22l0,.06s0,.05-.06.06h0c-.07,0-.1,0-.4-.38a1.79,1.79,0,0,0-1-.56.15.15,0,0,0-.1,0,.09.09,0,0,0,0,.05.25.25,0,0,0,.1.16.48.48,0,0,1,.15.21s0,.05-.08.05-.26-.12-.59-.38a1.57,1.57,0,0,1-.75-1.24.91.91,0,0,1,.88-1,1.72,1.72,0,0,1,.93.33l.68.51a1.8,1.8,0,0,0,1.09.36.52.52,0,0,0,.24-.06c.06,0,.1-.07.1-.09s-.05,0-.13-.06a1.57,1.57,0,0,1-.58-.25l-.7-.53a4.69,4.69,0,0,0-.54-.38c-.37-.19-.44-.24-.44-.28s0,0,.08,0l.12,0,.36.15a4.15,4.15,0,0,1,.58.35,2.76,2.76,0,0,0,1.56.66.69.69,0,0,0,.72-.7.54.54,0,0,0-.06-.24l-.07-.14s-.07-.09-.08-.07l0,.06,0,.29,0,.1a.49.49,0,0,1-.1.14.31.31,0,0,1-.26.1c-.21,0-.46-.12-1.11-.53a3.44,3.44,0,0,0-1.72-.64,1.8,1.8,0,0,0-1.81,1.8c0,1.39.85,2,3.52,2.6,1,.22,1.46.52,1.46,1s-.33.67-.86.67a2,2,0,0,1-.38,0l-1.43-.39a7.22,7.22,0,0,0-1.86-.26,2.5,2.5,0,0,0-2.23,1c-.06.08-.11.13-.15.13a.22.22,0,0,1-.12-.06l-.19-.15a.94.94,0,0,0-.5-.19.44.44,0,0,0-.29.12.35.35,0,0,1-.14.1c-.08,0-.22-.17-.33-.4a2.22,2.22,0,0,1-.24-.95c0-.14,0-.24.11-.24s.08,0,.1.11l.11.4c.06.23.19.4.28.4s.12-.06.2-.17a.65.65,0,0,0,.11-.2c.09-.25.11-.29.18-.29s.12,0,.18.3a.86.86,0,0,0,.09.24,1.28,1.28,0,0,0,.17.25.2.2,0,0,0,.14.07c.12,0,.23-.2.23-.43v-.06l0-.26c0-.1,0-.13.07-.13s.06,0,.1.07a.73.73,0,0,0,.24.19.47.47,0,0,0,.2.07.22.22,0,0,0,.14-.07.16.16,0,0,0,.06-.11s0-.1-.2-.25a1.78,1.78,0,0,1-.28-.56c0-.11-.09-.18-.13-.18l-.09,0-.18.07-.13.06h0a.1.1,0,0,1-.11-.1.85.85,0,0,1,.28-.33.51.51,0,0,0,.18-.38c0-.23.05-.42.1-.42l0-.49a5,5,0,0,1,.21-1c0-.05,0-.09.06-.09s.07.11.07.22V214c0,.18,0,.27.08.27s.13-.09.19-.24l.12-.32a.73.73,0,0,0,.06-.26.42.42,0,0,0-.39-.47l-.1,0-.1,0a.16.16,0,0,1-.13-.18v-.48l-.06-.29v-.14l-.12.07-.15.13-.22.18-.18.15a.16.16,0,0,1-.1,0c-.11,0-.12,0-.12-.25v-.05c0-.18-.08-.31-.36-.65l-.07-.08-.05.1-.15.25-.15.39,0,.25c0,.07,0,.13-.06.13s-.08,0-.13-.1a1.08,1.08,0,0,0-.6-.4l0,.1c-.05.16-.08.26-.08.29v.46c0,.08,0,.12-.08.12h0l-.08-.07a.26.26,0,0,0-.17,0c-.26,0-.42.14-.42.36s.06.29.31.68c.11.17.25.31.3.31s.06-.09.06-.2l0-.17a.69.69,0,0,1,0-.21c0-.08,0-.12.07-.12s.25.36.31.86l.05.51a1.72,1.72,0,0,0,.17.56,1.42,1.42,0,0,0,.36.51c.13.09.22.19.22.24a.08.08,0,0,1-.07.08l-.28-.1-.12,0c-.28,0-.37.16-.37.64a2.66,2.66,0,0,0,.82,1.76l.64.52a1.49,1.49,0,0,1,.57,1c0,.41-.45.81-1.21,1.08l-.46.17c-.36.13-.5.36-.64,1a1.13,1.13,0,0,1,.38-.07h.27a.29.29,0,0,0,.32-.27v-.13s.05-.09.13-.13l.19-.1.15-.12a.13.13,0,0,1,.08,0,.08.08,0,0,1,.08.09.38.38,0,0,1,0,.13,1.37,1.37,0,0,0-.07.48,1.17,1.17,0,0,0,.23.77,1,1,0,0,1,0-.18,2.28,2.28,0,0,1,.24-.37,1.85,1.85,0,0,0,.36-.85v-.06l0-.32a.21.21,0,0,1,.07-.15.15.15,0,0,1,.1,0c.06,0,.1,0,.14.14s.07.13.1.13.14-.13.21-.28a.78.78,0,0,0,.07-.29.49.49,0,0,0,0-.18.49.49,0,0,1,0-.16s0-.05.06-.09l.07,0,.08,0,.12.08a.22.22,0,0,0,.11,0,.3.3,0,0,0,.2-.15,1.19,1.19,0,0,0,.2-.4s0-.06-.1-.12a1,1,0,0,1-.46-.74.58.58,0,0,1,0-.2l.14-.38.11-.29,0,0s.08,0,.08.11a.47.47,0,0,1,0,.16.91.91,0,0,0-.06.26.13.13,0,0,0,.15.15.6.6,0,0,0,.23-.06,2.83,2.83,0,0,1,1-.28.77.77,0,0,1,.51.18.26.26,0,0,0,.13.06.12.12,0,0,0,.08-.06.13.13,0,0,0,0-.07.31.31,0,0,0-.08-.18.33.33,0,0,1-.1-.2.07.07,0,0,1,.07-.07c.22,0,.56.69.89,1.78.26.86.33,1,1.15,1.42a1.5,1.5,0,0,1,1,1.42,8,8,0,0,1-.53,2.47,1.72,1.72,0,0,0,0,1.4c.05.18.08.29.1.32a1.75,1.75,0,0,0,.11.21"/>
    <path class="cls-6" d="M12.61,225.24a2.31,2.31,0,0,1,.26-.47,1.34,1.34,0,0,0,.31-.68v-.22c0-.21,0-.31.12-.31a.08.08,0,0,1,.07,0l.07.11a.11.11,0,0,0,.1.06.26.26,0,0,0,.16-.12,1,1,0,0,0,.16-.5v-.31c0-.08,0-.12.11-.12s.08,0,.12.13.07.11.1.11a.16.16,0,0,0,.12-.08l.11-.17.08-.13,0-.07s0-.07-.1-.13a1.13,1.13,0,0,1-.39-1,4.37,4.37,0,0,0-.07-.76l-.25-.6a3.81,3.81,0,0,1-.17-.5c0-.13-.07-.17-.17-.17a.69.69,0,0,0-.66.75,3.51,3.51,0,0,0,.3,1.13,3.29,3.29,0,0,1,.34,1.15c0,.51-.2.73-.91,1a1.73,1.73,0,0,0-1.31,1.43l.14-.06.19-.07.22-.06a.51.51,0,0,0,.38-.26l.06-.19a.14.14,0,0,1,.08-.1l.13-.06.13-.06,0,.06-.06.18a1.22,1.22,0,0,0,0,.32,1,1,0,0,0,.24.7"/>
    <path class="cls-6" d="M5.14,212.38a.92.92,0,0,1,0,.16,3,3,0,0,1-.06.36l0,.28a2.28,2.28,0,0,0,.12.73,1.09,1.09,0,0,1,.09.32v.06c0,.06,0,.1-.05.1a.31.31,0,0,1-.14-.09.78.78,0,0,0-.51-.21l-.24,0,.07.15.21.52.29.44.3.21a.33.33,0,0,1,.08.08.18.18,0,0,1,0,.09.05.05,0,0,1-.06,0H5s-.08,0-.08.06a2.11,2.11,0,0,0,.12.41l.14.4.24.22.25.18a.24.24,0,0,1,.12.16s0,.08,0,.08H5.61s-.07,0-.07.11a1.23,1.23,0,0,0,.28.54c.22.29.37.39.61.39h.21c.1,0,.16,0,.16.13s0,.1-.13.12-.25.08-.25.17a.31.31,0,0,0,.07.15l.11.15c.09.13.2.21.26.21a.34.34,0,0,0,.2-.13.88.88,0,0,1,.45-.31c.48-.12.58-.17.58-.29A.36.36,0,0,0,8,218.3a1.29,1.29,0,0,1-.21-.68c0-.17,0-.29-.11-.29s-.07,0-.11.11a.62.62,0,0,1-.49.29c-.48,0-1.06-.75-1.35-1.75a2.77,2.77,0,0,1-.1-.75,3.92,3.92,0,0,1,.1-.85l.15-.68,0-.19a1.65,1.65,0,0,0-.81-1.13"/>
    <path class="cls-6" d="M6.14,214.31a2.46,2.46,0,0,0-.2.91c0,.16.05.29.12.29s.05,0,.07-.07l.15-.28.1-.17a.5.5,0,0,0,.1-.21.62.62,0,0,0-.35-.47"/>
    <path class="cls-6" d="M7.67,220.58l.07.07.11.11c.27.28.31.31.44.31a1.52,1.52,0,0,0,.52-.14c.06,0,.1-.07.1-.1s0-.08-.14-.15l-.15-.14a.79.79,0,0,0-.37-.2,1,1,0,0,0-.58.24"/>
    <path class="cls-6" d="M10.9,223.1a1.38,1.38,0,0,1,.28.14l.22.14a.63.63,0,0,0,.22,0,.48.48,0,0,0,.17,0l.29-.11.28-.1c.07,0,.13-.07.13-.11s-.06-.05-.15-.07l-.21-.07c-.34-.14-.39-.16-.51-.16a.93.93,0,0,0-.71.34"/>
    <path class="cls-6" d="M14.41,225.9c.09-.22.16-.26.47-.28s.7-.66.7-1.09c0,0,0-.08,0-.08l-.09,0-.21.12-.4.18a1,1,0,0,0-.51.76,1,1,0,0,0,.08.34"/>
    <path class="cls-3" d="M8.41,213.81l.14.2a1.31,1.31,0,0,0,.3.22s.06,0,.09-.12l.06-.21v-.23c0-.18-.08-.25-.46-.35-.09,0-.13,0-.19-.07a.39.39,0,0,0-.17-.08s-.06,0-.06,0l0,.06.07.21.2.35Z"/>
    <path class="cls-3" d="M9.9,213.81l-.18.32-.07.08h0c-.07,0-.15-.17-.15-.34l0-.28c0-.11.09-.17.26-.2a.81.81,0,0,0,.28-.08l.22-.15h0a.06.06,0,0,1,.06.07v0l-.1.24-.31.33Z"/>
    <path class="cls-3" d="M9.53,214.76l.22-.11.11,0c.11,0,.19.08.19.23a1.81,1.81,0,0,1-.29.68c-.18.33-.32.56-.46.56s-.48-.32-.76-.85a.91.91,0,0,1-.11-.39c0-.18.08-.27.22-.27a.28.28,0,0,1,.16,0l.13.08a.65.65,0,0,0,.35.11.55.55,0,0,0,.24-.06"/>
    <path class="cls-6" d="M9.21,215.09l-.15,0H9c-.09,0-.13.05-.13.15a1.31,1.31,0,0,0,.25.6.13.13,0,0,0,.11.06c.09,0,.15-.17.2-.45l0-.21v0c0-.09,0-.12-.1-.12h0"/>
    <path class="cls-3" d="M40.27,218.72a1.21,1.21,0,0,0,.86.53,1.78,1.78,0,0,0,.37-.06l.18,0c.07,0,.1,0,.1.09a1,1,0,0,1-.07.26,1.32,1.32,0,0,0-.08.25l-.06.29-.14.25-.19.18-.06.06v.19a.75.75,0,0,1-.38.72l-.1.07,0,.11a3.38,3.38,0,0,1-.14.49,2.85,2.85,0,0,1-.26.39,2.53,2.53,0,0,0-.35.57c-.06.14-.1.18-.19.18s-.27-.17-.3-.37l-.07.08-.17.11-.27.18-.22.17-.15.15a.12.12,0,0,1-.08,0c-.07,0-.14-.12-.21-.35l-.14-.46a1.56,1.56,0,0,1-.06-.45,1,1,0,0,1,.1-.5,1.72,1.72,0,0,0-.5.1l-.12,0s-.07,0-.07-.09a.86.86,0,0,1,.06-.21l.18-.47a1.18,1.18,0,0,1,1-.7,1.21,1.21,0,0,1,.35.07.75.75,0,0,0,.21,0,.28.28,0,0,0,.29-.27.21.21,0,0,0-.11-.18l-.5-.15a1.15,1.15,0,0,1-.61-.46c-.19-.22-.27-.28-.33-.28s-.08,0-.08.1v.27a2.56,2.56,0,0,1-.39,1.26l-.39.71a1.73,1.73,0,0,0-.26.85c0,.28.12.53.28.57l.21.05.07,0a.13.13,0,0,1,0,.08.25.25,0,0,1-.07.13l-.25.32a1.19,1.19,0,0,1-.68.51,1.35,1.35,0,0,1-.93.81l-.06.1a1.13,1.13,0,0,1-.77.56h-.05a1.09,1.09,0,0,1-.49.71l-.32.23a.55.55,0,0,0-.07.13c-.06.14-.12.2-.2.2s-.27-.14-.36-.4l-.13.08-.26.18a3.18,3.18,0,0,1-.49.14,1.3,1.3,0,0,0-.71.35l-.12.21-.06,0c-.07,0-.15-.1-.18-.22a3.41,3.41,0,0,1-.13-.78,1.7,1.7,0,0,1,.67-1.32v-.12a1.31,1.31,0,0,1,1.45-1.29h.14l.47,0h0a1.15,1.15,0,0,0,.75-.31c.34-.28.44-.45.44-.76a2.16,2.16,0,0,0-.13-.56,2,2,0,0,1,.89-2.34c.15-.1.26-.24.26-.32s0-.06,0-.06a.35.35,0,0,0-.18.11,1.59,1.59,0,0,1-.33.21l-.22.11-.25.1c-.08,0-.12.07-.12.12a.38.38,0,0,0,0,.13.33.33,0,0,1,0,.1.39.39,0,0,1-.07.16l-.19.32a1.18,1.18,0,0,1-.57.56c-.16.46-.38.69-.71.74-.26.53-.49.71-1,.76a1.71,1.71,0,0,1-.42.64,1.37,1.37,0,0,0-.18.22c-.11.19-.12.21-.17.21a.69.69,0,0,1-.32-.21.83.83,0,0,1-.12-.17l-.13-.22c0-.07-.08-.1-.13-.1H31l-.31,0a1,1,0,0,0-.56.32l-.17.25a.08.08,0,0,1-.07,0c-.12,0-.2-.27-.2-.73a1.43,1.43,0,0,1,.2-.86l.39-.54a.39.39,0,0,0,.08-.21.28.28,0,0,0-.07-.18.45.45,0,0,0-.22-.17l-.29,0c-.05,0-.07,0-.07,0a.17.17,0,0,1,0-.1,1.33,1.33,0,0,1,.35-.31,1.53,1.53,0,0,1,.8-.29,1.36,1.36,0,0,1,.73.24l.4.26a.35.35,0,0,0,.19.06c.19,0,.33-.11.46-.36a1.34,1.34,0,0,0,.18-.64.86.86,0,0,0-.89-.9,1.18,1.18,0,0,0-.72.28.46.46,0,0,0-.14.15l-.11.25c0,.06-.07.1-.1.1s-.23-.2-.36-.46a3,3,0,0,1-.19-.5,2.28,2.28,0,0,1-.12-.69l0-.38A1.4,1.4,0,0,1,30,217a1.55,1.55,0,0,1,.1-.49,1,1,0,0,1-.15-.62v-.17l0-.19,0-.17c-.13-.17-.17-.29-.31-.9a1.87,1.87,0,0,0-.18-.58.2.2,0,0,1,0-.08c0-.08.19-.15.42-.15l.2,0a.65.65,0,0,1-.06-.28,1.73,1.73,0,0,1,.1-.55,1.06,1.06,0,0,0,.09-.34,1.33,1.33,0,0,0-.06-.42l-.11-.28a.4.4,0,0,1,0-.14s0,0,.07,0a2.35,2.35,0,0,1,1.2.68,1.5,1.5,0,0,1,.54,1.27l0,.3a1.24,1.24,0,0,1,.54.9.72.72,0,0,1-.28.57,1.2,1.2,0,0,0-.46,1c0,.74.22,1.14.63,1.14s.63-.39.68-1l0-.53c0-.14,0-.3.07-.5a2.59,2.59,0,0,0,0-.36c0-.19-.12-.42-.49-.85a1.54,1.54,0,0,1-.52-1.06.7.7,0,0,1,.7-.74.49.49,0,0,1,.27.08,1.33,1.33,0,0,1,.15-.63c.11-.27.22-.46.28-.46a.16.16,0,0,1,.08.06l.18.15.14.1.12.13a1.34,1.34,0,0,1,.43-.71c.19-.19.27-.25.3-.25a.15.15,0,0,1,.1.07l.17.22.24.27a.74.74,0,0,1,.17.43l.14-.08.22-.13.17-.11.09,0s0,0,.07.1l.08.32.18.36a.69.69,0,0,1,.07.36v.09h.09c.27,0,.51.32.51.7a2,2,0,0,1-.91,1.47,1.12,1.12,0,0,0-.06.37c0,1.11.29,1.34,2,1.59a9.37,9.37,0,0,1,1.14.24l1.1.36a2.75,2.75,0,0,0,.82.18c.21,0,.32-.06.32-.17s-.28-.36-1.13-.69l-1.21-.47A2.4,2.4,0,0,1,37.27,214a2.2,2.2,0,0,1,2.25-2.25,4.64,4.64,0,0,1,1.64.35,4.14,4.14,0,0,0,1,.33c.17,0,.26-.12.29-.36s.08-.29.19-.29.36.16.49.42a1.66,1.66,0,0,1,.18.72.79.79,0,0,1-.68.85,1.35,1.35,0,0,1-1.12.58c-.55,0-.83-.11-1.77-.7a1.19,1.19,0,0,0-.73-.26.52.52,0,0,0-.58.48c0,.25.21.42.67.54a.73.73,0,0,1,.46.24.9.9,0,0,1,.23,0,2.45,2.45,0,0,1,1.48.65,2.37,2.37,0,0,1,1.62,2,1.65,1.65,0,0,1-1.57,1.63,5.5,5.5,0,0,1-1.07-.17"/>
    <path class="cls-6" d="M39.76,222.57l.06-.15.06-.2A1.17,1.17,0,0,1,40,222a1.12,1.12,0,0,0,.21-.69.58.58,0,0,0-.07-.27.33.33,0,0,1,0-.13.11.11,0,0,1,0-.06.09.09,0,0,1,.06,0h0a.25.25,0,0,1,.14.1c.06.07.11.11.14.11s.13-.11.16-.26,0-.13,0-.14a1.32,1.32,0,0,0-.13-.39.34.34,0,0,1,0-.14.08.08,0,0,1,.08-.09.36.36,0,0,1,.18.12.17.17,0,0,0,.11.06c.09,0,.15-.09.22-.31a1.25,1.25,0,0,0,.06-.22s0-.06,0-.06h0l-.16,0a1.18,1.18,0,0,1-.78-.38l-.39-.47a5,5,0,0,1-.35-.46l-.32-.21A.16.16,0,0,1,39,218c0-.05.05-.09.13-.09a3.32,3.32,0,0,1,.72.26,4.34,4.34,0,0,0,1.41.31,1.21,1.21,0,0,0,1.21-1.19,1.77,1.77,0,0,0-.55-1.15.5.5,0,0,0-.26-.17.08.08,0,0,0-.08.08.44.44,0,0,0,0,.16.35.35,0,0,1,0,.13c0,.06,0,.1-.07.1s-.18-.14-.25-.39-.27-.49-.7-.71a1.5,1.5,0,0,0-.44-.16s0,0,0,.06a.31.31,0,0,0,.06.16.68.68,0,0,1,.11.27h0c0,.05,0,.08-.08.08s-.11,0-.31-.33a1.61,1.61,0,0,0-.63-.47.71.71,0,0,0-.24-.06h0c-.05,0-.09,0-.09.05A.59.59,0,0,0,39,215l0,.08a.07.07,0,0,1-.07.08,1.5,1.5,0,0,1-.55-.45,1.39,1.39,0,0,1-.36-.83,1.08,1.08,0,0,1,1.08-1,.8.8,0,0,1,.36.07l.49.25.57.38a2.28,2.28,0,0,0,1,.38,1.52,1.52,0,0,0,.44-.09c.14,0,.22-.09.22-.14h0l0,0-.31,0a2.66,2.66,0,0,1-.86-.39l-.64-.42-.57-.24s-.07,0-.07-.07a.06.06,0,0,1,.07-.05l.16,0,.53.15a3.83,3.83,0,0,1,.64.29,3,3,0,0,0,1.24.44.52.52,0,0,0,.56-.52,2,2,0,0,0-.05-.4.55.55,0,0,0-.08-.18s-.05-.05-.07-.05-.06,0-.06.11v.18c0,.26-.1.35-.38.35a3.9,3.9,0,0,1-1.25-.37,4,4,0,0,0-1.49-.36,2,2,0,0,0-2,1.83c0,.84.56,1.49,1.7,2l1.18.49c1,.4,1.34.69,1.34,1.07s-.3.52-.75.52a3.13,3.13,0,0,1-.9-.2,8.18,8.18,0,0,0-2.46-.5,3,3,0,0,0-2.35.9c-.08.08-.12.11-.19.11a.41.41,0,0,1-.2-.08.67.67,0,0,0-.31-.1.51.51,0,0,0-.33.18l-.14.18a.18.18,0,0,1-.12.08c-.1,0-.28-.17-.39-.38a1.3,1.3,0,0,1-.14-.36,2.12,2.12,0,0,1,0-.38v-.26l0-.28c0-.13,0-.21,0-.24a.07.07,0,0,1,.07-.06c.07,0,.1.07.1.22V217c0,.4.16.76.33.76s.26-.24.35-.72c0-.1.06-.15.11-.15s.09.07.13.28a1.21,1.21,0,0,0,.21.44.24.24,0,0,0,.16.11c.11,0,.19-.17.24-.57,0-.16.07-.25.12-.25a.07.07,0,0,1,.06,0l.1.15a.38.38,0,0,0,.15.14.41.41,0,0,0,.16.06.2.2,0,0,0,.13-.06c.06-.06.1-.1.1-.11A.28.28,0,0,0,36,217a1.36,1.36,0,0,1-.25-.46l-.12-.32a.2.2,0,0,0-.07-.1h-.13l-.29.08h-.09a.06.06,0,0,1-.07-.07.28.28,0,0,1,.11-.16,2,2,0,0,0,.64-1.43,1.44,1.44,0,0,1,.28-.82c0-.05.07-.08.09-.08s.08,0,.08.12a.57.57,0,0,1,0,.2.49.49,0,0,0,0,.17v.05l0,.08.15-.06.17-.19a1,1,0,0,0,.18-.57.45.45,0,0,0-.11-.32c-.09-.1-.15-.15-.21-.15h-.19c-.09,0-.13,0-.13-.08l0-.11v-.15l-.08-.35-.07-.17,0-.14-.1.07-.21.12a.7.7,0,0,0-.17.15c-.2.24-.21.25-.29.25s-.08,0-.08-.05v-.06a1.44,1.44,0,0,0,0-.29,1.32,1.32,0,0,0-.39-.81,1.25,1.25,0,0,0-.45.88v.17c0,.06,0,.1-.06.1h0a.17.17,0,0,1-.1-.07l-.17-.22-.22-.18-.11-.1-.06.11a1.48,1.48,0,0,0-.19.67c0,.19,0,.24-.07.24l-.09,0c-.21-.12-.23-.13-.32-.13a.41.41,0,0,0-.42.44,1.1,1.1,0,0,0,.17.46c.13.23.32.43.4.43s0,0,0-.09v-.27l0-.18v0c0-.05,0-.08.06-.08s.24.37.33,1.1a2.15,2.15,0,0,0,.54,1.35c.07.07.11.12.11.15a.05.05,0,0,1-.06,0,.44.44,0,0,1-.18-.07.3.3,0,0,0-.15,0,.4.4,0,0,0-.32.34l-.13.79-.1,1.11a3,3,0,0,0,.08.83,3.58,3.58,0,0,1,.1.66,1.79,1.79,0,0,1-1.38,1.75l-.89.26a1.23,1.23,0,0,0-.9,1.21.64.64,0,0,1,.4-.17l.26,0a.73.73,0,0,0,.24-.07l.15-.15.24-.26c.09-.1.17-.16.22-.16s.06,0,.06.08a.51.51,0,0,1-.1.23.66.66,0,0,0-.1.36.86.86,0,0,0,.23.55.94.94,0,0,1,.06-.17A2.82,2.82,0,0,1,32,223a1.53,1.53,0,0,0,.33-.63c0-.22,0-.29.08-.29s.05,0,.08.13a.17.17,0,0,0,0,.08.14.14,0,0,0,.08.06l.11-.06a1,1,0,0,0,.22-.19,1.16,1.16,0,0,0,.21-.51v-.18s0-.09,0-.09.1.07.15.15,0,.07.09.07h0a.21.21,0,0,0,.12-.06.83.83,0,0,0,.28-.52v-.26l-.06-.21v0a.08.08,0,0,1,.07-.08c.06,0,.13.09.23.29s.09.14.13.14.12,0,.25-.24l.13-.18a.24.24,0,0,0,0-.14.25.25,0,0,0,0-.14l-.11-.17a.28.28,0,0,1,0-.14,1.36,1.36,0,0,1,.21-.65,3.29,3.29,0,0,0,.18-.35c0-.06,0-.08.08-.08s0,0,0,.07v.38c0,.05.05.07.12.07l.14,0,.35-.13a2.38,2.38,0,0,0,.32-.15,1.87,1.87,0,0,1,1-.36,1.69,1.69,0,0,1,.66.2.38.38,0,0,0,.14,0,.17.17,0,0,0,.12-.07.17.17,0,0,0,0-.11.35.35,0,0,0-.06-.17.66.66,0,0,1-.08-.21.06.06,0,0,1,.06-.06.15.15,0,0,1,.1.07l.32.56a1.65,1.65,0,0,0,.89.85l.61.14c.19,0,.24.12.24.35a1.21,1.21,0,0,1-.56,1l-.5.32a.92.92,0,0,0-.33.7,3.79,3.79,0,0,0,.1.72l.1-.1.24-.14.21-.21.11-.31.11-.28c.05-.13.12-.22.16-.22s.08.08.08.21V222a1.06,1.06,0,0,0,.18.59"/>
    <path class="cls-6" d="M31.53,226.54c0-.66.24-1,1.2-1.44,1.89-1,2.91-1.84,2.91-2.51a3,3,0,0,0-.17-.75,2.43,2.43,0,0,1-.12-.6,1.7,1.7,0,0,1,.58-1.06l.26-.24a.72.72,0,0,0,.25-.44v-.15c0-.14.05-.19.2-.2h.13l.11,0a.14.14,0,0,1,.12.07l.07.11.1.11a.14.14,0,0,0,.09.06l.11,0a.34.34,0,0,1,.17-.05c.07,0,.11,0,.11.12a2.15,2.15,0,0,1-.5,1.11,2.59,2.59,0,0,0-.71,1.57,1.51,1.51,0,0,0,.31.94.25.25,0,0,1,.06.1.36.36,0,0,1-.1.18l-.08.11c-.11.16-.18.22-.26.22a.15.15,0,0,1-.13-.11l-.06-.15a.1.1,0,0,0-.08-.07s0,0-.06.06a.25.25,0,0,0-.05.15v.24a.48.48,0,0,1-.1.28,1.16,1.16,0,0,1-.19.21.26.26,0,0,1-.11.07s-.08,0-.1-.11l-.08-.28s0-.07-.07-.07-.09.08-.1.2a1,1,0,0,1-.17.58l-.2.18a.34.34,0,0,1-.18.1.09.09,0,0,1-.09,0l-.1-.21a.07.07,0,0,0-.06,0c-.06,0-.1.11-.12.32a1.07,1.07,0,0,1-.43.92.77.77,0,0,0-.35.39.89.89,0,0,1-.17-.55.5.5,0,0,1,.06-.26.59.59,0,0,0,.09-.23.06.06,0,0,0,0-.06s0,0-.07.05a.73.73,0,0,1-.18.14.54.54,0,0,0-.35.47.71.71,0,0,1-.64.62c-.47.1-.5.11-.67.27l0-.25Z"/>
    <path class="cls-6" d="M30.63,212.2v.35a.88.88,0,0,1,0,.23,1.51,1.51,0,0,0-.06.31,1.12,1.12,0,0,0,.19.67,1,1,0,0,1,.14.47c0,.06,0,.09-.06.09a.09.09,0,0,1-.07,0l-.11-.15c-.09-.12-.17-.15-.4-.15L30,214a3,3,0,0,1,.17.49c.11.45.13.49.38.71s.27.25.27.33a.1.1,0,0,1-.1.11h-.15c-.08,0-.15.14-.15.29a1,1,0,0,0,.09.35.57.57,0,0,0,.1.17l.14.14a.2.2,0,0,1,.06.14c0,.07,0,.12-.08.12a.32.32,0,0,1-.12,0l-.1,0c-.06,0-.09,0-.09.11l0,.21.08.36a.64.64,0,0,0,.15.27.66.66,0,0,0,.21.17l.28.13a.14.14,0,0,1,0,.11.1.1,0,0,1-.09.1l-.14,0h-.14c-.14,0-.15,0-.15.12a.88.88,0,0,0,0,.22l.06.22c.06.24.14.36.22.36a.25.25,0,0,0,.1-.06,1.72,1.72,0,0,1,.86-.29,2.81,2.81,0,0,1,.67.07l.13,0s0,0,0-.16l0-.25.06-.43,0-.32v-.18l-.11.1a.82.82,0,0,1-.63.29c-.64,0-1-.72-1-2a13.37,13.37,0,0,1,.22-2.09,2.46,2.46,0,0,0,0-.39,1.52,1.52,0,0,0-.79-1.23"/>
    <path class="cls-6" d="M31.57,215.31l.12-.12.12-.11a.65.65,0,0,0,.19-.43.44.44,0,0,0,0-.2c0-.1-.14-.2-.2-.2s-.09.11-.11.29l0,.21,0,.21v.35Z"/>
    <path class="cls-6" d="M30.35,221c.14.05.17.08.32.25a.6.6,0,0,0,.56.28l.2,0,.18-.06.14,0c.07,0,.11,0,.11-.07s-.11-.12-.28-.23a2.69,2.69,0,0,0-.33-.19.72.72,0,0,0-.32-.09,1,1,0,0,0-.57.18"/>
    <path class="cls-6" d="M32.23,224.91a.91.91,0,0,1,1-.82c.27,0,.43.05.43.15s-.12.17-.38.3l-.4.22a6,6,0,0,1-.61.31v-.16Z"/>
    <path class="cls-6" d="M37.89,221.54c.2,0,.26-.09.36-.1h.25l.17-.11.19-.14c.28-.19.29-.2.29-.26s-.11-.11-.35-.11c-.44,0-.71.21-.92.71"/>
    <path class="cls-3" d="M33.69,213.07l.2.13a1.83,1.83,0,0,0,.28.15c.21.09.29.12.29.2a.59.59,0,0,1,0,.16.86.86,0,0,0,0,.2c0,.19-.13.24-.21.24s-.19-.15-.35-.42a3.23,3.23,0,0,1-.22-.56v-.05s0-.05.06-.05"/>
    <path class="cls-3" d="M35.56,213.56l-.32.32a1.19,1.19,0,0,0-.14.31.19.19,0,0,1-.1,0h0a.14.14,0,0,1-.15-.14v-.47h0a.14.14,0,0,1,.12-.15l.3-.08.3-.15.13-.06a.08.08,0,0,1,.07.08.22.22,0,0,1,0,.09l-.14.23Z"/>
    <path class="cls-3" d="M34.16,214.51l.21.15a.37.37,0,0,0,.19,0,.86.86,0,0,0,.33-.09l.18-.08.11,0c.11,0,.2.12.2.27a1.47,1.47,0,0,1-.36.72l-.15.32c-.12.17-.2.24-.3.24s-.25-.09-.49-.59a1.76,1.76,0,0,1-.25-.74c0-.15.08-.25.19-.25a.26.26,0,0,1,.16,0"/>
    <path class="cls-6" d="M34.34,215.27v.26a.25.25,0,0,0,.2.24c.13,0,.22-.19.27-.49a1.49,1.49,0,0,0,0-.19c0-.1,0-.13-.17-.13h-.23c-.09,0-.12.07-.12.24"/>
    <path class="cls-3" d="M18.68,209H20v2.79h1.6V209h4v2.76h1.6V209h1.36V201.8H27.08l-.06-.08a.87.87,0,0,0-.75-.42.83.83,0,0,0-.73.51H24.42a.82.82,0,0,0-.75-.51.84.84,0,0,0-.79.51H21.67a.81.81,0,0,0-.77-.51.76.76,0,0,0-.74.51H18.68V209Z"/>
    <polygon class="cls-5" points="19.27 208.45 28.11 208.45 28.11 202.39 19.27 202.39 19.27 208.45 19.27 208.45"/>
    <path class="cls-6" d="M20.18,203.77a.42.42,0,1,0,.42.42.42.42,0,0,0-.42-.42"/>
    <path class="cls-7" d="M20.18,203.83a.36.36,0,1,0,.36.36.36.36,0,0,0-.36-.36Zm0,.84a.48.48,0,1,1,.48-.48.48.48,0,0,1-.48.48Z"/>
    <path class="cls-6" d="M27.13,203.77a.42.42,0,1,0,.42.42.42.42,0,0,0-.42-.42"/>
    <path class="cls-7" d="M27.13,203.83a.36.36,0,1,0,.36.36.36.36,0,0,0-.36-.36Zm0,.84a.48.48,0,1,1,.48-.48.48.48,0,0,1-.48.48Z"/>
    <path class="cls-6" d="M20.18,207.07a.42.42,0,0,0-.42.42.43.43,0,0,0,.44.42.41.41,0,0,0,.41-.42.42.42,0,0,0-.42-.42"/>
    <path class="cls-7" d="M20.18,207.13a.36.36,0,0,0-.36.36.37.37,0,0,0,.38.36.36.36,0,0,0,.35-.36.36.36,0,0,0-.36-.36Zm0,.84a.49.49,0,0,1-.49-.48.48.48,0,0,1,1,0,.47.47,0,0,1-.46.48Z"/>
    <path class="cls-6" d="M27.13,207.07a.42.42,0,1,0,.42.42.42.42,0,0,0-.42-.42"/>
    <path class="cls-7" d="M27.13,207.13a.36.36,0,1,0,.36.36.36.36,0,0,0-.36-.36Zm0,.84a.48.48,0,1,1,.48-.48.48.48,0,0,1-.48.48Z"/>
    <path class="cls-6" d="M21.5,205.79a2.66,2.66,0,0,0,2.18,1.07,2.49,2.49,0,0,0,2.06-1.07,2.8,2.8,0,0,0-4.23,0"/>
    <path class="cls-3" d="M21.92,205.79a2.6,2.6,0,0,1,1.7-.65,2.49,2.49,0,0,1,1.68.66,2.15,2.15,0,0,1-1.69.72,2.35,2.35,0,0,1-1.69-.73"/>
    <path class="cls-6" d="M22.64,205.65a1.7,1.7,0,0,0,1,.31,1.73,1.73,0,0,0,1-.31,2.33,2.33,0,0,0-1-.24,2,2,0,0,0-1,.24"/>
    <polygon class="cls-3" points="19.14 203.01 28.23 203.01 28.23 202.7 19.14 202.7 19.14 203.01 19.14 203.01"/>
    <path class="cls-7" d="M19.16,203h9.05v-.27H19.16V203Zm9.09,0H19.12v-.35h9.13V203Z"/>
    <path class="cls-6" d="M20.53,202.3v.87a.36.36,0,0,0,.37.36.34.34,0,0,0,.38-.36v-.86c0-.33-.14-.53-.35-.53a.47.47,0,0,0-.17,0l-.1.06a.34.34,0,0,0-.08.11.48.48,0,0,0-.06.15"/>
    <path class="cls-6" d="M23.27,203v.15a.36.36,0,0,0,.37.36.34.34,0,0,0,.38-.36v-.86c0-.33-.13-.54-.35-.54s-.41.2-.41.52"/>
    <path class="cls-6" d="M25.92,202.3v.87a.36.36,0,0,0,.37.36.34.34,0,0,0,.38-.36v-.86c0-.33-.13-.53-.35-.53a.46.46,0,0,0-.17,0l-.1.06A.36.36,0,0,0,26,202a.48.48,0,0,0-.06.15"/>
    <polygon class="cls-6" points="20.34 210.7 21.16 210.7 21.16 209.63 20.34 209.63 20.34 210.7 20.34 210.7"/>
    <polygon class="cls-6" points="20.34 211.28 21.16 211.28 21.16 210.94 20.34 210.94 20.34 211.28 20.34 211.28"/>
    <polygon class="cls-6" points="25.98 210.7 26.8 210.7 26.8 209.63 25.98 209.63 25.98 210.7 25.98 210.7"/>
    <polygon class="cls-6" points="25.98 211.28 26.8 211.28 26.8 210.94 25.98 210.94 25.98 211.28 25.98 211.28"/>
    <path d="M71.41,183.78v.64H71c-.62,0-1.66,0-1.66,1.94v7.95c0,4.86-2.12,7.22-6.47,7.22-4.91,0-7.2-2-7.2-6.17v-9c0-1.94-1-1.94-2-1.94h-.2v-.64h7.35v.64h-.2c-.91,0-2,0-2,1.94V195c0,3.71,1.55,5.51,4.73,5.51s4.74-1.94,4.74-5.61v-8.5c0-1.94-1.07-1.94-1.85-1.94h-.39v-.64h5.59"/>
    <path d="M79.35,200.51v.64h-6.2v-.64h.25c2,0,2.29-1.55,2.29-3.3V186.78a2.11,2.11,0,0,0-2.32-2.36h-.22v-.64H78l10.55,12.94v-9.84c0-2.22-1.55-2.46-2.22-2.46h-.44v-.64h6.27v.64h-.27c-1.1,0-2.27.25-2.27,3.29v13.52h-.92l-12-14.49V197.2c0,1.74.25,3.31,2.35,3.31"/>
    <path d="M112.61,197.46l3.82-10.67c.68-1.82.25-2.37-1.34-2.37h-.32v-.63h4.94v.63h-.11c-.54,0-1.17.16-1.64,1.35l-5.79,15.44h-1.1l-6.28-15.3a1.92,1.92,0,0,0-2.14-1.5h-.15v-.63h7.18v.63h-.47c-1.23,0-1.47.77-1.12,1.71"/>
    <path d="M141.58,184.6v7.69h1.49c2.7,0,3.9-1.2,3.9-4a3.51,3.51,0,0,0-3.7-3.77,12.78,12.78,0,0,0-1.68.11Zm2.67-.82c3.84,0,5.75,1.42,5.75,4.33,0,2.47-1.93,3.72-3.45,4.34l-.11,0L150.7,199a2.67,2.67,0,0,0,2.41,1.52v.65h-4.45L143.5,193h-1.92v5.4c0,2,.87,2.11,2.1,2.11H144v.64h-7.55v-.64h.34c.84,0,1.83-.38,1.83-1.46V186.43c0-2-1.19-2-1.83-2h-.34v-.64h7.77"/>
    <path d="M162.29,197.85c0-2.12-1.81-2.95-3.51-3.83-2-1-4.26-2.1-4.26-5.3s2.36-5.11,5.74-5.11a20.21,20.21,0,0,1,3.63.41l.24,3.38-.65.09c-.3-1.78-1.22-3.14-3.22-3.14a3,3,0,0,0-3.27,3.23c0,2,1.81,2.76,3.49,3.61,2.06,1,4.43,2.11,4.43,5.35,0,3.58-3.19,5.18-6.14,5.18a8.75,8.75,0,0,1-4.11-1l-.41-3.76.63-.11c.48,2.5,2.06,3.94,4.15,3.94a3,3,0,0,0,3.28-3"/>
    <path d="M174.68,183.78v.64h-.24c-1,0-1.9.19-1.9,1.53v13c0,1.35.91,1.53,1.9,1.53h.24v.63h-7.25v-.63h.25c1,0,1.9-.19,1.9-1.53v-13c0-1.35-.91-1.53-1.9-1.53h-.25v-.64h7.25"/>
    <path d="M101.5,183.78v.64h-.24c-1,0-1.9.19-1.9,1.53v13c0,1.35.91,1.53,1.9,1.53h.24v.63H94.25v-.63h.25c1,0,1.9-.19,1.9-1.53v-13c0-1.35-.92-1.53-1.9-1.53h-.25v-.64h7.25"/>
    <path d="M246,208.85l.06,4.61-.74.19c-.16-2-.62-3.66-3.84-3.66h-4.33v8.52h3.72c1.82,0,2.32-1,2.52-2.78h.74v7.12h-.74c-.11-1.7-.52-3-2.51-3h-3.73v7.48c0,2.17,1.87,2.17,3.86,2.17,3.56,0,5.21-.22,6.2-3.82l.73.16-1,4.8H230.81v-.8h.31c1.24,0,2.39-.23,2.39-1.92V211.58c0-1.69-1.15-1.92-2.39-1.92h-.31v-.8H246"/>
    <path d="M154.58,209.88v9.64h1.86c3.39,0,4.88-1.51,4.88-5.05a4.41,4.41,0,0,0-4.64-4.73,14.62,14.62,0,0,0-2.11.14Zm3.34-1c4.82,0,7.22,1.78,7.22,5.43,0,3.1-2.42,4.67-4.32,5.44l-.14.06,5.34,8.13a3.35,3.35,0,0,0,3,1.91v.81h-5.58L157,220.41h-2.41v6.78c0,2.46,1.09,2.65,2.63,2.65h.43v.8h-9.47v-.8h.43c1.06,0,2.3-.48,2.3-1.83V212.17c0-2.52-1.49-2.52-2.3-2.52h-.43v-.8h9.75"/>
    <path d="M179.47,208.85v.8h-.31c-1.24,0-2.39.23-2.39,1.92v16.34c0,1.69,1.15,1.92,2.39,1.92h.31v.8h-9.1v-.8h.31c1.24,0,2.39-.23,2.39-1.92V211.57c0-1.69-1.15-1.92-2.39-1.92h-.31v-.8h9.1"/>
    <path d="M178.45,183.78h11.49c.58,0,1.32-.15,1.43-.9h.56l-.44,4.53h-.62c0-1-.19-2.57-1.87-2.57H185.5v13.41c0,2.09,1,2.26,2.12,2.26H188v.63h-7.91v-.63h.37c1.32,0,2.12-.11,2.12-2.21V184.84H179c-1.81,0-2,.79-2.33,2.55h-.62l.4-4.47H177a1.34,1.34,0,0,0,1.47.87"/>
    <path d="M209.69,183.78v.64a2.73,2.73,0,0,0-2.05,1.38l-4.41,6.79v5.55c0,2.21.8,2.37,2.12,2.37h.37v.63h-7.91v-.63h.37c1.38,0,2.12-.34,2.12-2.16V193l-4.79-6.84c-.73-1.06-1.28-1.75-2.44-1.75h-.15v-.64h7.17v.64h-.22c-1.38,0-1.48.73-.89,1.56l3.71,5.75,3.28-5.19c.75-1.13,1-2.12-.89-2.12h-.28v-.64"/>
    <path d="M218.18,191.71c0,4.29,1.89,8.9,6.05,8.9,3.81,0,5.66-2.64,5.66-8.07,0-4-2.13-8.23-6.08-8.23-5.23,0-5.64,5.66-5.64,7.4Zm-3.22.88a9,9,0,0,1,8.91-9.19c5.45,0,9.25,3.53,9.25,8.58,0,5.53-3.84,9.54-9.13,9.54a8.69,8.69,0,0,1-9-8.93"/>
    <path d="M235.1,201.14v-.63h.25c1,0,1.9-.19,1.9-1.53v-13c0-1.35-.91-1.53-1.9-1.53h-.25v-.63h12.13l0,3.67-.58.15c-.14-1.49-.48-2.92-2.55-2.92h-4v6.79h3.47c1.44,0,1.64-1.13,1.66-2h.57V195h-.57c0-1.09-.27-2.47-2-2.47h-3.08V199c0,1.53,1.29,1.53,2.44,1.53h.22v.63"/>
    <path d="M54.87,219.73a11.44,11.44,0,0,1,3.58-8.44,11.74,11.74,0,0,1,8-2.94,16.77,16.77,0,0,1,7.38,1.56l.23,5-.72.09c-.82-2.92-2.19-5.6-6.8-5.6s-7.69,3.75-7.69,9.8c0,5.38,2.38,10.47,8.15,10.47a8.64,8.64,0,0,0,7.3-3.46l.57,1.07a10.4,10.4,0,0,1-8.46,3.9c-7,0-11.5-4.15-11.5-11.48"/>
    <path d="M101.83,213.07l-.72,13.45c-.13,3,.79,3.24,2.79,3.32h.19v.79H96.75v-.79H97c2.47-.1,2.63-1.47,2.74-3.48l.85-13.77A2.48,2.48,0,0,0,98,209.63h-.25v-.79h6.16l7.4,16.51,7-16.51h6v.8h-.12c-2.45,0-2.88.76-2.7,3.84l.84,14.45c.13,1.69,1,1.84,2.68,1.91v.79h-9v-.79h.06c1.47-.09,2.54-.15,2.54-1.63l0-1.56-.66-13.93-7.53,18.07h-.66l-7.88-17.72"/>
    <path d="M189.29,209.89V227c0,2.31,1,2.68,3.31,2.68,5.5,0,8-4.74,8-9.38,0-7.22-3-10.5-9.11-10.5-.54,0-1.69,0-2.21.1Zm-6.4,20.74v-.8h.31c1.24,0,2.39-.23,2.39-1.92V211.57c0-1.69-1.15-1.92-2.39-1.92h-.31v-.8h9.74c3.62,0,6.65.91,8.77,2.88a10.54,10.54,0,0,1,3.19,8,11.48,11.48,0,0,1-3.33,8.11c-2.13,2.11-5.12,2.83-8.14,2.83"/>
    <path d="M223.13,229.51v-5.34c0-1.17-.85-1.79-2.46-1.79h-.25v-.78h8.37v.78h-.25a1.6,1.6,0,0,0-1.79,1.79v5.94a25.53,25.53,0,0,1-7.66,1.15c-7.19,0-11.84-4.66-11.84-11.87,0-7.67,6.13-11.16,11.89-11.16a23.5,23.5,0,0,1,6.92,1.08l.35,5.2-.73,0c-.9-3.74-2.57-5.21-6.32-5.21-5.06,0-8.13,3.73-8.13,9.73,0,5.52,2.59,11,8.37,11a9,9,0,0,0,3.53-.55"/>
    <path d="M139,218.77c2.74.2,4.2.8,5.43,2.06a5,5,0,0,1,1.45,3.63c0,3.42-3.13,6.16-7.21,6.16H128v-.79h.43c1.06,0,2.29-.5,2.29-1.86v-15.8c0-2.52-1.49-2.52-2.29-2.52H128v-.8h9.67c4.54,0,7,1.65,7,4.76,0,3.45-3,4.73-5.71,5.16m-4.46-9.12v8.75h1.64c3,0,4.65-1.45,4.65-4.24,0-3.08-1.45-4.51-4.32-4.51Zm0,9.7V227c0,2.13.68,2.74,2.89,2.74,2.65,0,4.65-2.18,4.65-5.16,0-3.35-2-5.24-5.45-5.24"/>
    <path d="M84.11,213.29l3,8.48H81.06l3.05-8.48Zm.38-4.44-6.91,18.8a2.91,2.91,0,0,1-2.76,2.16h-.07v.82h6.63v-.82h-.29c-1.6,0-2.68-.51-2-2.57l1.58-4.39h6.86l1.72,4.79c.49,1.51-.15,2.2-1.79,2.2h-.19v.8H95.7v-.8h-.07c-1.12,0-1.89-.59-2.42-2.08l-7.09-18.9"/>
    <path d="M133,183.78l0,3.67-.59.15c-.13-1.61-.5-2.92-3.06-2.92H126v6.79h3c1.45,0,1.85-.81,2-2.21h.59v5.68h-.59c-.09-1.36-.41-2.41-2-2.41h-3v6c0,1.73,1.49,1.73,3.07,1.73,2.83,0,4.15-.18,4.94-3l.58.13-.79,3.83H120.89v-.63h.25c1,0,1.9-.19,1.9-1.53v-13c0-1.35-.92-1.53-1.9-1.53h-.25v-.64H133"/>
  </g>
  <g id="tick-logo">
    <rect id="square" class="cls-8" x="70.7" y="25.05" width="107.02" height="107.02"/>
    <g id="bars">
      <rect class="cls-9" x="132.49" y="32.85" width="20.15" height="98.31"/>
      <rect class="cls-9" x="95.33" y="51.12" width="20.15" height="80.03"/>
    </g>
    <path class="cls-10" d="M85.33,83.9c12,21.73,28.35,68.32,28.35,68.32,5.69-35.89,17.37-103.44,58-146.61a2.66,2.66,0,0,1,4.37.74,124.75,124.75,0,0,0,9.33,16.42,2.65,2.65,0,0,1-.36,3.37c-24.33,23.39-46.28,52.74-70.2,135.59a2.65,2.65,0,0,1-4.79.69c-13.56-21.36-34.23-52.34-44.23-61.62a2.66,2.66,0,0,1,0-3.94c5.3-4.69,11.88-10.55,15.37-13.67A2.65,2.65,0,0,1,85.33,83.9Z"/>
  </g>
</svg>
