<svg xmlns="http://www.w3.org/2000/svg" width="1060" height="530" viewBox="0 0 1060 530">
  <defs>
    <style>
      .a {
        fill: #3c557c;
        stroke: #221f1f;
      }

      .a, .b, .c {
        stroke-miterlimit: 10;
      }

      .b, .c {
        fill: none;
        stroke-width: 0.24px;
      }

      .b {
        stroke: #ffd100;
      }

      .c {
        stroke: #171314;
      }

      .d {
        fill: #2e2a25;
      }

      .e, .i {
        fill: #fff;
      }

      .f {
        fill: #f7323f;
      }

      .g {
        fill: #ffd100;
      }

      .h {
        fill: #221f1f;
      }

      .i {
        font-size: 43px;
        font-family: MyriadPro-Regular, Myriad Pro;
      }

      .j {
        letter-spacing: -0.02em;
      }

      .k {
        letter-spacing: 0em;
      }

      .l {
        letter-spacing: 0em;
      }

      .m {
        letter-spacing: -0.01em;
      }

      .n {
        letter-spacing: -0.01em;
      }

      .o {
        letter-spacing: 0em;
      }

      .p {
        letter-spacing: -0.01em;
      }

      .q {
        letter-spacing: -0.01em;
      }

      .r {
        letter-spacing: 0em;
      }

      .s {
        letter-spacing: 0.01em;
      }

      .t {
        letter-spacing: -0.01em;
      }

      .u {
        letter-spacing: -0.01em;
      }

      .v {
        letter-spacing: -0.01em;
      }
    </style>
  </defs>
  <title>ucs-winton-blue</title>
  <rect class="a" x="-54.94" y="-683.65" width="2372" height="1302"/>
  <g>
    <path class="b" d="M265.85,221.62a74.75,74.75,0,0,1-3.12,19.32,47.74,47.74,0,0,1-7.35,14.57c-5.87,7.76-13,11.64-17.73,14.2-.41.22-3.21,1.65-16.68,8.36V221.62h44.88m-79.3,0v56.45c-13.46-6.71-16.27-8.14-16.68-8.36-4.72-2.57-11.86-6.44-17.73-14.2a47.71,47.71,0,0,1-7.35-14.57,74.63,74.63,0,0,1-3.12-19.32h44.88"/>
    <path class="c" d="M265.93,141.17H221v46h45v-46Zm-79.39,0h-45v46h45v-46Z"/>
    <path class="d" d="M203.75,293.66l-1.36-.73c-2-1-33.63-16.72-35.51-17.74-10.24-5.57-31.55-17.15-31.55-57.73V134.93H272.18v82.54c0,40.58-21.31,52.16-31.55,57.73-1.88,1-33.68,16.83-35.51,17.74l-1.36.73Z"/>
    <path class="e" d="M217.68,190.49v-52.6H189.83v52.6H138.29v27h0c0,.29,0,.58,0,.87h51.54v65l13.92,6.92h0l13.92-6.92v-65h51.54c0-.29,0-.57,0-.87v-27Z"/>
    <polygon class="f" points="189.83 190.49 189.83 137.89 138.29 137.89 138.29 190.49 189.83 190.49 189.83 190.49"/>
    <polygon class="f" points="217.68 190.49 269.22 190.49 269.22 137.89 217.68 137.89 217.68 190.49 217.68 190.49"/>
    <path class="f" d="M189.83,218.33H138.3c.29,37.71,19.63,48.63,30,54.26,1.05.57,12.06,6.07,21.54,10.78v-65Z"/>
    <path class="f" d="M217.68,218.33v65c9.48-4.72,20.49-10.21,21.54-10.79,10.37-5.64,29.71-16.56,30-54.26Z"/>
    <path class="d" d="M235.38,204.81l1.06-1.27L235.1,202l-1.35,1.6,1.07,1.27c0,.64.05,6.22-3.23,8.21a7.47,7.47,0,0,0,2.57-.07,16.4,16.4,0,0,0,.94,3.11A16.52,16.52,0,0,0,236,213a7.47,7.47,0,0,0,2.57.07c-3.29-2-3.25-7.57-3.23-8.21Z"/>
    <path class="d" d="M243.77,195.34l1.06-1.26-1.34-1.6-1.35,1.6,1.07,1.26c0,.64.06,6.22-3.23,8.21a7.47,7.47,0,0,0,2.57-.07,16.42,16.42,0,0,0,.94,3.11,16.53,16.53,0,0,0,.95-3.11,7.47,7.47,0,0,0,2.57.07c-3.29-2-3.25-7.57-3.23-8.21Z"/>
    <path class="d" d="M252.17,204.81l1.06-1.27-1.34-1.6-1.34,1.6,1.06,1.27c0,.64.06,6.22-3.23,8.21a7.47,7.47,0,0,0,2.57-.07,16.4,16.4,0,0,0,.94,3.11,16.52,16.52,0,0,0,.95-3.11,7.47,7.47,0,0,0,2.57.07c-3.29-2-3.25-7.57-3.23-8.21Z"/>
    <path class="d" d="M260.56,195.34l1.06-1.26-1.34-1.6-1.34,1.6,1.06,1.26c0,.64.06,6.22-3.23,8.21a7.47,7.47,0,0,0,2.57-.07,16.48,16.48,0,0,0,.95,3.11,16.49,16.49,0,0,0,.95-3.11,7.46,7.46,0,0,0,2.57.07c-3.29-2-3.25-7.57-3.23-8.21Z"/>
    <path class="d" d="M227,195.34l1.06-1.26-1.35-1.6-1.34,1.6,1.06,1.26c0,.64.06,6.22-3.23,8.21a7.47,7.47,0,0,0,2.57-.07,16.41,16.41,0,0,0,.95,3.11,16.49,16.49,0,0,0,.95-3.11,7.47,7.47,0,0,0,2.57.07c-3.29-2-3.25-7.57-3.23-8.21Z"/>
    <path class="d" d="M155.9,204.81l1.06-1.27-1.34-1.6-1.34,1.6,1.06,1.27c0,.64.06,6.22-3.23,8.21a7.47,7.47,0,0,0,2.57-.07,16.52,16.52,0,0,0,.95,3.11,16.6,16.6,0,0,0,.95-3.11,7.47,7.47,0,0,0,2.57.07c-3.29-2-3.25-7.57-3.23-8.21Z"/>
    <path class="d" d="M164.29,195.34l1.06-1.26-1.34-1.6-1.34,1.6,1.06,1.26c0,.64.06,6.22-3.23,8.21a7.48,7.48,0,0,0,2.57-.07,16.46,16.46,0,0,0,.94,3.11,16.49,16.49,0,0,0,.95-3.11,7.47,7.47,0,0,0,2.57.07c-3.29-2-3.25-7.57-3.23-8.21Z"/>
    <path class="d" d="M172.69,204.81l1.06-1.27-1.34-1.6-1.35,1.6,1.07,1.27c0,.64.05,6.22-3.23,8.21a7.46,7.46,0,0,0,2.57-.07,16.47,16.47,0,0,0,.95,3.11,16.52,16.52,0,0,0,.95-3.11,7.47,7.47,0,0,0,2.57.07c-3.29-2-3.25-7.57-3.23-8.21Z"/>
    <path class="d" d="M181.08,195.34l1.06-1.26-1.34-1.6-1.34,1.6,1.06,1.26c0,.64.06,6.22-3.23,8.21a7.46,7.46,0,0,0,2.57-.07,16.6,16.6,0,0,0,.95,3.11,16.54,16.54,0,0,0,.94-3.11,7.47,7.47,0,0,0,2.57.07c-3.29-2-3.25-7.57-3.23-8.21Z"/>
    <path class="d" d="M147.5,195.34l1.07-1.26-1.35-1.6-1.34,1.6,1.06,1.26c0,.64.06,6.22-3.23,8.21a7.47,7.47,0,0,0,2.57-.07,16.53,16.53,0,0,0,.95,3.11,16.41,16.41,0,0,0,.95-3.11,7.47,7.47,0,0,0,2.57.07c-3.29-2-3.25-7.57-3.23-8.21Z"/>
    <path class="d" d="M204.1,226.18l1.06-1.26-1.34-1.6-1.34,1.6,1.07,1.26c0,.64.05,6.21-3.23,8.21a7.44,7.44,0,0,0,2.57-.07,16.55,16.55,0,0,0,.94,3.11,16.54,16.54,0,0,0,.95-3.11,7.45,7.45,0,0,0,2.57.07c-3.29-2-3.25-7.57-3.23-8.21Z"/>
    <path class="d" d="M204.1,254.68l1.06-1.27-1.34-1.6-1.34,1.6,1.07,1.27c0,.64.05,6.22-3.23,8.21a7.47,7.47,0,0,0,2.57-.07,16.54,16.54,0,0,0,.94,3.11,16.53,16.53,0,0,0,.95-3.11,7.48,7.48,0,0,0,2.57.07c-3.29-2-3.25-7.57-3.23-8.21Z"/>
    <path class="d" d="M211.88,240.43l1.07-1.26-1.35-1.6-1.34,1.6,1.06,1.26c0,.64.06,6.22-3.23,8.21a7.48,7.48,0,0,0,2.57-.07,16.47,16.47,0,0,0,.94,3.11,16.5,16.5,0,0,0,.95-3.11,7.46,7.46,0,0,0,2.57.07c-3.29-2-3.25-7.57-3.23-8.21Z"/>
    <path class="d" d="M196.23,240.43l1.07-1.26-1.35-1.6-1.34,1.6,1.06,1.26c0,.64.06,6.22-3.23,8.21a7.47,7.47,0,0,0,2.57-.07,16.55,16.55,0,0,0,.94,3.11,16.42,16.42,0,0,0,.95-3.11,7.47,7.47,0,0,0,2.57.07c-3.29-2-3.25-7.57-3.23-8.21Z"/>
    <path class="d" d="M211.88,268.93l1.07-1.26-1.35-1.6-1.34,1.6,1.06,1.26c0,.64.06,6.22-3.23,8.21a7.49,7.49,0,0,0,2.57-.07,16.47,16.47,0,0,0,.94,3.11,16.49,16.49,0,0,0,.95-3.11,7.48,7.48,0,0,0,2.57.07c-3.29-2-3.25-7.57-3.23-8.21Z"/>
    <path class="d" d="M196.23,268.93l1.07-1.26-1.35-1.6-1.34,1.6,1.06,1.26c0,.64.06,6.22-3.23,8.21a7.49,7.49,0,0,0,2.57-.07,16.55,16.55,0,0,0,.94,3.11,16.42,16.42,0,0,0,.95-3.11,7.48,7.48,0,0,0,2.57.07c-3.29-2-3.25-7.57-3.23-8.21Z"/>
    <path class="d" d="M204.1,161.27l1.06-1.27-1.34-1.6-1.34,1.6,1.07,1.27c0,.64.05,6.21-3.23,8.21a7.49,7.49,0,0,0,2.57-.07,16.52,16.52,0,0,0,.94,3.11,16.52,16.52,0,0,0,.95-3.11,7.5,7.5,0,0,0,2.57.07c-3.29-2-3.25-7.57-3.23-8.21Z"/>
    <path class="d" d="M211.88,147l1.07-1.27-1.35-1.6-1.34,1.6,1.06,1.27c0,.64.06,6.21-3.23,8.21a7.47,7.47,0,0,0,2.57-.07,16.46,16.46,0,0,0,.94,3.11,16.48,16.48,0,0,0,.95-3.11,7.46,7.46,0,0,0,2.57.07c-3.29-2-3.25-7.57-3.23-8.21Z"/>
    <path class="d" d="M196.23,147l1.07-1.27-1.35-1.6-1.34,1.6,1.06,1.27c0,.64.06,6.21-3.23,8.21a7.47,7.47,0,0,0,2.57-.07,16.54,16.54,0,0,0,.94,3.11,16.41,16.41,0,0,0,.95-3.11,7.47,7.47,0,0,0,2.57.07c-3.29-2-3.25-7.57-3.23-8.21Z"/>
    <path class="d" d="M211.88,175.52l1.07-1.27-1.35-1.6-1.34,1.6,1.06,1.27c0,.64.06,6.21-3.23,8.21a7.5,7.5,0,0,0,2.57-.07,16.43,16.43,0,0,0,.94,3.11,16.46,16.46,0,0,0,.95-3.11,7.49,7.49,0,0,0,2.57.07c-3.29-2-3.25-7.57-3.23-8.21Z"/>
    <path class="d" d="M196.23,175.52l1.07-1.27-1.35-1.6-1.34,1.6,1.06,1.27c0,.64.06,6.21-3.23,8.21a7.5,7.5,0,0,0,2.57-.07,16.51,16.51,0,0,0,.94,3.11,16.38,16.38,0,0,0,.95-3.11,7.5,7.5,0,0,0,2.57.07c-3.29-2-3.25-7.57-3.23-8.21Z"/>
    <path class="d" d="M178.7,163.86l.18.65c.16.59.27,1.06.35,1.4.55,2.5,1,3.15,2.22,3.15a1.45,1.45,0,0,0,1.44-1l.26-.88a.42.42,0,0,1,.42-.32c.47,0,.69.49.71,1.59a19.5,19.5,0,0,0,.31,2.14,11.07,11.07,0,0,1,.17,1.91,3.12,3.12,0,0,1-.26,1.37,18.58,18.58,0,0,1,.26,2.68,5.52,5.52,0,0,1-.53,2.61,5.5,5.5,0,0,1,.22,1.65,8.18,8.18,0,0,1-.14,1.46,10.81,10.81,0,0,0-.23,1.51,1.86,1.86,0,0,0,.1.59,2,2,0,0,1,.13.52c0,.12-.06.22-.13.22l-.87-.35-1-.52a4.64,4.64,0,0,1-1-.78c-.85.76-1.1.88-3.32,1.49a3,3,0,0,0-1,.39,1.39,1.39,0,0,1-.58.3c-.37,0-.56-.6-.56-1.85a10,10,0,0,1,.26-2.43,5,5,0,0,0-1.56-.39l-.67.09h-.16c-.13,0-.23-.19-.23-.42a3.39,3.39,0,0,1,.27-.95l.43-1a3.72,3.72,0,0,1,1-1.26,2.81,2.81,0,0,1,1.14-.66l1.57-.3c.93-.18,1.49-.68,1.49-1.33s-.42-1.05-1.36-1.38l-1.88-.65a10.11,10.11,0,0,1-1.71-.83c-1-.62-1.22-.7-1.47-.7s-.59.28-.59.78a1.22,1.22,0,0,0,1.23,1.32,1.2,1.2,0,0,0,.44-.09,1.55,1.55,0,0,1,.45-.13c.2,0,.31.12.31.33v.19l-.09.74a6.09,6.09,0,0,1-1.4,2.62l-.39.52a6,6,0,0,1-2.36,3.45,4.4,4.4,0,0,0-.48.35,6.06,6.06,0,0,0-.35.61,7.33,7.33,0,0,1-.87,1.05,8.08,8.08,0,0,1-1.09,1,4.13,4.13,0,0,0-.87.79l-.44.74a.42.42,0,0,1-.35.22c-.39,0-.74-.4-1-1.09-.16-.51-.3-.66-.63-.66a3.36,3.36,0,0,0-.76.13l-.61.08H161.7a7,7,0,0,0-2.4.44,1.23,1.23,0,0,1-.45.14c-.11,0-.17-.06-.29-.27a.63.63,0,0,1-.1-.35,8.29,8.29,0,0,1,1.32-3.5,4.66,4.66,0,0,1,1.18-1.4,2,2,0,0,0-1.22-1.48l-.74-.22a.23.23,0,0,1-.18-.21c0-.23.36-.54,1-.88a5.43,5.43,0,0,1,2.4-.7,3.57,3.57,0,0,1,2.23.92c1.19.93,1.5,1.1,2.08,1.1a1.89,1.89,0,0,0,1.82-1.75,4.06,4.06,0,0,0-1.15-2.32c-1.22-1.57-1.58-2.39-1.58-3.55a4.45,4.45,0,0,1,.49-2l.44-.65a.82.82,0,0,0,.15-.42c0-.29-.34-.5-.79-.5a7.43,7.43,0,0,0-3.07,1.14c-.52.32-.88.7-.88.93a.4.4,0,0,0,.18.34l.48.31a.22.22,0,0,1,.09.18.83.83,0,0,1-.18.34l-.87,1.14a14.61,14.61,0,0,1-1.83,1.92,3,3,0,0,0-.44.44l-.35.66a6.87,6.87,0,0,1-1.92,2,3.86,3.86,0,0,0-.61.48,4,4,0,0,0-.35.61,9.67,9.67,0,0,1-.57.92,9.85,9.85,0,0,1-1,1.36l-1.23,1.22a7.2,7.2,0,0,0-1.22,2.7c-.31,1-.59,1.54-.75,1.54s-.19-.1-.34-.27c-.87-1-1.61-1.57-2-1.57a1.22,1.22,0,0,0-.49.22,3.42,3.42,0,0,1-1.18.44l-1.61.3a3.41,3.41,0,0,0-2.4,1.31c-.17.19-.31.3-.38.3s-.23-.22-.23-.51l0-.41.22-1.18a9.75,9.75,0,0,1,.87-2.84l.74-1.35a1.5,1.5,0,0,0,.22-.71,2.37,2.37,0,0,0-2.31-2c-.32,0-.45-.1-.45-.28s.36-.66.84-1a5.33,5.33,0,0,1,2.75-1.14,6,6,0,0,1,2,.52l1,.39a2.58,2.58,0,0,0,1,.22c1,0,2-.93,3.22-3a4.59,4.59,0,0,0,.79-2.24c0-1.1-.52-1.78-1.39-1.78a2.79,2.79,0,0,0-1.89.83,2,2,0,0,0-.67,1.35l0,.49v.11c0,.41-.14.64-.38.64-.41,0-1-.59-2.73-2.67-1.28-1.55-1.56-2.21-1.62-3.76-1.48-1.89-1.85-2.69-1.85-4l.06-.9a4.18,4.18,0,0,1-1.31-3,2.25,2.25,0,0,1,.31-1.15,4.48,4.48,0,0,1-.83-1.7l-.22-.92a4.73,4.73,0,0,0-.7-1.62c-.4-.56-.44-.64-.44-.84,0-.51.35-.71,1.88-1.09a7.12,7.12,0,0,1-.09-1,5.33,5.33,0,0,1,.13-1l.3-1.62a8.69,8.69,0,0,0,.19-1.4,4.52,4.52,0,0,0-.32-1.39,4.78,4.78,0,0,0-.39-1,1.7,1.7,0,0,1-.27-.6c0-.15.11-.24.3-.24a7.28,7.28,0,0,1,2.76,1.67c2.51,2.08,3,2.91,3.37,5.41,0,.2.07.49.13.88a3.89,3.89,0,0,1,1.83,3.1,5.45,5.45,0,0,1-.87,2.8L148,157a2.65,2.65,0,0,0-.39,1.44,5.06,5.06,0,0,0,.83,2.62c.67,1.18,1.24,1.66,1.95,1.66,1.15,0,2.16-2,2.16-4.28v-1.09a11.17,11.17,0,0,1,.1-1.44q.12-1,.13-1.27l0-1.05v-.69a1.27,1.27,0,0,0-.45-.84l-1-1.05c-1.39-1.52-2.15-2.94-2.15-4a2.23,2.23,0,0,1,2.23-2.32,3.17,3.17,0,0,1,.93.17v-.3c0-1.93.4-3.35.92-3.35l.21.07.79.7,1,.61.26.26c0-.54,0-.6.57-1.23.13-.15.33-.43.61-.83s.37-.54.43-.65l.22-.39c.12-.22.23-.33.36-.33s.22.16.38.63c.1.3.17.38.92,1a2.84,2.84,0,0,1,.52.57,5.77,5.77,0,0,1,.35.87l.13.35a2.63,2.63,0,0,1,.87-.79l.66-.39a1.42,1.42,0,0,1,.48-.23c.05,0,.14.11.21.27s.19.37.35.66a3.34,3.34,0,0,1,.62,1.58v1a2.44,2.44,0,0,1,2,2.74,6.13,6.13,0,0,1-1.71,3.73c-.75.89-.84,1.07-.84,1.69,0,3.23,2.25,5.1,6.21,5.16l2.93,0a14.11,14.11,0,0,1,4.76.79,11.48,11.48,0,0,0,3.28.83,1,1,0,0,0,.56-.18.52.52,0,0,0,.26-.39c0-.61-1.07-1.1-4.59-2.1-7.21-2-10.27-4.94-10.27-9.71,0-3.69,3.07-6.54,7-6.54a15.28,15.28,0,0,1,4.37.75l1.79.66a2.76,2.76,0,0,0,.94.18c.61,0,.92-.51.94-1.54,0-.55.14-.74.5-.74s1.28.63,2,1.62a5.65,5.65,0,0,1,1.18,2.87,2.49,2.49,0,0,1-1.53,2.29,4.28,4.28,0,0,1-3.81,2.18c-1.26,0-3.06-.71-6-2.4a4.3,4.3,0,0,0-2.11-.78,1.14,1.14,0,0,0-1.27,1.13c0,.63.49,1,1.77,1.48,1.89.66,2.35.92,3.1,1.71a8.83,8.83,0,0,1,4.59,1.83c3.83,1.22,6.21,3.83,6.21,6.83a4.7,4.7,0,0,1-4.72,5,8.46,8.46,0,0,1-2.07-.26"/>
    <path class="g" d="M183,183a4.76,4.76,0,0,1-.16-1.05l0-.34.13-.7,0-.56a2.2,2.2,0,0,0-.31-1.31l-.53-.7a3.2,3.2,0,0,1-.43-.83,1.13,1.13,0,0,1-.09-.37.29.29,0,0,1,.32-.32c.12,0,.16,0,.56.25a.91.91,0,0,0,.43.15c.26,0,.4-.42.4-1.16a2.58,2.58,0,0,0-.26-1.52l-.66-.74-.57-.48a.59.59,0,0,1-.23-.38.32.32,0,0,1,.36-.32,3.62,3.62,0,0,1,1,.22l.2,0c.18,0,.25-.1.25-.36v-.16l-.13-.92-.26-1c-.09-.31-.13-.36-.33-.36h-.11l-1.09.22-.18,0a3.88,3.88,0,0,1-3.41-2.72l-.87-2.84a5.84,5.84,0,0,0-2.1-2.67,1.93,1.93,0,0,0-.87-.48l-.79-.09c-.14,0-.24-.1-.24-.22s.17-.26.54-.26l1.44.13a11.31,11.31,0,0,1,2.36.61,9.25,9.25,0,0,0,2.93.64c2.18,0,3.49-1.18,3.49-3.16a5.53,5.53,0,0,0-1.79-3.87,4,4,0,0,0-1.44-1,.22.22,0,0,0-.22.23l0,.56v.05c0,.22-.13.39-.3.39s-.47-.29-.75-.87c-.83-1.72-2.14-2.74-3.49-2.74-.23,0-.39.1-.39.23a2.27,2.27,0,0,0,.21.63l.35.79a1.49,1.49,0,0,1,.14.4s-.08.1-.19.1a1.26,1.26,0,0,1-.74-.41l-.65-.7-.57-.88a4,4,0,0,0-1.79-1.53l-1-.57a1.15,1.15,0,0,0-.54-.18.2.2,0,0,0-.23.23.93.93,0,0,0,.17.47,2.39,2.39,0,0,1,.45.88.25.25,0,0,1-.23.26c-.34,0-1-.69-1.67-1.61a4.46,4.46,0,0,1-.79-2.45,3.16,3.16,0,0,1,3.23-3.27,6.7,6.7,0,0,1,3.29,1.09l2.05,1.27a5.41,5.41,0,0,0,2.39.79,5.92,5.92,0,0,0,1.28-.22,2.08,2.08,0,0,0,.52-.22c.12-.07.21-.17.21-.25a.2.2,0,0,0-.12-.19l-.26-.09-1-.18a5.49,5.49,0,0,1-1.18-.44,20.84,20.84,0,0,1-2.19-1.09,8.54,8.54,0,0,0-1.44-.83c-.36-.12-.58-.28-.58-.42a.17.17,0,0,1,.2-.19,1,1,0,0,1,.47.17,3.37,3.37,0,0,0,1.62.61l1.88.65a11.54,11.54,0,0,0,2.91.61,1.44,1.44,0,0,0,1.43-1.44,3.81,3.81,0,0,0-.76-1.92c-.1-.14-.21-.22-.29-.22s-.27.13-.27.35l0,.35.07.52a.94.94,0,0,1-.87,1,2.33,2.33,0,0,1-.69-.14l-2.84-.91a14.63,14.63,0,0,0-4.67-1c-3.4,0-6,2.34-6,5.4,0,3.48,2.44,5.72,8.48,7.79s6.77,2.53,6.77,4.07a1.84,1.84,0,0,1-1.88,1.66,5.78,5.78,0,0,1-1-.09l-3-.7a22.1,22.1,0,0,0-5.44-.61c-4.29,0-6.66.75-8.72,2.76a1.42,1.42,0,0,1-1.28.58h-.29l-.61,0h-.08a1.38,1.38,0,0,0-1.23.79l-.74,1.18a.63.63,0,0,1-.5.26c-.39,0-.63-.3-1.07-1.35a3.71,3.71,0,0,0-.92-1.32l-.87-.79a.54.54,0,0,1-.22-.33.87.87,0,0,1,.17-.41,3.26,3.26,0,0,0,.61-1.14c.12-.58.13-.61.37-.61s.35.27.37,1.27a3.19,3.19,0,0,0,.35,1.18l.48,1a.42.42,0,0,0,.39.22c.45,0,1-1.06,1.18-2.19.13-.94.22-1.23.42-1.23a.23.23,0,0,1,.19.09c0,.06.18.32.39.79a1.76,1.76,0,0,0,.57.66,1.79,1.79,0,0,0,.52.31h.05c.35,0,.47-.23.56-1.06l0-.44-.09-.61-.06-.42c0-.28.1-.45.26-.45a.51.51,0,0,1,.33.17l.44.44a1.27,1.27,0,0,0,.86.44c.36,0,.59-.15.59-.39a2.27,2.27,0,0,0-.4-1l-.3-.57c-.35-.66-.63-.92-1-.92l-.44,0-.52.22a1.13,1.13,0,0,1-.34.1c-.08,0-.14-.07-.14-.17a4,4,0,0,1,.74-1.78,8.61,8.61,0,0,0,.7-3.43c.15-2.28.45-3.76.77-3.76s.3.18.3.67l0,.6,0,.42c0,.41.09.74.2.74.37,0,.82-.56,1.17-1.46a2.71,2.71,0,0,0,.23-.89l0-.2-.87-1.62-.87-.26a.49.49,0,0,1-.31-.2v-1.07L162,144l-.18-.44-.21-.48a4.92,4.92,0,0,0-1.75,1.31c-.34.46-.54.63-.71.63a.23.23,0,0,1-.21-.23,4.1,4.1,0,0,1,.13-.71l0-.24a3,3,0,0,0-1.51-2.46l-.26.35-.31.44-.52.61a2.54,2.54,0,0,0-.44.87,1.7,1.7,0,0,0-.09.5v.23c0,.36,0,.46-.2.46l-.11,0-.31-.43-.48-.53-.74-.48-.39-.3-.18.39a2.2,2.2,0,0,0-.22.7l0,.7,0,.74v.13c0,.38-.09.53-.32.53a1.56,1.56,0,0,1-.51-.22,1.27,1.27,0,0,0-.63-.18,1.09,1.09,0,0,0-1.12,1.21,3.83,3.83,0,0,0,.7,2.29l.56.74c.16.2.45.37.46.26l.11-.92-.13-.74,0-.33c0-.28.1-.46.26-.46s.4.27.55,1l.35,1.62.35,2.05a8.13,8.13,0,0,0,.52,1.75,9.11,9.11,0,0,0,.74,1.53c.49.62.54.71.54.85a.2.2,0,0,1-.19.2,1,1,0,0,1-.39-.13,1.81,1.81,0,0,0-.52-.18l-.34,0c-.7,0-.85.6-.85,3.52a17.73,17.73,0,0,0,.84,5.36l.92,2.32a2.9,2.9,0,0,1,.22,1.08c0,3.19-4.22,8.19-8.87,10.49a3.59,3.59,0,0,0-2.4,3.58l0,.57a5.9,5.9,0,0,1,1.48-.61c1.3-.34,1.55-.5,1.75-1.14l.17-.57c.07-.21.18-.29,1.18-.83a1.81,1.81,0,0,0,.7-.57c.22-.37.4-.56.52-.56s.17.05.17.14l0,.16-.43,1.25-.05.31a2.38,2.38,0,0,0,1.45,2.16,4,4,0,0,1,.57-1.83l.78-1.22a3.29,3.29,0,0,0,.41-1.87,8,8,0,0,0-.11-1.36l0-.35c0-.22.12-.35.31-.35s.27.05.29.13l.18.83a.41.41,0,0,0,.42.31c.42,0,1-.55,1.54-1.53a2.33,2.33,0,0,0,.32-1.16l-.07-.59-.13-.65v-.13c0-.29.16-.49.39-.49s.18,0,.19.09l.26,1a.68.68,0,0,0,.57.57c.29,0,.8-.51,1.09-1.09a3.87,3.87,0,0,0,.39-1.79c0-.93.1-1.2.44-1.2.11,0,.2,0,.22.1l.17.57c.07.21.19.35.31.35s.67-.53,1-1.09a.82.82,0,0,0,.13-.41c0-.19-.13-.38-.39-.6-.46-.38-.48-.44-.48-1a2.59,2.59,0,0,1,.48-1.53c.21-.37.4-.72.57-1.05.55-1.08.75-1.36,1-1.36a.37.37,0,0,1,.32.38.8.8,0,0,1-.09.36,1.49,1.49,0,0,0-.18.52.32.32,0,0,0,.32.31,1.71,1.71,0,0,0,.77-.26c.12-.07.53-.22,1.22-.48l1.44-.52a2.58,2.58,0,0,1,.87-.13,3.48,3.48,0,0,1,.78.09,6.17,6.17,0,0,0,1,.18.76.76,0,0,0,.75-.73,2.72,2.72,0,0,0-.7-1.33.76.76,0,0,1-.22-.4l.05-.17a.29.29,0,0,1,.23-.18c.29,0,1,.74,1.6,1.71,3.76,5.92,5.11,7.35,7.65,8.12s3.24,1.38,3.24,2.91a5.74,5.74,0,0,1-1.36,3.12c-1.9,2.66-2.36,3.74-2.36,5.49v.32l.48-.22a3.93,3.93,0,0,1,.7-.31l1.09-.22a.94.94,0,0,0,.62-.89V182l-.13-1v-.13a1.29,1.29,0,0,1,.4-.92.39.39,0,0,1,.23-.09.44.44,0,0,1,.34.27l.7,1.48A2.53,2.53,0,0,0,183,183"/>
    <path class="g" d="M147.8,151.32c-.32,0-.48.27-.52.87l-.09.83a7.4,7.4,0,0,0-.11,1.06c0,.62.19,1.09.44,1.09s.72-.53.93-1.14a2.92,2.92,0,0,0,.2-1,3,3,0,0,0-.2-1c-.16-.44-.4-.7-.66-.7"/>
    <path class="g" d="M144.19,144.94l.61.61c1,1,1.49,2.65,1.49,5,0,.52,0,.86-.14,2.25-.06.73-.09,1.33-.09,1.8,0,5.42,1.76,9.51,4.09,9.51.73,0,1.21-.35,1.9-1.4.11-.17.29-.32.39-.32s.21.11.21.36l.09,1,.09.83.09.92.13.83v.11a.36.36,0,0,1-.31.42L152,167a3.41,3.41,0,0,0-1.22.48,3.53,3.53,0,0,0-1.14.87l-.48,1a.35.35,0,0,1-.27.22c-.25,0-.66-.44-1.13-1.22a4.2,4.2,0,0,1-.64-1.43c0-.14.11-.19.38-.19h.08l.57,0,.35,0,.4,0a.31.31,0,0,0,.26-.31.28.28,0,0,0-.18-.26l-2-.83a3.06,3.06,0,0,1-1.48-1.44,5.9,5.9,0,0,1-.79-2c0-.27.14-.45.36-.45a.73.73,0,0,1,.3.1,1.77,1.77,0,0,0,.55.18.31.31,0,0,0,.32-.28.83.83,0,0,0-.35-.47c-1.64-1.19-2.58-2.56-2.58-3.74,0-.33.08-.49.25-.49l.32,0,.57.09h0a.35.35,0,0,0,.38-.34c0-.12-.15-.29-.36-.4l-.7-.39a1.91,1.91,0,0,1-.61-.61c-.07-.12-.32-.58-.74-1.4l-.61-1.18c-.23-.44-.36-.69-.4-.74a4.09,4.09,0,0,0-.26-.35,2.76,2.76,0,0,1,1.36-.36c.6,0,1,.39,1.4,1.45.26.67.56,1.12.72,1.12s.11-.15.11-.51a4.83,4.83,0,0,0-.18-1.3,3,3,0,0,1-.13-1l-.09-.61-.52-.26a1.17,1.17,0,0,1-.4-.44,1.87,1.87,0,0,1-.35-1,3.45,3.45,0,0,1,.13-.79,12.1,12.1,0,0,0,.57-2.86v-.38l.39.43Z"/>
    <path class="g" d="M149.43,176.44a4.91,4.91,0,0,1-1.27-.31l-.83-.35a4.41,4.41,0,0,0-1.67-.44,2.67,2.67,0,0,0-1.82.75l.39.3.87.61.83.65a1.16,1.16,0,0,0,.72.26c.86,0,1.6-.4,2.77-1.49"/>
    <path class="g" d="M166.25,184.39a2.47,2.47,0,0,1,.87-1.14c1.22-1,1.79-1.82,1.79-2.45v-1c0-.56.1-.74.39-.74a.28.28,0,0,1,.27.13l.22.52a.38.38,0,0,0,.37.2c.17,0,.42-.2.64-.51l.44-.61a1.32,1.32,0,0,0,.22-1.36l-.31-.7a2.06,2.06,0,0,1-.18-.68c0-.29.14-.46.39-.46a.39.39,0,0,1,.31.14l.35.43a.42.42,0,0,0,.33.15.6.6,0,0,0,.45-.37l.35-.7a1,1,0,0,0,.14-.39c0-.14-.14-.28-.4-.4l-.57-.26a3.16,3.16,0,0,1-1.32-2.8,1.29,1.29,0,0,1,.09-.48l.31-.74a1.77,1.77,0,0,0,.13-.7,2.48,2.48,0,0,0-.44-1.36q-.52-.81-.57-.92c-.26-.69-.39-.88-.6-.88l-.22.05-.31.17-.48.27-.57.7-.61.3a2,2,0,0,0-.71,1.61c0,1.14.13,1.45,1.63,4a5.42,5.42,0,0,1,.89,2.5q0,2.68-4.82,3.83l-2,.48a3.46,3.46,0,0,0-2.67,3.1,3.25,3.25,0,0,1,1.94-.36h.74c.58,0,.66,0,1-.57a3.31,3.31,0,0,1,1.44-1.22l.7-.31.57-.31.17,0c.16,0,.24.06.24.18a1.42,1.42,0,0,1-.41.74,2.3,2.3,0,0,0-.7,1.69,1.62,1.62,0,0,0,.48,1.15"/>
    <path class="g" d="M160.74,177.62a5,5,0,0,1,1.31,1.18c.42.57.48.61.89.61a2.73,2.73,0,0,0,.64-.09l.39-.09c.72-.14,1-.24,1-.42a.55.55,0,0,0-.22-.36l-.48-.44-.48-.44a2.36,2.36,0,0,0-1.44-.49,2.75,2.75,0,0,0-1.58.54"/>
    <path class="g" d="M174.9,180l.26,0,.4,0,.39,0h.19a1.91,1.91,0,0,0,1.9-1.69c0-.3-.27-.47-.77-.47-1.18,0-1.92.68-2.37,2.19"/>
    <path class="d" d="M158.61,149.79c0,.4.26.74.47.74s.4-.48.85-1.25a7.68,7.68,0,0,0,1.21-2.63c0-.19-.09-.33-.22-.33h0l-.48.44a3.88,3.88,0,0,1-1.49.79c-.49.19-.67.38-.67.74l.06.35.22.61.09.53Z"/>
    <path class="d" d="M155.94,147.52l.74.4a.49.49,0,0,1,.32.42l-.05.27a3,3,0,0,0,0,.93.74.74,0,0,1-.87.77c-.14,0-.07-.09-.41-.48l-1-1.09a4,4,0,0,1-.66-2v-.11c0-.24.08-.33.27-.33a1,1,0,0,1,.48.22l1.18,1Z"/>
    <path class="d" d="M157.64,152.11h-.24l-.5,0-.53-.31a1.24,1.24,0,0,0-.62-.17c-.4,0-.65.22-.65.55a6.25,6.25,0,0,0,.58,1.94l.57,1.4c.5,1.23,1,1.75,1.63,1.75s.65-.56,1-1.53c.87-2.2,1.36-2.52,1.36-3.3,0-.53-.12-.67-.6-.67l-.41-.1-.7.44-.92,0Z"/>
    <path class="g" d="M157.6,153.33H157a.26.26,0,0,0-.22.13l-.09.22.22,1.05.18.91c.1.5.28.7.66.7s.69-.29.74-.83l.09-1c.06-.64.09-1,.09-1a.38.38,0,0,0-.13-.27.33.33,0,0,0-.22-.09h0l-.7.13Z"/>
    <path class="d" d="M260.22,163.86l.18.65c.16.59.27,1.06.35,1.4.55,2.5,1,3.15,2.22,3.15a1.45,1.45,0,0,0,1.44-1l.26-.88a.41.41,0,0,1,.42-.32c.48,0,.73.52.76,1.58a20.78,20.78,0,0,0,.26,2.14,12.66,12.66,0,0,1,.18,2,3.05,3.05,0,0,1-.26,1.26l.08.52a8.74,8.74,0,0,1,.18,1.6c0,1.88-.09,2.43-.53,3.16a5.52,5.52,0,0,1,.23,1.57,13.09,13.09,0,0,1-.14,1.54l-.18,1.31,0,.79a2.39,2.39,0,0,1,.17.52.2.2,0,0,1-.17.22l-.87-.35-1-.52a4.49,4.49,0,0,1-1-.78,3.54,3.54,0,0,1-2,1.09,8.46,8.46,0,0,0-2.27.79,1.42,1.42,0,0,1-.61.3c-.34,0-.58-.66-.58-1.62a7.18,7.18,0,0,1,.31-2.66,5.55,5.55,0,0,0-1.59-.39,3.63,3.63,0,0,0-.64.09l-.2,0c-.13,0-.2-.16-.2-.42a5.27,5.27,0,0,1,.7-2,3.92,3.92,0,0,1,2.14-1.92l1.57-.3c.93-.18,1.49-.68,1.49-1.33s-.41-1-1.36-1.38l-1.83-.65a9.59,9.59,0,0,1-1.75-.83c-.46-.28-.78-.47-1-.57a1,1,0,0,0-.48-.13c-.39,0-.63.28-.63.75a1.32,1.32,0,0,0,1.27,1.35,1.18,1.18,0,0,0,.44-.09,1.42,1.42,0,0,1,.4-.13c.2,0,.34.19.34.47a5.5,5.5,0,0,1-1,2.76l-.52.66-.39.52a5.86,5.86,0,0,1-2.36,3.45,2.71,2.71,0,0,0-.48.35,6.83,6.83,0,0,0-.35.61,7.71,7.71,0,0,1-.88,1.05,8.22,8.22,0,0,1-1.09,1,4.14,4.14,0,0,0-.87.79l-.44.74a.39.39,0,0,1-.34.22c-.39,0-.75-.41-1-1.1-.16-.51-.3-.66-.63-.66a3.39,3.39,0,0,0-.76.13l-.61.08h-1.53a7,7,0,0,0-2.45.44,1.18,1.18,0,0,1-.45.14c-.23,0-.34-.23-.34-.67a8.06,8.06,0,0,1,2.45-4.85,1.86,1.86,0,0,0-1.18-1.48l-.79-.22a.24.24,0,0,1-.13-.21c0-.28.31-.56,1-.89a4.65,4.65,0,0,1,2.3-.7A3.52,3.52,0,0,1,246,177c1.18.92,1.51,1.1,2.08,1.1a1.89,1.89,0,0,0,1.82-1.75,4.07,4.07,0,0,0-1.15-2.32,5.62,5.62,0,0,1-1.57-3.71,4.18,4.18,0,0,1,.92-2.53,1.07,1.07,0,0,0,.18-.47c0-.24-.4-.46-.84-.46a4.67,4.67,0,0,0-1.83.53c-1.31.6-2.1,1.17-2.1,1.51a.47.47,0,0,0,.22.37l.44.31a.22.22,0,0,1,.09.18.72.72,0,0,1-.18.34q-.13.15-.88,1.14a10,10,0,0,1-1.83,1.92,1.69,1.69,0,0,0-.44.44l-.35.66a7.4,7.4,0,0,1-1.88,2,4.72,4.72,0,0,0-.61.48,3.93,3.93,0,0,0-.39.61,13.06,13.06,0,0,1-1.61,2.27l-1.18,1.22a8.8,8.8,0,0,0-1.27,2.7c-.36,1.06-.59,1.54-.75,1.54s-.2-.1-.34-.27c-.85-1-1.61-1.57-2-1.57a1.36,1.36,0,0,0-.51.22,3.61,3.61,0,0,1-1.18.44l-1.57.3a3.37,3.37,0,0,0-2.45,1.31c-.15.19-.28.3-.35.3s-.27-.23-.27-.53l0-.38s.09-.44.22-1.18a9.69,9.69,0,0,1,.87-2.84l.79-1.35a1.48,1.48,0,0,0,.22-.7c0-1-.94-1.82-2.36-2-.29,0-.44-.15-.44-.32s.34-.59.88-1a5,5,0,0,1,2.67-1.14,5.78,5.78,0,0,1,2,.52l1,.39a2.58,2.58,0,0,0,1,.22c1,0,2-.93,3.22-3a4.59,4.59,0,0,0,.79-2.25c0-1.11-.51-1.77-1.38-1.77a2.6,2.6,0,0,0-1.86.83,2.11,2.11,0,0,0-.72,1.4l0,.44,0,.23c0,.35-.12.51-.38.51s-.72-.32-1.47-1.23l-1.22-1.44c-1.33-1.55-1.6-2.18-1.66-3.76-1.48-1.89-1.85-2.94-1.85-4l.06-.9a3.84,3.84,0,0,1-1.27-3,2,2,0,0,1,.26-1.17,4.46,4.46,0,0,1-.83-1.7l-.22-.92a4.74,4.74,0,0,0-.7-1.62c-.39-.56-.44-.65-.44-.81,0-.46.44-.75,1.53-1l.35-.09a7.54,7.54,0,0,1-.09-1,5.62,5.62,0,0,1,.13-1l.31-1.62a8.64,8.64,0,0,0,.18-1.43,4.32,4.32,0,0,0-.27-1.36,3.77,3.77,0,0,0-.44-1,1.21,1.21,0,0,1-.26-.58c0-.15.15-.26.35-.26a1,1,0,0,1,.44.14,17,17,0,0,1,4.24,3.36c1,1.1,1.31,2,1.53,4.46a3.72,3.72,0,0,1,1.84,3.31,4.64,4.64,0,0,1-.88,2.58c-.53.82-.83,1.27-.87,1.35a2.89,2.89,0,0,0-.4,1.48,5.09,5.09,0,0,0,.83,2.58c.65,1.16,1.24,1.66,1.93,1.66,1.14,0,2.18-2,2.18-4.16V157l.13-1,.09-1.27.09-1.05,0-.58c0-.43-.09-.55-1.43-2-1.48-1.59-2.18-2.93-2.18-4.17a2.21,2.21,0,0,1,2.22-2.16,3.17,3.17,0,0,1,.92.17v-.52l0-.92.26-1.13c.21-.91.31-1.07.62-1.07l.21.07.79.7,1,.61.26.26a1.79,1.79,0,0,1,.57-1.23c.23-.28.43-.56.61-.83l.44-.65.26-.39c.18-.26.25-.33.36-.33s.2.15.34.64a1.23,1.23,0,0,0,.39.57l.57.48a3.17,3.17,0,0,1,1,1.79,2.59,2.59,0,0,1,.87-.79l.7-.39a1.8,1.8,0,0,1,.46-.22s.12.11.19.26a4.62,4.62,0,0,0,.35.66c.56.91.61,1,.61,1.65V145a2.39,2.39,0,0,1,2,2.72,6,6,0,0,1-1.66,3.74c-.75.9-.87,1.18-.87,1.85,0,3.08,2.32,4.95,6.25,5l2.88,0a14.14,14.14,0,0,1,4.76.79,11.49,11.49,0,0,0,3.29.83c.45,0,.81-.25.81-.55,0-.63-1.06-1.12-4.59-2.12-7.2-2-10.27-4.94-10.27-9.71,0-3.69,3.08-6.54,7.07-6.54a15.23,15.23,0,0,1,4.34.74l1.79.66a2.75,2.75,0,0,0,.94.18c.62,0,.85-.39.94-1.54,0-.51.2-.74.53-.74s1.35.72,2,1.62a5.8,5.8,0,0,1,1.14,2.93,2.49,2.49,0,0,1-1.53,2.23,4.27,4.27,0,0,1-3.81,2.18c-1.24,0-3.36-.84-6-2.4a3.94,3.94,0,0,0-2.09-.78,1.14,1.14,0,0,0-1.29,1.13c0,.63.47,1,1.76,1.48,2.07.74,2.51,1,3.1,1.71a8.82,8.82,0,0,1,4.59,1.83c4,1.28,6.21,3.74,6.21,6.89a4.64,4.64,0,0,1-4.65,4.95,8.45,8.45,0,0,1-2.12-.26"/>
    <path class="g" d="M264.54,183a3.06,3.06,0,0,1-.14-.8l0-.59a11.79,11.79,0,0,0,.14-1.7,1.37,1.37,0,0,0-.32-.88l-.53-.7a1.91,1.91,0,0,1-.48-1.19c0-.25.06-.34.23-.34l.2,0,.39.22a1,1,0,0,0,.44.15q.4,0,.4-1.23a2.35,2.35,0,0,0-.87-2.2l-.61-.48a.48.48,0,0,1-.18-.36.31.31,0,0,1,.32-.35,2.24,2.24,0,0,1,.51.09l.48.13.19,0c.15,0,.22-.12.22-.37v-.15l-.13-.92c-.14-1-.3-1.32-.58-1.32h-.08l-1.14.22-.19,0a4,4,0,0,1-3.39-2.72l-.83-2.84a5.87,5.87,0,0,0-2.1-2.67,2,2,0,0,0-.92-.48l-.78-.09c-.14,0-.24-.1-.24-.21s.15-.27.47-.27a12.32,12.32,0,0,1,3.87.74,9.5,9.5,0,0,0,2.92.64c2.19,0,3.5-1.14,3.5-3a5.9,5.9,0,0,0-.83-2.9,7,7,0,0,0-2.06-1.92.69.69,0,0,0-.34-.14.22.22,0,0,0-.22.22l0,.57v.05c0,.21-.12.39-.28.39s-.49-.28-.77-.87c-.8-1.71-2.1-2.74-3.44-2.74-.29,0-.46.1-.46.28a1.28,1.28,0,0,0,.23.58,5,5,0,0,1,.39.79,1.2,1.2,0,0,1,.11.37c0,.08-.07.13-.2.13a1.25,1.25,0,0,1-.74-.41l-.66-.7-.57-.88a4.18,4.18,0,0,0-1.75-1.53l-1.1-.57a1.3,1.3,0,0,0-.56-.18.18.18,0,0,0-.2.2,1,1,0,0,0,.2.5,2.23,2.23,0,0,1,.4.87.24.24,0,0,1-.22.26c-.31,0-.85-.55-1.63-1.61a4.15,4.15,0,0,1-.84-2.45,3.22,3.22,0,0,1,3.24-3.27,6.72,6.72,0,0,1,3.27,1.09l2.1,1.27a5.42,5.42,0,0,0,2.4.79,4,4,0,0,0,1.23-.22,2.22,2.22,0,0,0,.57-.22.32.32,0,0,0,.16-.26c0-.17-.11-.25-.38-.27a12.38,12.38,0,0,1-4.32-1.71,11.18,11.18,0,0,0-1.44-.83c-.36-.13-.6-.31-.6-.47s.07-.11.19-.11l.25,0,1.9.7,1.83.65a11.53,11.53,0,0,0,2.94.61,1.34,1.34,0,0,0,1.4-1.4,2.78,2.78,0,0,0-.28-1.22c-.27-.52-.61-1-.76-1s-.26.17-.26.47l0,.23.06.56c0,.59-.32,1-.83,1a2.39,2.39,0,0,1-.71-.14l-2.84-.91a14.05,14.05,0,0,0-4.64-1c-3.43,0-6,2.32-6,5.4,0,3.48,2.39,5.67,8.52,7.79,5.95,2.06,6.72,2.53,6.72,4.1a1.77,1.77,0,0,1-1.9,1.62,5.57,5.57,0,0,1-1-.09l-3-.7a21.44,21.44,0,0,0-5.43-.61c-4.33,0-6.42.66-8.68,2.76a1.54,1.54,0,0,1-1.32.58H242l-.69,0a1.37,1.37,0,0,0-1.24.79l-.7,1.18a.57.57,0,0,1-.5.26c-.45,0-.69-.3-1.12-1.35a3.37,3.37,0,0,0-.87-1.32l-.92-.79c-.14-.12-.22-.23-.22-.32A.91.91,0,0,1,236,161a4.35,4.35,0,0,0,.39-.61,1.75,1.75,0,0,0,.22-.53l0-.39a.31.31,0,0,1,.31-.22c.29,0,.34.19.35,1.27a3.13,3.13,0,0,0,.35,1.18l.48,1a.42.42,0,0,0,.4.22c.46,0,1-1.06,1.18-2.19.13-.93.23-1.23.42-1.23s.26.11.63.88a2.07,2.07,0,0,0,.52.66,1.29,1.29,0,0,0,.52.31h0c.36,0,.48-.22.57-1.05l0-.44-.09-.61-.06-.42c0-.28.1-.45.26-.45a.51.51,0,0,1,.33.17l.44.44a1.26,1.26,0,0,0,.88.44c.37,0,.61-.16.61-.43s0-.32-.44-1c0-.06-.14-.25-.31-.57-.39-.74-.57-.92-.91-.92l-.44,0-.57.22a1.26,1.26,0,0,1-.35.1c-.07,0-.13-.08-.13-.18a3.94,3.94,0,0,1,.74-1.78,10,10,0,0,0,.74-3.43l.22-2.05c.13-1.26.27-1.71.52-1.71.09,0,.17,0,.18.09l.13.65V149a2.39,2.39,0,0,0,.15,1.15c.19,0,.46-.22.72-.59a3.16,3.16,0,0,0,.44-.87,4.14,4.14,0,0,0,.22-1.15c0-1-.43-1.44-1.79-1.83a.49.49,0,0,1-.26-.13l0-.39v-.74l-.09-.53-.17-.44-.22-.48-.35.22a4.63,4.63,0,0,0-1.4,1.09c-.4.5-.53.63-.7.63a.2.2,0,0,1-.21-.19l.17-.75,0-.13a3.25,3.25,0,0,0-1.5-2.58l-.31.35-.31.44-.52.61a2.05,2.05,0,0,0-.49,1.3v.29c0,.35-.05.46-.21.46l-.1,0-.35-.43-.44-.53-.79-.48-.39-.3a3.65,3.65,0,0,0-.44,2.19v.37c0,.39-.13.63-.34.63A1.36,1.36,0,0,1,234,146a1.35,1.35,0,0,0-.65-.18,1.16,1.16,0,0,0-1.1,1.28,3.81,3.81,0,0,0,.7,2.22c.34.57.8,1,1,1a5.29,5.29,0,0,0,.13-.94l-.13-.74,0-.33c0-.28.1-.46.26-.46s.4.27.55,1l.35,1.62.35,2.05a8.15,8.15,0,0,0,.53,1.75,8.88,8.88,0,0,0,.74,1.53c.48.62.54.71.54.85a.2.2,0,0,1-.19.2,1,1,0,0,1-.4-.13,1.78,1.78,0,0,0-.52-.18l-.32,0c-.72,0-.87.58-.87,3.48a17.78,17.78,0,0,0,.84,5.39l.92,2.32a2.93,2.93,0,0,1,.22,1.09c0,3.19-4.32,8.3-8.87,10.49-1.77.85-2.3,1.74-2.45,4.15a8.32,8.32,0,0,1,1.53-.61c1.29-.36,1.56-.54,1.75-1.14l.18-.57c.08-.24.24-.36,1.14-.83a1.78,1.78,0,0,0,.7-.57c.23-.38.4-.56.52-.56s.19.08.19.23v.07l-.48,1.25L231,181a2.39,2.39,0,0,0,1.45,2.16c.06-.23.1-.4.13-.52a4.77,4.77,0,0,1,.44-1.31l.83-1.22c.3-.44.35-.73.35-1.86l-.05-1.37,0-.35c0-.23.11-.35.31-.35s.28.06.29.13l.13.83a.41.41,0,0,0,.43.31c.42,0,1-.54,1.54-1.53a2,2,0,0,0,.31-1,10,10,0,0,0-.14-1.36l0-.26a.32.32,0,0,1,.33-.35c.11,0,.2,0,.21.08l.31,1c.1.34.33.57.57.57.67,0,1.36-1.37,1.44-2.84,0-.92.16-1.24.44-1.24a.21.21,0,0,1,.22.11l.17.57c.06.21.19.35.31.35s.33-.19.61-.52a4.3,4.3,0,0,0,.39-.57,1,1,0,0,0,.13-.46c0-.22,0-.28-.39-.55a1.11,1.11,0,0,1-.48-.92,5.65,5.65,0,0,1,1-2.67c.71-1.23.81-1.37,1-1.37a.33.33,0,0,1,.29.37.9.9,0,0,1-.09.38,1.64,1.64,0,0,0-.18.52.33.33,0,0,0,.35.31,1.77,1.77,0,0,0,.79-.26,9.39,9.39,0,0,1,1.18-.48l1.48-.52a3,3,0,0,1,.9-.13,3.39,3.39,0,0,1,.76.09,5.61,5.61,0,0,0,1,.18.69.69,0,0,0,.7-.69,1.85,1.85,0,0,0-.27-.76c-.22-.36-.36-.57-.39-.61-.19-.2-.27-.31-.27-.39l0-.18a.29.29,0,0,1,.25-.18c.35,0,1,.71,1.63,1.71,3.43,5.59,5.09,7.36,7.6,8.12s3.24,1.35,3.24,2.91A5.73,5.73,0,0,1,261,178c-1.75,2.43-2.36,3.84-2.36,5.46v.36l.48-.22a3.86,3.86,0,0,1,.7-.31l1.09-.22a.92.92,0,0,0,.62-.92V182l-.08-1v-.15c0-.54.26-1,.59-1a.43.43,0,0,1,.33.27l.7,1.48a2.51,2.51,0,0,0,1.53,1.31"/>
    <path class="g" d="M228.72,153l0,.7v.43c0,.71.11,1,.38,1s.74-.54.95-1.14a4.44,4.44,0,0,0,.22-1.18A2.18,2.18,0,0,0,230,152c-.2-.48-.4-.7-.64-.7s-.55.48-.63,1.7"/>
    <path class="g" d="M225.71,144.94l.61.61a6.79,6.79,0,0,1,1.51,4.47l0,.73-.13,2.05,0,1.72c0,5.71,1.66,9.6,4.1,9.6a2.62,2.62,0,0,0,1.88-1.4c.11-.18.26-.32.35-.32s.21.12.22.36l.09,1,.08.83c0,.39.09.7.13.92a5.46,5.46,0,0,1,.13.86c0,.44-.09.49-1.14.63a3,3,0,0,0-1.22.48,4.36,4.36,0,0,0-1.14.87l-.48,1a.34.34,0,0,1-.28.22c-.26,0-.6-.39-1.08-1.22a4.21,4.21,0,0,1-.64-1.42c0-.14.11-.2.38-.2h.09l.52,0,.39,0,.35,0a.33.33,0,0,0,.26-.32.27.27,0,0,0-.18-.24l-2-.83a3.62,3.62,0,0,1-1.44-1.44,4.5,4.5,0,0,1-.8-1.9c0-.31.13-.51.34-.51a.7.7,0,0,1,.32.1,1.64,1.64,0,0,0,.51.18.42.42,0,0,0,.23-.09.3.3,0,0,0,.13-.21c0-.13-.13-.29-.35-.45-1.64-1.16-2.63-2.57-2.63-3.73,0-.34.08-.5.25-.5l.32,0a4.45,4.45,0,0,0,.61.09c.24,0,.4-.13.4-.34s-.16-.29-.4-.4c-1.09-.54-1.36-.86-2.05-2.41a9.8,9.8,0,0,0-1.27-2.27,2.74,2.74,0,0,1,1.36-.36c.6,0,1,.39,1.4,1.45.27.67.56,1.12.72,1.12s.11-.14.11-.5a5,5,0,0,0-.18-1.31,2.83,2.83,0,0,1-.13-1l-.09-.61-.48-.26a1.63,1.63,0,0,1-.74-1.43,3.45,3.45,0,0,1,.09-.79l.26-1a8.51,8.51,0,0,0,.31-1.85v-.38l.39.43Z"/>
    <path class="g" d="M230.95,176.44a6.45,6.45,0,0,1-2.09-.65,4,4,0,0,0-1.64-.44,2.69,2.69,0,0,0-1.86.75l.39.3.88.61.83.65a1.17,1.17,0,0,0,.73.26c.86,0,1.58-.39,2.76-1.49"/>
    <path class="g" d="M247.77,184.39a2.53,2.53,0,0,1,.87-1.14c1.22-1,1.79-1.82,1.79-2.45v-1c0-.56.09-.74.38-.74a.28.28,0,0,1,.27.13l.22.52a.38.38,0,0,0,.37.2c.31,0,.53-.22,1.07-1.11a1.66,1.66,0,0,0,.32-.87,1.32,1.32,0,0,0-.1-.49l-.31-.7a2.12,2.12,0,0,1-.18-.68c0-.29.15-.46.39-.46a.4.4,0,0,1,.32.14l.35.43c.08.09.1.15.23.15a.75.75,0,0,0,.56-.37l.35-.7a1,1,0,0,0,.13-.4c0-.15-.14-.3-.35-.39l-.61-.26a3.11,3.11,0,0,1-1.31-2.71,1.93,1.93,0,0,1,.13-.57l.26-.74a2.17,2.17,0,0,0,.13-.73,2.43,2.43,0,0,0-.44-1.33,9,9,0,0,1-.53-.92c-.25-.65-.4-.87-.62-.87a1.1,1.1,0,0,0-.56.21l-.44.27-.61.7-.61.3a2.09,2.09,0,0,0-.71,1.63c0,.94.21,1.46,1.63,4a5.54,5.54,0,0,1,.89,2.49c0,1.78-1.81,3.24-4.78,3.85-3.54.73-4.31,1.31-4.72,3.58a3.26,3.26,0,0,1,1.94-.36h.74c.58,0,.66,0,1-.57a3.27,3.27,0,0,1,1.44-1.22l.7-.31.57-.31.18,0c.16,0,.24.06.24.18a1.54,1.54,0,0,1-.42.74,2.52,2.52,0,0,0-.67,1.44,2.1,2.1,0,0,0,.45,1.4"/>
    <path class="g" d="M242.26,177.62a5,5,0,0,1,1.31,1.18c.42.57.48.61.89.61a2.76,2.76,0,0,0,.64-.09l.39-.09c.74-.14,1-.25,1-.45a.46.46,0,0,0-.18-.34l-.52-.44-.48-.44a2.35,2.35,0,0,0-1.38-.48,3,3,0,0,0-1.64.53"/>
    <path class="g" d="M256.42,180l.26,0,.44,0,.35,0h.24a1.29,1.29,0,0,0,.86-.19,3.53,3.53,0,0,0,.83-1,1,1,0,0,0,.17-.5c0-.29-.27-.47-.75-.47-1.2,0-1.93.67-2.4,2.19"/>
    <path class="d" d="M240.12,149.79c0,.41.26.74.48.74s.47-.63.93-1.39a6.78,6.78,0,0,0,1.13-2.49c0-.18-.1-.33-.22-.33h0l-.48.44a5,5,0,0,1-1.44.78c-.56.2-.72.37-.72.74l.06.35.36.76-.06.38Z"/>
    <path class="d" d="M236.28,146.56a1,1,0,0,0-.49-.22c-.19,0-.26.1-.26.32v.13a5,5,0,0,0,.17.74,3.8,3.8,0,0,0,.57,1.22l.66,1.1a2.27,2.27,0,0,0,.95.6h0a.22.22,0,0,0,.23-.18l.14-.87.22-.79,0-.19a.58.58,0,0,0-.33-.51l-.74-.4-1.18-1Z"/>
    <path class="d" d="M239.16,152.11h-.23l-.51,0-.53-.31a1.21,1.21,0,0,0-.61-.17.6.6,0,0,0-.64.67,6,6,0,0,0,.56,1.82q.24.55.57,1.4c.48,1.22,1,1.75,1.64,1.75s1-.46,1.38-1.39l.48-2c.23-.61.81-.87.81-1.3a1.11,1.11,0,0,0-1-1l-.25,0-.65.44-1,0Z"/>
    <path class="g" d="M239.12,153.33h-.53a.28.28,0,0,0-.22.13,1.05,1.05,0,0,0-.13.22l.22,1.05.18.91c.1.5.18.7.56.7a.83.83,0,0,0,.84-.83l.09-1c.06-.64.09-1,.09-1a.38.38,0,0,0-.13-.27.34.34,0,0,0-.23-.09h0l-.7.13Z"/>
    <path class="d" d="M179.53,246.34a6.73,6.73,0,0,1,.57,2.06l.09,1.83c.07,1.84.68,2.75,1.83,2.75a1.37,1.37,0,0,0,1-.3l.48-.48.19-.06c.31,0,.47.2.47.57l-.05.71a9.94,9.94,0,0,0,.17,2,11.87,11.87,0,0,1,.13,1.76,4.65,4.65,0,0,1-.4,2.13,8.3,8.3,0,0,1,.48,2.64,3.54,3.54,0,0,1-.52,2.12,5.84,5.84,0,0,1,.22,1.48,10.28,10.28,0,0,1-.18,1.66,9.16,9.16,0,0,0-.18,2.09v.11c0,.28-.08.41-.25.41a.79.79,0,0,1-.54-.35c-.27-.34-.44-.47-.64-.47s-.4.16-.85,1.47a5.77,5.77,0,0,1-1,1.62,3.73,3.73,0,0,0-.79,1.27c-.14.52-.23.83-.26.92a.35.35,0,0,1-.26.22h-.06c-.72,0-1.54-1.54-2.39-4.46-.24-.83-.54-1.19-1-1.19a.87.87,0,0,0-.76.49l-.26.61a.27.27,0,0,1-.23.18c-.35,0-.88-.64-1.21-1.44a5.54,5.54,0,0,1-.43-2c0-1.37,1-2.39,4.05-4.11a3.37,3.37,0,0,0,1.84-3.4,3.32,3.32,0,0,0-1.57-3,3.51,3.51,0,0,0-1.95-1,.69.69,0,0,0-.74.63c0,.41.24.66.81.86s1,.48,1,.78a4.15,4.15,0,0,1-.75,1.58,4,4,0,0,1-1.4,1.44,4,4,0,0,1-2.1,2.84,4.62,4.62,0,0,1-.87,1.62l-.92,1.18a3.82,3.82,0,0,0-.65,1.35c-.1.66-.16.79-.41.79s-1.06-.62-1.77-1.53a2.12,2.12,0,0,1-.57-1.44,2.24,2.24,0,0,1-1.49.52,3.69,3.69,0,0,0-1.18.31,3.36,3.36,0,0,1-1,.45c-.18,0-.24-.1-.26-.4l0-1a6.8,6.8,0,0,1,1.31-3.89,4.33,4.33,0,0,0-2.14-1.14c-.26,0-.33-.06-.33-.16a1.77,1.77,0,0,1,.41-.81,6.67,6.67,0,0,1,.79-.87,4.33,4.33,0,0,1,2.53-.92,7.93,7.93,0,0,1,2.49.61,3,3,0,0,0,1,.22c.48,0,.75-.31.75-.86a11.76,11.76,0,0,0-1.27-4,8,8,0,0,1-.86-2.88c0-1.51.71-3.09,1.61-3.54a1.81,1.81,0,0,0-1-.27,2.46,2.46,0,0,0-1.34.44c-.65.38-1,.71-1,.93s.13.22.35.38.4.32.4.65a5,5,0,0,1-2.14,3.46,3.85,3.85,0,0,1-2.36,3.1,4.25,4.25,0,0,1-1,2,7.57,7.57,0,0,0-1.62,3c-.11.47-.21.66-.36.66s-.57-.29-1-.75a7.34,7.34,0,0,1-.7-.84,4.09,4.09,0,0,1-.48-1.39,1.84,1.84,0,0,1-.63.11l-.64,0h-.44a5.4,5.4,0,0,0-2.49.53,1,1,0,0,1-.38.18c-.28,0-.51-.59-.51-1.32a7,7,0,0,1,1.46-4.31,7.43,7.43,0,0,1-.83-.79,1.44,1.44,0,0,0-.35-.31l-.48-.26c-.17-.09-.26-.2-.26-.28s.64-.84,1.4-1.33a4,4,0,0,1,2.12-.79c.72,0,1.1.18,2,1,.62.54,1,.79,1.34.79a.83.83,0,0,0,.62-.4,1.1,1.1,0,0,0,.23-.65,4.72,4.72,0,0,0-2.1-3,4.78,4.78,0,0,0-2.6-.83,2.94,2.94,0,0,0-2.73,1.57l-.48,1c-.11.23-.25.36-.42.36s-.43-.13-1.42-1.27L148.25,247a3.5,3.5,0,0,1-.7-1.13,2.62,2.62,0,0,0-.22-.57,2.48,2.48,0,0,0-.43-.35,5.71,5.71,0,0,1-1.88-3.62c0-.13-.07-.32-.13-.57a7.22,7.22,0,0,1-1.71-4.34,1.91,1.91,0,0,1,.1-.6c-.62-.63-.69-.78-1.18-2.45a6.16,6.16,0,0,0-1-2.27.75.75,0,0,1-.18-.34c0-.24.37-.43,1-.54a4.13,4.13,0,0,1,.88-.1l.87.06-.06-1.2a8.41,8.41,0,0,1,.23-2,5.32,5.32,0,0,0,.13-.91c0-.08,0-.33-.09-.75a3.84,3.84,0,0,0-.13-.65,1.12,1.12,0,0,1-.09-.37c0-.14.09-.22.26-.22a1.52,1.52,0,0,1,.58.19,10.91,10.91,0,0,1,1.88,1.14c1.51,1.18,2.69,3,2.69,4.12l0,.34c-.06.39-.09.61-.09.64a1.31,1.31,0,0,0,.31.71l.48.66a3.33,3.33,0,0,1,.7,1.71c0,.41-.09.59-.79,1.61a3.33,3.33,0,0,0-.75,2,5.91,5.91,0,0,0,.88,2.76c.51.91,1.11,1.4,1.68,1.4,1,0,1.4-.86,1.55-3.2.08-1.21.2-2.31.35-3.32l0-.6c0-.27-.08-.43-.44-.85l-1.31-1.52c-1.25-1.46-1.63-2.21-1.63-3.26a1.89,1.89,0,0,1,1.93-2l.52,0v-.34a4.62,4.62,0,0,1,.22-1.19c.27-.94.62-1.66.8-1.66a1.18,1.18,0,0,1,.42.22,6.48,6.48,0,0,0,.79.3,5.25,5.25,0,0,1,.87.43,3.86,3.86,0,0,1,.7-1.53c.56-.73,1.2-1.31,1.43-1.31s.39.19.71.52l.83.88a3.16,3.16,0,0,1,.48.83l.17.39.52-.3c.34-.21.58-.34.7-.39l.83-.39a1.27,1.27,0,0,1,.45-.23c.15,0,.23.26.56,1.71a10,10,0,0,1,.31,1.92,2.18,2.18,0,0,1,2.05,2.49c0,1.41-.69,2.81-2.18,4.4a1.33,1.33,0,0,0-.51,1.05c0,3.86,1.34,5.08,6.19,5.59a30.83,30.83,0,0,1,7.42,1.57,14.78,14.78,0,0,0,3.65.79c.82,0,1.29-.3,1.29-.83,0-.81-.59-1.06-4.07-1.8-8.09-1.7-11.27-4.47-11.27-9.81a6.5,6.5,0,0,1,6.65-6.66c1.68,0,3.17.51,5.54,1.88,2.2,1.28,2.65,1.49,3.16,1.49s.82-.38.82-1.32c0-.61.18-.91.57-.91a2.28,2.28,0,0,1,1.35.92,3.16,3.16,0,0,1,1,2.48,3,3,0,0,1-2.49,3.07l-.39.43a3.59,3.59,0,0,1-3.12,1.35,7.27,7.27,0,0,1-3.87-1.27l-2.1-1.48a3.87,3.87,0,0,0-2.2-.92,1.31,1.31,0,0,0-1.43,1.43,2,2,0,0,0,1.53,1.89l2,.61a10.09,10.09,0,0,1,1.88.79,6.3,6.3,0,0,1,1-.09,8.3,8.3,0,0,1,3.69.92,5.42,5.42,0,0,0,.79.35l1.09.31a6.7,6.7,0,0,1,4.5,6.18c0,3.09-2,5-5.24,5l-1,0Z"/>
    <path class="g" d="M178.79,272.29l.26-.53.61-.66a3.24,3.24,0,0,0,.79-2.26,4.79,4.79,0,0,0-.23-1.41,3.54,3.54,0,0,1-.18-.77c0-.28.21-.54.42-.54a.53.53,0,0,1,.33.22l.65.74a1.53,1.53,0,0,0,1.05.66l0-.61,0-.72a5.1,5.1,0,0,0-1-3,2,2,0,0,1-.51-.87c0-.16.12-.31.24-.31a.37.37,0,0,1,.18.09c.42.31.64.44.75.44s.4-.53.4-1.1a4.06,4.06,0,0,0-.89-2.44c-.28-.34-.46-.56-.52-.65a.42.42,0,0,1-.09-.25.34.34,0,0,1,.38-.32.9.9,0,0,1,.54.22.68.68,0,0,0,.34.13c.34,0,.46-.48.46-1.78v-.54l0-.79c0-.92-.13-1.09-.52-1.09H182c-2.13,0-3.12-1.35-3.67-5-.4-2.63-1.38-4.49-2.58-4.89-.72-.24-1-.4-1-.59s.2-.24.42-.24a2.92,2.92,0,0,1,.82.22,12.22,12.22,0,0,0,4.49,1,3.59,3.59,0,0,0,3.74-3.49,6,6,0,0,0-2-4.24,2.48,2.48,0,0,0-1.09-.66h-.08l-.22.07.09.63.17.44,0,.18a.19.19,0,0,1-.21.17.39.39,0,0,1-.32-.18l-.79-1.18a4.15,4.15,0,0,0-3-1.71c-.36,0-.59.16-.59.41a1,1,0,0,0,.27.51,1.52,1.52,0,0,1,.4.7l0,.18c0,.1-.11.17-.17.17h0c-.21,0-.31-.1-1.27-1.18a5.61,5.61,0,0,0-3.22-1.76.46.46,0,0,0-.32.14.29.29,0,0,0-.09.17.8.8,0,0,0,.31.49,1.5,1.5,0,0,1,.49.67c0,.09-.11.16-.25.16s-.81-.36-1.86-1.18c-1.63-1.28-2.36-2.49-2.36-3.89a2.86,2.86,0,0,1,2.75-3,5.41,5.41,0,0,1,2.93,1.05L175.9,230a5.65,5.65,0,0,0,3.44,1.14,1.65,1.65,0,0,0,.76-.18c.19-.1.31-.21.31-.29s-.16-.13-.4-.19a4.94,4.94,0,0,1-1.83-.79L176,228.08a14.73,14.73,0,0,0-1.71-1.18c-1.15-.61-1.38-.75-1.38-.88s.11-.13.25-.13a1,1,0,0,1,.38.09l1.14.48a13,13,0,0,1,1.83,1.09c2.34,1.56,3.53,2.06,4.9,2.06a2.17,2.17,0,0,0,2.27-2.19,1.71,1.71,0,0,0-.18-.75l-.22-.43c-.08-.16-.22-.27-.26-.22l-.13.17-.13.92a1.85,1.85,0,0,1-.13.31,1.54,1.54,0,0,1-.3.44,1,1,0,0,1-.8.31c-.67,0-1.43-.36-3.48-1.67a10.8,10.8,0,0,0-5.42-2,5.67,5.67,0,0,0-5.68,5.67c0,4.37,2.67,6.35,11,8.18,3.19.69,4.59,1.63,4.59,3s-1,2.11-2.71,2.11a6.32,6.32,0,0,1-1.18-.09q-.42-.09-4.5-1.23a22.68,22.68,0,0,0-5.83-.81c-3.29,0-5.5,1-7,3.09-.18.25-.35.4-.46.4a.69.69,0,0,1-.37-.18l-.61-.48a3,3,0,0,0-1.57-.6,1.37,1.37,0,0,0-.92.38,1.11,1.11,0,0,1-.44.3c-.25,0-.69-.55-1-1.26a7,7,0,0,1-.75-3c0-.44.14-.74.33-.74s.27.12.33.35l.35,1.27c.2.71.59,1.27.89,1.27.13,0,.37-.19.64-.52a2.05,2.05,0,0,0,.35-.61c.27-.8.34-.92.56-.92s.39.16.56,1a2.7,2.7,0,0,0,.29.75,4,4,0,0,0,.52.79.63.63,0,0,0,.45.22c.38,0,.74-.64.74-1.35v-.19l-.05-.81c0-.31,0-.41.22-.41s.18.05.31.21a2.3,2.3,0,0,0,.74.61,1.48,1.48,0,0,0,.62.22.68.68,0,0,0,.42-.22.5.5,0,0,0,.18-.34c0-.13-.16-.33-.62-.79a5.59,5.59,0,0,1-.87-1.75c-.12-.34-.29-.58-.41-.58a1.26,1.26,0,0,0-.29.09l-.57.22-.39.17-.15,0a.32.32,0,0,1-.34-.3,2.66,2.66,0,0,1,.88-1,1.6,1.6,0,0,0,.57-1.18c0-.73.16-1.31.31-1.31l.13-1.53a15.69,15.69,0,0,1,.65-3c.05-.16.12-.27.18-.27s.23.33.23.69v.23l0,.44c0,.55.09.84.26.84s.41-.28.6-.76l.39-1a2.3,2.3,0,0,0,.18-.82,1.31,1.31,0,0,0-1.22-1.47l-.32.05a1.51,1.51,0,0,1-.31.09.51.51,0,0,1-.42-.55l0-.63,0-.87-.18-.92,0-.44-.39.22-.48.39-.7.57-.57.48a.51.51,0,0,1-.32.13c-.33,0-.37-.09-.37-.77v-.17c0-.55-.24-1-1.13-2l-.22-.26-.17.31-.48.79-.48,1.22-.09.79c0,.22-.11.4-.2.4s-.24-.11-.41-.31a3.39,3.39,0,0,0-1.88-1.26l-.09.3c-.16.52-.25.82-.26.92l0,.83v.63c0,.24-.09.38-.24.38h0l-.26-.22a.81.81,0,0,0-.53-.14c-.81,0-1.33.44-1.33,1.14,0,.52.18.91,1,2.14.36.54.77,1,.93,1s.2-.29.2-.62l-.08-.53a2.17,2.17,0,0,1-.12-.67c0-.24.07-.38.2-.38.39,0,.8,1.13,1,2.71l.17,1.62a5.4,5.4,0,0,0,.53,1.75,4.45,4.45,0,0,0,1.14,1.61c.42.29.68.58.68.75a.26.26,0,0,1-.23.26l-.88-.31-.37-.05c-.87,0-1.16.5-1.16,2a8.35,8.35,0,0,0,2.58,5.52l2,1.62a4.69,4.69,0,0,1,1.79,3.15c0,1.28-1.4,2.53-3.8,3.41l-1.44.52c-1.12.41-1.57,1.13-2,3.23a3.56,3.56,0,0,1,1.2-.22h.84a.91.91,0,0,0,1-.84v-.39c0-.12.16-.28.39-.4l.61-.3.48-.39a.4.4,0,0,1,.24-.1.26.26,0,0,1,.24.27,1.18,1.18,0,0,1-.09.39,4.3,4.3,0,0,0-.23,1.5,3.67,3.67,0,0,0,.71,2.43,3.29,3.29,0,0,1,.13-.57,7.18,7.18,0,0,1,.74-1.18,5.8,5.8,0,0,0,1.15-2.66v-.18l-.13-1a.66.66,0,0,1,.22-.48.47.47,0,0,1,.3-.13c.19,0,.3.11.45.43s.23.39.31.39.45-.4.65-.87a2.45,2.45,0,0,0,.22-.92,1.54,1.54,0,0,0-.13-.56,1.53,1.53,0,0,1-.14-.5c0-.11,0-.17.18-.29a.37.37,0,0,1,.22-.09.5.5,0,0,1,.26.09l.39.26a.68.68,0,0,0,.35.13.94.94,0,0,0,.61-.49,3.74,3.74,0,0,0,.62-1.24c0-.12-.07-.2-.31-.37a3.15,3.15,0,0,1-1.44-2.34,1.84,1.84,0,0,1,.13-.63l.44-1.18c.22-.59.34-.9.35-.92l.13,0c.15,0,.24.12.24.34a1.48,1.48,0,0,1-.1.5,2.86,2.86,0,0,0-.18.83.42.42,0,0,0,.46.48,1.89,1.89,0,0,0,.73-.17,8.89,8.89,0,0,1,3-.88,2.41,2.41,0,0,1,1.59.57.8.8,0,0,0,.4.18.37.37,0,0,0,.25-.18.39.39,0,0,0,.09-.22,1,1,0,0,0-.26-.57,1,1,0,0,1-.31-.62.21.21,0,0,1,.24-.22c.69,0,1.76,2.17,2.79,5.61.81,2.71,1,3,3.62,4.46,2.19,1.24,3,2.47,3,4.46a25.13,25.13,0,0,1-1.68,7.77,5.42,5.42,0,0,0-.08,4.41c.16.56.26.9.3,1a5.49,5.49,0,0,0,.35.66"/>
    <path class="g" d="M168.65,266.17a7.26,7.26,0,0,1,.83-1.49,4.21,4.21,0,0,0,1-2.14v-.7c0-.66.12-1,.38-1a.26.26,0,0,1,.23.13l.22.35a.36.36,0,0,0,.31.18.81.81,0,0,0,.49-.37,3.07,3.07,0,0,0,.51-1.56l0-.48,0-.49c0-.26.11-.38.36-.38s.24.07.39.39.22.35.33.35a.5.5,0,0,0,.37-.26l.35-.52.26-.4.06-.21c0-.12-.09-.23-.33-.4-.81-.58-1.16-1.48-1.22-3.1a13.74,13.74,0,0,0-.22-2.4c0-.08-.29-.71-.79-1.88a12,12,0,0,1-.53-1.57c-.1-.4-.23-.53-.54-.53a2.18,2.18,0,0,0-2.09,2.35,11,11,0,0,0,.93,3.55c.84,2.12,1.06,2.88,1.06,3.63,0,1.6-.64,2.3-2.86,3.1-2.5.9-3.67,2.19-4.11,4.5l.44-.17a6.41,6.41,0,0,1,.61-.22l.7-.17a1.6,1.6,0,0,0,1.18-.83l.18-.61a.44.44,0,0,1,.26-.31l.39-.17.39-.18.09.18-.17.57a3.83,3.83,0,0,0-.09,1,3.09,3.09,0,0,0,.74,2.21"/>
    <path class="g" d="M145.19,225.76a2.89,2.89,0,0,1,.09.49,9.43,9.43,0,0,1-.18,1.13l-.08.89a7.15,7.15,0,0,0,.38,2.3,3.42,3.42,0,0,1,.28,1l0,.18c0,.18-.11.31-.17.31a1,1,0,0,1-.45-.27,2.45,2.45,0,0,0-1.61-.66,4.27,4.27,0,0,0-.74.09l.22.48.65,1.62.92,1.39,1,.66a1,1,0,0,1,.26.26.58.58,0,0,1,.13.29.17.17,0,0,1-.17.15l-.88,0c-.13,0-.24.09-.24.18a6.64,6.64,0,0,0,.37,1.3l.44,1.27.74.7.78.57a.76.76,0,0,1,.37.5c0,.12-.08.24-.15.25l-.44,0c-.14,0-.22.14-.22.35a3.87,3.87,0,0,0,.88,1.7c.68.92,1.15,1.22,1.92,1.22h.66c.31,0,.5.15.5.4s-.13.32-.42.39c-.61.13-.79.25-.79.53a1,1,0,0,0,.22.48l.35.48c.29.4.62.66.83.66a1.08,1.08,0,0,0,.64-.4,2.78,2.78,0,0,1,1.42-1c1.52-.38,1.83-.54,1.83-.9a1.12,1.12,0,0,0-.17-.5,4,4,0,0,1-.66-2.14c0-.54-.14-.92-.34-.92s-.22.13-.36.35a2,2,0,0,1-1.53.92c-1.51,0-3.33-2.37-4.24-5.51a8.72,8.72,0,0,1-.32-2.36,12.31,12.31,0,0,1,.32-2.67c.29-1.28.45-2,.48-2.14l.06-.59c0-1.08-1-2.48-2.55-3.56"/>
    <path class="g" d="M148.34,231.83a7.72,7.72,0,0,0-.62,2.85c0,.51.17.91.38.91s.16-.08.24-.22l.48-.88c.08-.15.16-.3.31-.53a1.57,1.57,0,0,0,.3-.65,2,2,0,0,0-1.1-1.48"/>
    <path class="g" d="M153.14,251.54l.22.22.35.35c.85.88,1,1,1.39,1a4.77,4.77,0,0,0,1.62-.44c.19-.1.3-.21.3-.3s-.16-.24-.44-.48l-.48-.44a2.48,2.48,0,0,0-1.16-.63,3.29,3.29,0,0,0-1.81.77"/>
    <path class="g" d="M163.28,259.44a4.32,4.32,0,0,1,.87.44c.39.26.62.4.7.43a2,2,0,0,0,.69.09,1.5,1.5,0,0,0,.53-.09L167,260l.87-.31c.23-.08.39-.22.39-.34s-.2-.16-.48-.23a5.44,5.44,0,0,1-.66-.22c-1.07-.44-1.23-.5-1.61-.5a2.92,2.92,0,0,0-2.23,1.06"/>
    <path class="g" d="M174.33,268.23c.29-.7.49-.82,1.48-.88s2.19-2.07,2.19-3.43c0-.13,0-.25-.1-.25a.71.71,0,0,0-.3.14,6.09,6.09,0,0,1-.65.39l-1.27.57a3,3,0,0,0-1.59,2.4,3,3,0,0,0,.24,1.06"/>
    <path class="d" d="M155.46,230.26l.43.61a4.11,4.11,0,0,0,.95.68c.13,0,.2-.1.28-.38l.17-.66,0-.73c0-.58-.25-.79-1.44-1.1-.3-.08-.42-.07-.61-.22a1.21,1.21,0,0,0-.52-.26c-.1,0-.18.05-.18.12l0,.19.22.65.61,1.09Z"/>
    <path class="d" d="M160.13,230.25l-.57,1-.22.24h0c-.23,0-.47-.53-.48-1.08l-.08-.87c.07-.36.28-.52.83-.61a2.53,2.53,0,0,0,.88-.26l.7-.48h.07a.2.2,0,0,1,.2.21v.06l-.3.75-1,1Z"/>
    <path class="d" d="M159,233.23l.7-.35a.78.78,0,0,1,.33-.09c.34,0,.59.25.59.71a5.69,5.69,0,0,1-.93,2.13c-.58,1-1,1.75-1.46,1.75-.63,0-1.52-1-2.38-2.67a2.85,2.85,0,0,1-.33-1.22c0-.55.24-.84.71-.84a.89.89,0,0,1,.5.14l.39.26a2,2,0,0,0,1.11.35,1.72,1.72,0,0,0,.77-.17"/>
    <path class="g" d="M158,234.28l-.48-.09h-.07c-.28,0-.42.16-.42.47a4.12,4.12,0,0,0,.79,1.89.42.42,0,0,0,.33.19c.28,0,.48-.54.63-1.41l.13-.65v-.13c0-.27-.08-.36-.3-.36h-.1"/>
    <path class="d" d="M255.54,245.68a3.8,3.8,0,0,0,2.71,1.66,5.6,5.6,0,0,0,1.18-.18,2.4,2.4,0,0,1,.58-.09c.21,0,.3.08.3.28a3,3,0,0,1-.22.82,4.15,4.15,0,0,0-.26.79l-.17.92-.44.79-.61.57-.18.18V252a2.35,2.35,0,0,1-1.18,2.25l-.31.22-.09.35a10.6,10.6,0,0,1-.44,1.52,9,9,0,0,1-.83,1.22,7.93,7.93,0,0,0-1.09,1.79c-.18.44-.32.56-.6.56s-.86-.54-.93-1.18a1.89,1.89,0,0,1-.22.26l-.52.35-.84.57a6.77,6.77,0,0,0-.7.52l-.48.48a.38.38,0,0,1-.25.13c-.22,0-.45-.37-.67-1.1l-.44-1.44a4.89,4.89,0,0,1-.18-1.41,3,3,0,0,1,.31-1.56,5.41,5.41,0,0,0-1.57.31,1.48,1.48,0,0,1-.38.09c-.15,0-.23-.1-.23-.27A2.71,2.71,0,0,1,247,255l.57-1.48a3.69,3.69,0,0,1,3-2.2,3.81,3.81,0,0,1,1.11.23,2.35,2.35,0,0,0,.66.14.87.87,0,0,0,.91-.83.66.66,0,0,0-.35-.57c-.07,0-.6-.2-1.57-.48a3.6,3.6,0,0,1-1.92-1.44c-.6-.69-.83-.89-1.05-.89s-.26.11-.26.31l0,.58,0,.27a8,8,0,0,1-1.24,4l-1.22,2.22a5.44,5.44,0,0,0-.83,2.67c0,.88.38,1.66.87,1.79l.66.17a.47.47,0,0,1,.22.14.41.41,0,0,1,.14.25.78.78,0,0,1-.22.4c-.08.08-.34.42-.79,1a3.73,3.73,0,0,1-2.14,1.62,4.24,4.24,0,0,1-2.93,2.54l-.17.3a3.54,3.54,0,0,1-2.41,1.75h-.17a3.41,3.41,0,0,1-1.53,2.23,11.64,11.64,0,0,0-1,.74,1.74,1.74,0,0,0-.22.39c-.2.44-.38.62-.62.62-.47,0-.85-.44-1.12-1.27l-.4.26c-.49.35-.77.54-.83.57a10,10,0,0,1-1.53.44,4.09,4.09,0,0,0-2.23,1.09l-.39.65-.18.08c-.21,0-.46-.3-.56-.69a10.73,10.73,0,0,1-.39-2.45c0-1.55.51-2.56,2.1-4.14v-.38c0-2.41,1.84-4,4.55-4H234l1.48.09h.14a3.62,3.62,0,0,0,2.35-1c1.07-.87,1.38-1.41,1.38-2.39a6.79,6.79,0,0,0-.42-1.76,6.18,6.18,0,0,1,2.8-7.34c.46-.32.81-.74.81-1s-.05-.18-.12-.18a1.11,1.11,0,0,0-.56.34,5,5,0,0,1-1,.66l-.7.35-.79.31c-.24.09-.36.22-.36.39a1.2,1.2,0,0,0,.1.4,1,1,0,0,1,.09.32,1.24,1.24,0,0,1-.22.51l-.61,1a3.7,3.7,0,0,1-1.79,1.75c-.49,1.44-1.19,2.17-2.22,2.32-.82,1.66-1.55,2.24-3,2.4a5.36,5.36,0,0,1-1.31,2,4.3,4.3,0,0,0-.57.7c-.34.61-.37.65-.53.65a2.16,2.16,0,0,1-1-.65,2.6,2.6,0,0,1-.39-.53l-.39-.7c-.13-.23-.26-.33-.42-.33l-.28,0-1,.13a3.05,3.05,0,0,0-1.75,1l-.52.79a.26.26,0,0,1-.21.13c-.39,0-.63-.86-.63-2.29a4.48,4.48,0,0,1,.62-2.69l1.22-1.7a1.22,1.22,0,0,0,.26-.67.89.89,0,0,0-.22-.56,1.42,1.42,0,0,0-.7-.53l-.92-.13c-.17,0-.23-.07-.23-.14a.54.54,0,0,1,.14-.3,4.19,4.19,0,0,1,1.09-1,4.79,4.79,0,0,1,2.52-.92,4.27,4.27,0,0,1,2.29.75l1.27.83a1.09,1.09,0,0,0,.61.18c.59,0,1-.35,1.44-1.14a4.19,4.19,0,0,0,.58-2,2.71,2.71,0,0,0-2.8-2.82,3.71,3.71,0,0,0-2.27.87,1.43,1.43,0,0,0-.44.48l-.35.79c-.08.19-.21.3-.31.3s-.71-.63-1.13-1.44a9.47,9.47,0,0,1-.61-1.57,7.15,7.15,0,0,1-.37-2.18L224,243a4.39,4.39,0,0,1-.79-2.7,4.88,4.88,0,0,1,.31-1.53,3.24,3.24,0,0,1-.48-1.95l0-.55.13-.61.09-.52c-.42-.55-.54-.92-1-2.84a5.87,5.87,0,0,0-.56-1.84.63.63,0,0,1-.13-.26c0-.25.61-.49,1.31-.49l.61,0a2,2,0,0,1-.19-.88,5.45,5.45,0,0,1,.32-1.74A3.32,3.32,0,0,0,224,226a4.18,4.18,0,0,0-.19-1.33l-.35-.87a1.25,1.25,0,0,1-.11-.45c0-.09.06-.12.22-.12.86,0,2.5.93,3.78,2.14a4.7,4.7,0,0,1,1.69,4l-.07,1c1.19,1,1.71,1.91,1.71,2.84a2.27,2.27,0,0,1-.88,1.78,3.78,3.78,0,0,0-1.44,3.29c0,2.32.69,3.57,2,3.57,1.13,0,2-1.22,2.14-3l.13-1.66c0-.43.11-1,.22-1.57a8.15,8.15,0,0,0,.13-1.14c0-.59-.39-1.33-1.53-2.66s-1.64-2.21-1.64-3.33a2.19,2.19,0,0,1,2.19-2.33,1.55,1.55,0,0,1,.85.24,4.19,4.19,0,0,1,.48-2c.34-.84.7-1.44.87-1.44a.5.5,0,0,1,.26.18,4.22,4.22,0,0,0,.57.48l.44.31a4,4,0,0,1,.39.4,4.21,4.21,0,0,1,1.36-2.23c.61-.6.84-.79,1-.79a.47.47,0,0,1,.31.22l.52.69.74.83a2.33,2.33,0,0,1,.53,1.35l.44-.26.7-.39a5,5,0,0,0,.53-.35.61.61,0,0,1,.27-.14c.07,0,.16.13.2.31l.26,1,.57,1.14a2.18,2.18,0,0,1,.22,1.12v.27h.29c.86,0,1.6,1,1.6,2.19a6.33,6.33,0,0,1-2.86,4.63,3.51,3.51,0,0,0-.18,1.16c0,3.47.91,4.2,6.25,5a29.45,29.45,0,0,1,3.58.74l3.45,1.14a8.65,8.65,0,0,0,2.59.57c.65,0,1-.19,1-.53,0-.6-.88-1.13-3.55-2.18l-3.8-1.48c-3.86-1.51-5.69-3.87-5.69-7.34a6.91,6.91,0,0,1,7.08-7.08,14.56,14.56,0,0,1,5.16,1.1c2.76,1,2.9,1,3.2,1,.53,0,.82-.36.91-1.13s.25-.92.61-.92c.54,0,1.12.5,1.53,1.31a5.21,5.21,0,0,1,.57,2.27,2.5,2.5,0,0,1-2.14,2.67,4.24,4.24,0,0,1-3.52,1.81c-1.74,0-2.6-.34-5.57-2.2a3.75,3.75,0,0,0-2.3-.83,1.64,1.64,0,0,0-1.81,1.52c0,.8.65,1.33,2.1,1.71a2.31,2.31,0,0,1,1.44.74,2.83,2.83,0,0,1,.73-.11,7.71,7.71,0,0,1,4.65,2c2.69.83,5.09,3.73,5.09,6.17a5.2,5.2,0,0,1-4.94,5.11,17.29,17.29,0,0,1-3.38-.54"/>
    <path class="g" d="M254,257.78l.18-.48.18-.61a3.69,3.69,0,0,1,.48-.74,3.5,3.5,0,0,0,.67-2.17,1.81,1.81,0,0,0-.23-.85,1,1,0,0,1-.13-.4.35.35,0,0,1,.09-.2.28.28,0,0,1,.18-.13h0a.78.78,0,0,1,.45.31c.19.22.35.35.45.35s.4-.33.52-.83c.06-.27.09-.41.09-.44a4.16,4.16,0,0,0-.39-1.22,1.07,1.07,0,0,1-.13-.44.26.26,0,0,1,.24-.28,1.13,1.13,0,0,1,.58.37.53.53,0,0,0,.33.18c.27,0,.47-.28.68-1a3.93,3.93,0,0,0,.18-.68c0-.13-.06-.2-.16-.2h-.15l-.52.05a3.71,3.71,0,0,1-2.45-1.19l-1.22-1.49a15.83,15.83,0,0,1-1.09-1.44l-1-.65a.49.49,0,0,1-.26-.36c0-.17.17-.27.42-.27a10.43,10.43,0,0,1,2.25.81,13.63,13.63,0,0,0,4.43,1,3.8,3.8,0,0,0,3.81-3.74c0-1.12-.5-2.16-1.73-3.6a1.57,1.57,0,0,0-.81-.54.24.24,0,0,0-.24.26,1.38,1.38,0,0,0,.13.49,1.09,1.09,0,0,1,.08.4c0,.2-.07.32-.21.32s-.56-.45-.8-1.24c-.29-1-.86-1.55-2.19-2.23a4.72,4.72,0,0,0-1.38-.49c-.09,0-.14.08-.14.19a1,1,0,0,0,.17.52,2.15,2.15,0,0,1,.35.83v0c0,.17-.09.26-.24.26s-.34-.07-1-1.05a5.05,5.05,0,0,0-2-1.49,2.22,2.22,0,0,0-.74-.18h0c-.16,0-.28.08-.28.17a1.85,1.85,0,0,0,.2.4l.07.25a.22.22,0,0,1-.21.24,4.7,4.7,0,0,1-1.71-1.4,4.36,4.36,0,0,1-1.14-2.62,3.38,3.38,0,0,1,3.38-3.16,2.52,2.52,0,0,1,1.12.22l1.53.79,1.79,1.18a7.16,7.16,0,0,0,3.3,1.18,4.78,4.78,0,0,0,1.38-.27c.43-.12.69-.29.69-.44l0,0-.15-.09-1-.08a8.34,8.34,0,0,1-2.71-1.23l-2-1.31-1.79-.75c-.14-.05-.22-.14-.22-.23a.19.19,0,0,1,.21-.17l.5.09,1.66.48a12,12,0,0,1,2,.92,9.26,9.26,0,0,0,3.88,1.4,1.65,1.65,0,0,0,1.75-1.63,6.11,6.11,0,0,0-.17-1.25,1.73,1.73,0,0,0-.26-.57c-.08-.11-.16-.17-.21-.17s-.2.13-.2.36l0,.3,0,.25c0,.81-.31,1.09-1.2,1.09a12.26,12.26,0,0,1-3.92-1.17,12.49,12.49,0,0,0-4.68-1.13,6.12,6.12,0,0,0-6.17,5.74c0,2.64,1.76,4.67,5.34,6.14l3.71,1.53c3.07,1.26,4.2,2.17,4.2,3.36,0,1-.93,1.64-2.37,1.64a9.85,9.85,0,0,1-2.83-.63,25.71,25.71,0,0,0-7.72-1.57c-3.24,0-5.55.89-7.39,2.83-.24.26-.39.34-.6.34a1.29,1.29,0,0,1-.62-.25,2.11,2.11,0,0,0-1-.31,1.61,1.61,0,0,0-1,.58l-.44.57a.57.57,0,0,1-.39.27c-.32,0-.88-.54-1.23-1.18a4.1,4.1,0,0,1-.44-1.14,6.65,6.65,0,0,1-.09-1.2l0-.81.13-.87c.06-.42.11-.67.13-.74a.23.23,0,0,1,.21-.17c.23,0,.33.21.33.68v.47c0,1.24.49,2.38,1,2.38s.8-.76,1.11-2.28c.06-.3.18-.48.33-.48s.28.22.41.87a3.8,3.8,0,0,0,.65,1.4.75.75,0,0,0,.5.35c.36,0,.59-.54.77-1.79.07-.49.22-.79.38-.79a.24.24,0,0,1,.18.09s.13.2.31.48a1.19,1.19,0,0,0,.48.44,1.28,1.28,0,0,0,.51.18.63.63,0,0,0,.41-.18c.2-.17.31-.31.31-.36a.88.88,0,0,0-.26-.38,4.26,4.26,0,0,1-.79-1.44l-.39-1a.61.61,0,0,0-.22-.3l-.14,0-.26,0-.92.26-.29,0a.19.19,0,0,1-.2-.21.88.88,0,0,1,.36-.49c1.1-.88,1.76-2.35,2-4.5a4.53,4.53,0,0,1,.87-2.58c.12-.16.22-.26.27-.26s.26.13.26.38a1.78,1.78,0,0,1-.14.62,1.53,1.53,0,0,0-.1.53v.17l.09.26.48-.18.52-.61a3.23,3.23,0,0,0,.57-1.79,1.43,1.43,0,0,0-.35-1c-.28-.33-.47-.46-.66-.46l-.3,0-.31,0c-.28,0-.42-.09-.42-.26l.08-.33,0-.48-.26-1.09-.22-.53-.13-.44-.31.22-.65.39a2.2,2.2,0,0,0-.53.48c-.62.75-.66.79-.91.79s-.25-.06-.25-.17l0-.18a4.52,4.52,0,0,0,.13-.91,4.15,4.15,0,0,0-1.22-2.54,3.94,3.94,0,0,0-1.4,2.75v.52c0,.2-.07.3-.2.3h0a.52.52,0,0,1-.31-.22l-.52-.7a7,7,0,0,0-.7-.57l-.35-.3-.18.35a4.64,4.64,0,0,0-.61,2.1c0,.58-.07.75-.21.75a.61.61,0,0,1-.28-.1c-.66-.37-.72-.4-1-.4a1.29,1.29,0,0,0-1.32,1.39,3.45,3.45,0,0,0,.54,1.45c.4.71,1,1.37,1.26,1.37.08,0,.09-.05.09-.27v-.09l0-.74-.09-.57v-.07c0-.17.07-.24.2-.24q.59,0,1,3.46a6.74,6.74,0,0,0,1.7,4.24c.23.21.36.38.36.47a.16.16,0,0,1-.17.14,1.37,1.37,0,0,1-.57-.22,1,1,0,0,0-.47-.14,1.24,1.24,0,0,0-1,1.06l-.39,2.49-.31,3.5a9.3,9.3,0,0,0,.26,2.62,11.25,11.25,0,0,1,.31,2.07,5.63,5.63,0,0,1-4.33,5.49l-2.8.83c-1.74.52-2.6,1.67-2.84,3.8a2,2,0,0,1,1.27-.52l.83-.13a2.29,2.29,0,0,0,.74-.22A3.44,3.44,0,0,0,227,258l.74-.83c.28-.32.53-.5.69-.5s.19.12.19.25a1.59,1.59,0,0,1-.31.72,2.09,2.09,0,0,0-.32,1.12,2.69,2.69,0,0,0,.71,1.71,3,3,0,0,1,.18-.53,8.85,8.85,0,0,1,.65-.92,4.79,4.79,0,0,0,1-2c0-.68.07-.9.24-.9s.17,0,.24.42a.55.55,0,0,0,.13.26.45.45,0,0,0,.27.17,1,1,0,0,0,.35-.17,3.12,3.12,0,0,0,.7-.61,3.64,3.64,0,0,0,.66-1.61V254c0-.15.06-.27.14-.27s.33.23.47.48.16.22.28.22h0a.66.66,0,0,0,.39-.18,2.62,2.62,0,0,0,.88-1.64l0-.81-.17-.66v-.06a.24.24,0,0,1,.21-.25c.2,0,.41.28.71.92.14.3.27.44.4.44s.37-.16.78-.75l.39-.57a.77.77,0,0,0,.13-.44.78.78,0,0,0-.13-.43l-.35-.53a.87.87,0,0,1-.09-.44,4.29,4.29,0,0,1,.66-2.05,10.33,10.33,0,0,0,.57-1.09c.07-.18.14-.26.24-.26s.15.11.15.22l0,.48v.7c.06.16.17.22.38.22a1.48,1.48,0,0,0,.45-.09l1.09-.39a7.46,7.46,0,0,0,1-.48c1.71-.95,2.24-1.14,3.08-1.14a5.31,5.31,0,0,1,2.07.62,1.19,1.19,0,0,0,.45.14.53.53,0,0,0,.38-.22.53.53,0,0,0,.13-.33,1.1,1.1,0,0,0-.18-.54,2.07,2.07,0,0,1-.27-.65.18.18,0,0,1,.2-.19.48.48,0,0,1,.33.23q.2.31,1,1.74a5.19,5.19,0,0,0,2.8,2.67l1.92.44c.59.13.75.36.75,1.11a3.8,3.8,0,0,1-1.75,3.26l-1.57,1a2.89,2.89,0,0,0-1,2.2,11.9,11.9,0,0,0,.31,2.25l.31-.3.74-.44.66-.66.35-1,.35-.87c.17-.42.37-.7.51-.7s.24.24.24.67v.28a3.33,3.33,0,0,0,.57,1.85"/>
    <path class="g" d="M228.1,270.24c0-2.08.75-3,3.76-4.51,5.94-3,9.14-5.77,9.14-7.87a9.48,9.48,0,0,0-.53-2.35,7.62,7.62,0,0,1-.38-1.9,5.34,5.34,0,0,1,1.82-3.34l.83-.74a2.26,2.26,0,0,0,.79-1.38v-.46c0-.43.17-.59.62-.61l.39,0,.34-.09a.44.44,0,0,1,.37.22l.21.35.31.35a.44.44,0,0,0,.28.18,1,1,0,0,0,.33-.13,1.08,1.08,0,0,1,.53-.17c.23,0,.34.12.34.38a6.76,6.76,0,0,1-1.57,3.5c-1.68,2.27-2.23,3.49-2.23,4.94a4.74,4.74,0,0,0,1,3,.77.77,0,0,1,.18.32,1.12,1.12,0,0,1-.31.55c-.08.09-.17.21-.26.35-.35.5-.58.7-.81.7a.48.48,0,0,1-.41-.35l-.17-.48a.3.3,0,0,0-.25-.22s-.11.07-.19.18a.78.78,0,0,0-.17.48v.74a1.49,1.49,0,0,1-.31.87,3.65,3.65,0,0,1-.61.65.82.82,0,0,1-.34.22c-.13,0-.25-.14-.31-.35l-.26-.87c0-.13-.13-.22-.22-.22s-.27.25-.31.61a3.14,3.14,0,0,1-.52,1.83l-.61.56a1.06,1.06,0,0,1-.55.32.3.3,0,0,1-.28-.14l-.31-.66a.22.22,0,0,0-.19-.13c-.18,0-.31.35-.37,1-.16,1.57-.49,2.28-1.35,2.88a2.42,2.42,0,0,0-1.09,1.22,2.8,2.8,0,0,1-.53-1.74A1.59,1.59,0,0,1,234,267a1.85,1.85,0,0,0,.28-.73.18.18,0,0,0-.16-.19s-.12.06-.22.17a2.3,2.3,0,0,1-.57.44,1.69,1.69,0,0,0-1.09,1.49,2.23,2.23,0,0,1-2,2c-1.48.3-1.57.34-2.1.83l-.05-.78Z"/>
    <path class="g" d="M225.27,225.19v1.08a2.77,2.77,0,0,1-.09.71,4.76,4.76,0,0,0-.17,1,3.52,3.52,0,0,0,.61,2.11,3.26,3.26,0,0,1,.45,1.47c0,.18-.07.28-.19.28a.27.27,0,0,1-.21-.13l-.35-.48c-.28-.38-.54-.48-1.25-.48l-.76,0a9.5,9.5,0,0,1,.52,1.53c.35,1.43.4,1.53,1.18,2.23s.85.79.85,1a.33.33,0,0,1-.3.35l-.29,0-.17,0c-.24,0-.46.44-.46.92a3.13,3.13,0,0,0,.28,1.1,1.78,1.78,0,0,0,.3.53l.44.44a.62.62,0,0,1,.18.45c0,.21-.12.39-.27.39a1,1,0,0,1-.39-.14.71.71,0,0,0-.31-.09c-.19,0-.29.12-.29.36l.07.65.26,1.13a2,2,0,0,0,.48.83,2.08,2.08,0,0,0,.66.52l.88.39a.43.43,0,0,1,.13.35.3.3,0,0,1-.29.3l-.45-.09-.44,0c-.44,0-.47,0-.47.37a2.75,2.75,0,0,0,.09.68l.17.7c.19.74.42,1.14.69,1.14a.78.78,0,0,0,.32-.18,5.39,5.39,0,0,1,2.7-.92,8.82,8.82,0,0,1,2.11.22,1.61,1.61,0,0,0,.42.11c.11,0,.14-.11.15-.5l.09-.79.18-1.36.13-1v-.57l-.35.31a2.56,2.56,0,0,1-2,.92c-2,0-3.16-2.26-3.16-6.2a42,42,0,0,1,.69-6.56,7.71,7.71,0,0,0,.14-1.21,4.77,4.77,0,0,0-2.5-3.85"/>
    <path class="g" d="M228.24,235l.39-.39.39-.35a2,2,0,0,0,.59-1.34,1.38,1.38,0,0,0-.15-.62c-.15-.33-.44-.62-.62-.62s-.28.36-.34.92l-.09.66-.13.65,0,.65V235Z"/>
    <path class="g" d="M224.39,252.85c.45.17.54.24,1,.79a1.9,1.9,0,0,0,1.75.87,2.23,2.23,0,0,0,.62-.08l.56-.18.44-.13c.21-.06.35-.15.35-.22s-.34-.38-.87-.74a8.46,8.46,0,0,0-1-.61,2.25,2.25,0,0,0-1-.27,3.2,3.2,0,0,0-1.8.58"/>
    <path class="g" d="M230.29,265.14a2.87,2.87,0,0,1,3.08-2.57c.85,0,1.34.17,1.34.46s-.37.53-1.18,1l-1.27.7a18.78,18.78,0,0,1-1.92,1l0-.5Z"/>
    <path class="g" d="M248.07,254.55c.62-.13.83-.29,1.14-.3l.79,0a2.54,2.54,0,0,0,.52-.35l.61-.44c.87-.6.92-.64.92-.83s-.35-.36-1.09-.36c-1.38,0-2.21.65-2.89,2.23"/>
    <path class="d" d="M234.88,227.95l.61.39a5.76,5.76,0,0,0,.87.48c.67.28.92.38.92.64a1.84,1.84,0,0,1-.09.5,2.71,2.71,0,0,0-.13.61c-.06.59-.42.74-.66.74s-.6-.46-1.09-1.31a10.16,10.16,0,0,1-.7-1.74l0-.17c0-.11.07-.17.19-.17"/>
    <path class="d" d="M240.78,229.47l-1,1a3.75,3.75,0,0,0-.44,1,.58.58,0,0,1-.31.13H239a.45.45,0,0,1-.46-.44l0-.74,0-.75v0a.45.45,0,0,1,.39-.48l.93-.26,1-.48a1.49,1.49,0,0,1,.41-.17.24.24,0,0,1,.21.25.69.69,0,0,1-.09.27l-.44.74Z"/>
    <path class="d" d="M236.36,232.44l.65.48a1.16,1.16,0,0,0,.59.15,2.7,2.7,0,0,0,1-.28l.57-.26a.86.86,0,0,1,.34-.09c.35,0,.63.37.63.83a4.62,4.62,0,0,1-1.14,2.27l-.48,1c-.38.55-.63.74-.95.74-.52,0-.77-.3-1.55-1.84a5.53,5.53,0,0,1-.79-2.32c0-.46.24-.78.59-.78a.82.82,0,0,1,.51.08"/>
    <path class="g" d="M236.93,234.85l0,.83a.78.78,0,0,0,.63.75c.4,0,.69-.61.85-1.53a4.67,4.67,0,0,0,.1-.61c0-.32-.11-.41-.52-.41h-.73c-.27,0-.38.21-.38.77"/>
    <path class="d" d="M187.74,215.07H192v8.77h5v-8.68h12.69v8.68h5v-8.68H219V192.52h-4.89l-.18-.26a2.72,2.72,0,0,0-2.36-1.33,2.6,2.6,0,0,0-2.31,1.59h-3.53a2.57,2.57,0,0,0-2.36-1.59,2.63,2.63,0,0,0-2.48,1.59h-3.79a2.55,2.55,0,0,0-2.42-1.59,2.38,2.38,0,0,0-2.34,1.59h-4.63v22.56Z"/>
    <polygon class="f" points="189.57 213.41 217.35 213.41 217.35 194.37 189.57 194.37 189.57 213.41 189.57 213.41"/>
    <path class="g" d="M192.46,198.73a1.32,1.32,0,1,0,1.32,1.32,1.32,1.32,0,0,0-1.32-1.32"/>
    <path class="h" d="M192.46,198.91A1.14,1.14,0,1,0,193.6,200a1.14,1.14,0,0,0-1.15-1.14Zm0,2.64A1.5,1.5,0,1,1,194,200a1.5,1.5,0,0,1-1.5,1.5Z"/>
    <path class="g" d="M214.26,198.73a1.32,1.32,0,1,0,1.32,1.32,1.32,1.32,0,0,0-1.32-1.32"/>
    <path class="h" d="M214.26,198.91a1.14,1.14,0,1,0,1.14,1.14,1.14,1.14,0,0,0-1.14-1.14Zm0,2.64a1.5,1.5,0,1,1,1.5-1.5,1.51,1.51,0,0,1-1.5,1.5Z"/>
    <path class="g" d="M192.46,209.08a1.32,1.32,0,0,0-1.32,1.32,1.34,1.34,0,0,0,1.37,1.32,1.3,1.3,0,0,0,1.28-1.32,1.32,1.32,0,0,0-1.32-1.32"/>
    <path class="h" d="M192.46,209.26a1.14,1.14,0,0,0-1.14,1.14,1.17,1.17,0,0,0,1.19,1.14,1.12,1.12,0,0,0,1.1-1.14,1.15,1.15,0,0,0-1.15-1.14Zm0,2.64a1.53,1.53,0,0,1-1.55-1.5,1.5,1.5,0,0,1,3,0,1.48,1.48,0,0,1-1.46,1.5Z"/>
    <path class="g" d="M214.26,209.08a1.32,1.32,0,1,0,1.32,1.32,1.32,1.32,0,0,0-1.32-1.32"/>
    <path class="h" d="M214.26,209.26a1.14,1.14,0,1,0,1.14,1.14,1.14,1.14,0,0,0-1.14-1.14Zm0,2.64a1.5,1.5,0,1,1,1.5-1.5,1.5,1.5,0,0,1-1.5,1.5Z"/>
    <path class="g" d="M196.6,205.07a8.35,8.35,0,0,0,6.84,3.35c2.59,0,4.37-.93,6.46-3.35a8.8,8.8,0,0,0-13.3,0"/>
    <path class="d" d="M197.92,205.07a8.16,8.16,0,0,1,5.33-2,7.82,7.82,0,0,1,5.29,2.07,6.75,6.75,0,0,1-5.32,2.25,7.4,7.4,0,0,1-5.3-2.29"/>
    <path class="g" d="M200.17,204.63a5.35,5.35,0,0,0,3,1,5.45,5.45,0,0,0,3.2-1,7.3,7.3,0,0,0-3.16-.75,6.36,6.36,0,0,0-3.06.75"/>
    <polygon class="d" points="189.18 196.32 217.74 196.32 217.74 195.35 189.18 195.35 189.18 196.32 189.18 196.32"/>
    <path class="h" d="M189.24,196.26h28.44v-.85H189.24v.85Zm28.56.12H189.12v-1.09H217.8v1.09Z"/>
    <path class="g" d="M193.56,194.1v2.73a1.14,1.14,0,0,0,1.18,1.15,1.07,1.07,0,0,0,1.21-1.15v-2.69c0-1-.42-1.68-1.1-1.68a1.46,1.46,0,0,0-.53.14,1.71,1.71,0,0,0-.31.17,1.08,1.08,0,0,0-.26.36,1.5,1.5,0,0,0-.18.49"/>
    <path class="g" d="M202.15,196.35v.48a1.14,1.14,0,0,0,1.17,1.15,1.07,1.07,0,0,0,1.21-1.15v-2.69c0-1-.42-1.68-1.09-1.68s-1.29.64-1.29,1.64"/>
    <path class="g" d="M210.47,194.1v2.73a1.14,1.14,0,0,0,1.18,1.15,1.07,1.07,0,0,0,1.21-1.15v-2.69c0-1-.42-1.68-1.1-1.68a1.45,1.45,0,0,0-.53.14,1.59,1.59,0,0,0-.31.17,1.12,1.12,0,0,0-.26.36,1.51,1.51,0,0,0-.18.49"/>
    <polygon class="g" points="192.94 220.49 195.54 220.49 195.54 217.14 192.94 217.14 192.94 220.49 192.94 220.49"/>
    <polygon class="g" points="192.94 222.3 195.54 222.3 195.54 221.24 192.94 221.24 192.94 222.3 192.94 222.3"/>
    <polygon class="g" points="210.65 220.49 213.25 220.49 213.25 217.14 210.65 217.14 210.65 220.49 210.65 220.49"/>
    <polygon class="g" points="210.65 222.3 213.25 222.3 213.25 221.24 210.65 221.24 210.65 222.3 210.65 222.3"/>
    <path class="e" d="M353.38,135.92v2h-1.31c-2,0-5.21,0-5.21,6.08v25c0,15.27-6.65,22.69-20.33,22.69-15.43,0-22.62-6.15-22.62-19.37V144c0-6.08-3.3-6.08-6.21-6.08h-.61v-2h23.09v2h-.62c-2.87,0-6.44,0-6.44,6.08v27c0,11.65,4.87,17.31,14.87,17.31,9.73,0,14.88-6.1,14.88-17.62V144c0-6.08-3.37-6.08-5.83-6.08h-1.23v-2h17.57"/>
    <path class="e" d="M378.32,188.47v2H358.85v-2h.77c6.38,0,7.2-4.87,7.2-10.35V145.34c0-5.23-3-7.42-7.28-7.42h-.69v-2h15.32l33.15,40.64v-30.9c0-7-4.88-7.74-7-7.74H399v-2h19.68v2h-.85c-3.45,0-7.13.8-7.13,10.35v42.47h-2.89l-37.61-45.51v32.84c0,5.48.79,10.39,7.39,10.39"/>
    <path class="e" d="M482.82,178.9l12-33.53c2.15-5.71.77-7.46-4.19-7.46h-1v-2h15.53v2h-.34c-1.68,0-3.67.5-5.14,4.26l-18.18,48.51H478l-19.74-48.06c-1.57-4-3.42-4.7-6.73-4.7h-.46v-2h22.55v2h-1.47c-3.86,0-4.6,2.42-3.51,5.36"/>
    <path class="e" d="M573.84,138.48v24.15h4.67c8.5,0,12.24-3.78,12.24-12.64,0-7.2-4.63-11.85-11.62-11.85a40.16,40.16,0,0,0-5.28.34Zm8.38-2.57c12.08,0,18.07,4.45,18.07,13.6,0,7.76-6.05,11.69-10.83,13.62l-.35.14,13.38,20.37c2.14,3.3,3.89,4.58,7.57,4.77v2h-14l-16.23-25.61h-6v17c0,6.16,2.74,6.64,6.61,6.64h1.08v2H557.8v-2h1.08c2.65,0,5.74-1.2,5.74-4.58V144.23c0-6.32-3.74-6.32-5.74-6.32H557.8v-2h24.42"/>
    <path class="e" d="M638.9,180.11c0-6.65-5.7-9.27-11-12-6.22-3.24-13.39-6.59-13.39-16.66,0-9.75,7.42-16,18-16a63.49,63.49,0,0,1,11.41,1.3l.74,10.61-2,.29c-.95-5.58-3.85-9.87-10.12-9.87-5.9,0-10.27,3.62-10.27,10.15,0,6.15,5.68,8.67,11,11.34,6.48,3.26,13.91,6.64,13.91,16.8,0,11.25-10,16.29-19.3,16.29a27.48,27.48,0,0,1-12.92-3.08l-1.3-11.81,2-.35c1.51,7.84,6.49,12.39,13,12.39,6.28,0,10.29-3.83,10.29-9.32"/>
    <path class="e" d="M677.81,135.92v2H677c-3.11,0-6,.58-6,4.82v40.92c0,4.23,2.87,4.82,6,4.82h.77v2H655v-2h.77c3.11,0,6-.58,6-4.82V142.73c0-4.23-2.87-4.82-6-4.82H655v-2h22.78"/>
    <path class="e" d="M447.92,135.92v2h-.77c-3.11,0-6,.58-6,4.82v40.92c0,4.23,2.87,4.82,6,4.82h.77v2H425.14v-2h.77c3.1,0,6-.58,6-4.82V142.73c0-4.23-2.88-4.82-6-4.82h-.77v-2h22.78"/>
    <path class="e" d="M902,214.69l.19,14.48-2.31.59c-.52-6.33-2-11.5-12.07-11.5h-13.6V245h11.68c5.73,0,7.28-3.2,7.93-8.73h2.32v22.38l-2.32,0c-.36-5.35-1.62-9.51-7.89-9.51H874.16v23.5c0,6.83,5.88,6.83,12.11,6.83,11.18,0,16.36-.7,19.49-12,.46.12,2.29.51,2.29.51l-3.13,15.08H854.14v-2.51h1c3.9,0,7.5-.73,7.5-6V223.24c0-5.31-3.6-6-7.5-6h-1v-2.5H902"/>
    <path class="e" d="M614.68,217.91V248.2h5.85c10.65,0,15.35-4.75,15.35-15.86,0-9-5.81-14.86-14.57-14.86a45.92,45.92,0,0,0-6.61.43Zm10.5-3.22c15.15,0,22.67,5.58,22.67,17.05,0,9.73-7.6,14.66-13.59,17.09l-.44.18,16.79,25.55c2.69,4.14,4.88,5.74,9.5,6v2.56H642.59L622.23,251h-7.56v21.31c0,7.72,3.42,8.32,8.27,8.32h1.36v2.51H594.55v-2.51h1.35c3.33,0,7.21-1.5,7.21-5.74V225.12c0-7.93-4.69-7.93-7.21-7.93h-1.35v-2.5h30.63"/>
    <path class="e" d="M692.86,214.68v2.5h-1c-3.9,0-7.5.74-7.5,6v51.33c0,5.31,3.6,6,7.5,6h1v2.5H664.27v-2.5h1c3.9,0,7.5-.73,7.5-6V223.22c0-5.31-3.6-6-7.5-6h-1v-2.5h28.58"/>
    <path class="e" d="M689.66,135.92h36.09c1.81,0,4.14-.46,4.51-2.83H732l-1.39,14.23h-1.93c-.12-3.29-.6-8.06-5.87-8.06h-11v42.11c0,6.56,3.16,7.11,6.67,7.11h1.15v2H694.77v-2h1.15c4.14,0,6.67-.34,6.67-7V139.24H691.46c-5.67,0-6.21,2.49-7.31,8h-2l1.25-14H685c.73,2.27,2.7,2.73,4.62,2.72"/>
    <path class="e" d="M787.81,135.92v2c-3.14.17-5,2.32-6.46,4.32L767.51,163.6V181c0,6.93,2.52,7.43,6.67,7.43h1.16v2H750.47v-2h1.16c4.32,0,6.67-1.08,6.67-6.79V164.9l-15-21.49c-2.3-3.31-4-5.5-7.67-5.5h-.46v-2h22.53v2H757c-4.32,0-4.64,2.29-2.8,4.91l11.65,18.06,10.31-16.31c2.36-3.56,3-6.66-2.8-6.66h-.89v-2"/>
    <path class="e" d="M814.48,160.82c0,13.47,6,28,19,28,12,0,17.78-8.3,17.78-25.37,0-12.53-6.69-25.84-19.09-25.84-16.43,0-17.71,17.79-17.71,23.23Zm-10.13,2.77c0-16.18,12.3-28.86,28-28.86,17.11,0,29.06,11.09,29.06,27,0,17.36-12.06,30-28.68,30-16.44,0-28.38-11.8-28.38-28.06"/>
    <path class="e" d="M867.63,190.46v-2h.78c3.1,0,6-.58,6-4.82V142.73c0-4.24-2.87-4.82-6-4.82h-.78v-2h38.12l.14,11.54c-.31.09-1.4.35-1.83.47-.43-4.69-1.5-9.17-8-9.17H883.59v21.34h10.91c4.51,0,5.17-3.56,5.21-6.4h1.8v17.47h-1.8c0-3.42-.83-7.75-6.44-7.75h-9.69v20.22c0,4.82,4.07,4.82,7.67,4.82h.69v2"/>
    <path class="e" d="M301.41,248.84c0-10.17,4.13-20.16,11.23-26.53a36.88,36.88,0,0,1,25-9.23A52.68,52.68,0,0,1,360.83,218l.73,15.84-2.25.29c-2.58-9.18-6.87-17.59-21.37-17.59-14.89,0-24.15,11.79-24.15,30.78,0,16.9,7.48,32.88,25.6,32.88,10.18,0,17.45-3.81,22.93-10.86l1.79,3.35c-6.17,8-15.71,12.24-26.56,12.24-22.07,0-36.14-13-36.14-36.08"/>
    <path class="e" d="M449,227.92l-2.27,42.26c-.41,9.36,2.49,10.18,8.78,10.41H456v2.49H433v-2.49h.88c7.77-.31,8.25-4.63,8.61-10.95l2.68-43.26c.35-5.9-2.89-9.25-8.32-9.25H436v-2.49H455.4c.23.55,23.24,51.86,23.24,51.86l22-51.86h19v2.52h-.36c-7.7,0-9.06,2.39-8.48,12.06l2.65,45.38c.4,5.31,3.19,5.79,8.43,6v2.47H493.45v-2.47h.19c4.62-.28,8-.47,8-5.12l-.1-4.91s-2.08-43.75-2.08-43.75l-23.66,56.78H473.7C473.46,283,449,227.92,449,227.92"/>
    <path class="e" d="M723.72,217.94v53.73c0,7.26,3.07,8.43,10.41,8.43,17.29,0,25.16-14.89,25.16-29.48,0-22.68-9.36-33-28.6-33-1.7,0-5.32.15-7,.32ZM703.63,283.1v-2.51h1c3.9,0,7.5-.73,7.5-6V223.22c0-5.31-3.6-6-7.5-6h-1v-2.51l30.59,0c11.37,0,20.89,2.86,27.55,9.05s10,14.75,10,25a36.07,36.07,0,0,1-10.47,25.48c-6.7,6.63-16.07,8.9-25.56,8.9"/>
    <path class="e" d="M830,279.58V262.81c0-3.67-2.67-5.61-7.72-5.61h-.8v-2.44h26.3v2.44H847c-3.68,0-5.62,1.94-5.62,5.61v18.67a80.19,80.19,0,0,1-24.06,3.62c-22.58,0-37.18-14.64-37.18-37.3,0-24.1,19.25-35.07,37.37-35.07a73.82,73.82,0,0,1,21.74,3.38l1.09,16.33-2.29.14c-2.84-11.76-8.08-16.38-19.86-16.38-15.9,0-25.53,11.72-25.53,30.58,0,17.33,8.14,34.5,26.3,34.5,4.19.09,8.52-.55,11.08-1.71"/>
    <path class="e" d="M565.69,245.85c8.61.63,13.2,2.52,17,6.47a15.84,15.84,0,0,1,4.56,11.42c0,10.74-9.85,19.34-22.64,19.34H531.13V280.6h1.35c3.32,0,7.2-1.58,7.2-5.83V225.12c0-7.93-4.69-7.93-7.2-7.93h-1.35v-2.5h30.38c14.26,0,22.11,5.17,22.11,15,0,10.84-9.54,14.85-17.93,16.2m-14-28.65v27.48h5.15c9.43,0,14.62-4.57,14.62-13.32,0-9.66-4.57-14.16-13.57-14.16Zm0,30.47v24.08c0,6.69,2.13,8.6,9.07,8.6,8.33,0,14.62-6.86,14.62-16.21,0-10.51-6.4-16.47-17.12-16.47"/>
    <path class="e" d="M393.27,228.63l9.56,26.65H383.69l9.58-26.65Zm1.19-14-21.72,59.06c-1.61,4.2-4.45,6.79-8.67,6.79h-.23v2.57h20.82v-2.57h-.91c-5,0-8.42-1.6-6.24-8.07l5-13.8H404l5.39,15c1.55,4.75-.47,6.9-5.62,6.9h-.6v2.52H429.7v-2.52h-.21c-3.53,0-5.95-1.85-7.6-6.54l-22.28-59.37"/>
    <path class="e" d="M546.94,135.91l.15,11.54-1.84.48c-.41-5-1.56-9.16-9.62-9.16H524.78v21.32h9.3c4.56,0,5.81-2.55,6.32-7h1.86V171l-1.85,0c-.28-4.26-1.28-7.58-6.29-7.58h-9.34v18.72c0,5.45,4.69,5.45,9.65,5.45,8.91,0,13-.56,15.53-9.58.36.1,1.82.41,1.82.41l-2.49,12H508.82v-2h.77c3.1,0,6-.58,6-4.82v-40.9c0-4.23-2.88-4.81-6-4.81h-.77v-2h38.12"/>
    <text class="i" transform="translate(295.91 341.32)"><tspan class="j">W</tspan><tspan class="k" x="35.69" y="0">i</tspan><tspan class="l" x="45.75" y="0">n</tspan><tspan class="m" x="69.44" y="0">t</tspan><tspan x="83.42" y="0">on </tspan><tspan class="n" x="140.01" y="0">C</tspan><tspan x="164.47" y="0">e</tspan><tspan class="o" x="186.02" y="0">n</tspan><tspan x="209.71" y="0">t</tspan><tspan class="p" x="223.94" y="0">r</tspan><tspan x="237.57" y="0">e </tspan><tspan class="q" x="268.23" y="0">f</tspan><tspan class="r" x="280.23" y="0">or</tspan><tspan class="s" x="0" y="51.6">R</tspan><tspan x="23.56" y="51.6">isk and </tspan><tspan class="t" x="157.89" y="51.6">E</tspan><tspan x="178.75" y="51.6">viden</tspan><tspan class="u" x="279.15" y="51.6">c</tspan><tspan x="298.16" y="51.6">e </tspan><tspan class="v" x="328.82" y="51.6">C</tspan><tspan x="353.28" y="51.6">ommunic</tspan><tspan class="o" x="525.5" y="51.6">a</tspan><tspan class="r" x="546.05" y="51.6">tion</tspan></text>
  </g>
</svg>
